{"glyphs":{"0":{"ha":621,"x_min":21,"x_max":617,"o":"m 146 464 l 139 460 q 135 463 135 460 q 235 524 156 503 q 392 544 315 544 q 543 495 469 544 q 617 377 617 446 q 571 231 617 308 q 458 90 525 153 q 313 -17 392 26 q 170 -60 233 -60 q 64 -21 107 -60 q 21 76 21 18 q 107 301 21 158 q 257 443 193 443 q 294 427 269 443 q 318 401 318 411 q 301 396 318 396 l 292 396 q 154 268 243 396 q 65 75 65 140 q 147 1 65 1 q 314 71 214 1 q 490 239 414 140 q 565 410 565 338 q 378 501 565 501 q 146 464 244 501 z "},"1":{"ha":250,"x_min":26,"x_max":288,"o":"m 68 -1 l 78 -51 q 72 -57 78 -57 q 40 -22 53 -57 q 26 56 26 13 q 147 425 26 175 q 69 354 118 394 q 68 359 68 357 q 69 364 68 361 l 143 465 q 219 547 204 547 q 260 536 233 547 q 288 515 288 525 q 285 510 288 514 q 143 243 218 418 q 68 -1 68 68 z "},"2":{"ha":575,"x_min":26,"x_max":611,"o":"m 207 368 l 217 350 q 208 344 217 344 q 181 369 200 344 q 161 407 161 393 q 283 497 161 453 q 500 542 404 542 q 611 458 611 542 q 483 272 611 397 q 154 40 354 146 q 325 57 239 57 q 492 -14 492 57 q 475 -56 492 -56 q 474 -49 472 -56 q 473 -36 475 -42 q 449 -24 471 -31 q 361 -17 428 -17 q 211 -25 294 -17 q 51 -42 79 -40 q 26 8 36 -42 q 540 460 413 229 q 550 486 550 475 q 514 507 550 507 q 331 457 454 507 q 207 368 207 407 z "},"3":{"ha":572,"x_min":21,"x_max":593,"o":"m 222 428 l 225 414 q 219 406 225 406 q 205 431 214 406 q 196 467 196 456 q 248 524 196 501 q 385 547 300 547 q 531 520 469 547 q 593 448 593 493 q 554 370 593 403 q 419 289 515 338 q 511 157 511 226 q 405 -5 511 68 q 186 -78 299 -78 q 65 -31 110 -78 q 21 91 21 15 q 50 167 21 167 q 57 157 57 167 q 48 126 57 154 q 39 89 39 99 q 161 7 39 7 q 367 69 267 7 q 467 192 467 131 q 324 254 467 254 l 231 243 q 207 268 217 243 l 189 306 q 212 308 192 306 q 247 311 232 310 q 419 369 294 315 q 544 459 544 424 q 403 494 544 494 q 272 476 321 494 q 222 428 222 458 z "},"4":{"ha":522,"x_min":1,"x_max":549,"o":"m 471 138 l 490 189 q 442 204 490 204 l 431 204 q 385 66 415 171 q 354 -56 354 -39 q 362 -83 354 -72 q 369 -97 369 -94 q 358 -100 369 -100 q 310 22 310 -100 q 340 199 310 99 q 319 200 335 200 q 107 165 236 197 q 80 158 93 161 q 59 152 67 154 q 45 149 51 150 q 32 147 39 147 q 13 165 25 146 q 1 196 1 183 q 158 371 1 246 l 371 526 q 335 531 0 0 q 379 540 335 540 q 422 507 422 540 q 289 391 422 494 q 74 221 156 288 q 332 253 213 253 l 363 253 l 422 388 q 465 514 465 488 q 453 530 465 522 q 442 539 442 538 q 472 550 446 550 q 524 535 499 550 q 549 495 549 519 q 504 374 549 471 l 443 243 q 492 220 468 239 q 517 183 517 201 q 503 148 517 165 q 480 131 489 131 q 471 138 471 131 z "},"5":{"ha":486,"x_min":-204,"x_max":529,"o":"m 334 528 q 362 528 334 528 q 447 535 390 528 q 517 542 504 542 q 529 538 529 542 q 515 522 529 535 q 283 456 436 456 q 214 468 239 456 l 132 346 q 288 371 211 371 q 412 336 365 371 q 458 238 458 301 q 385 67 458 146 q 213 -53 313 -12 q 21 -94 114 -94 q -138 -60 -72 -94 q -204 28 -204 -26 q -196 42 -204 42 q -26 -62 -137 -62 q 158 -10 51 -62 q 342 119 264 42 q 419 257 419 196 q 297 325 419 325 q 124 274 222 325 q 90 245 107 264 q 65 226 72 226 q 42 244 58 226 q 26 272 26 263 q 74 362 47 310 q 114 440 100 414 q 143 493 128 465 q 179 542 169 542 q 233 535 189 542 q 334 528 278 528 z "},"6":{"ha":515,"x_min":14,"x_max":560,"o":"m 557 531 q 522 551 536 551 q 342 451 457 551 q 138 226 226 350 q 49 38 49 101 q 111 -25 49 -25 q 313 61 190 -25 q 436 215 436 147 q 387 258 436 258 q 251 206 338 258 q 150 110 164 153 q 140 94 144 94 q 135 108 135 94 q 215 235 135 174 q 358 297 294 297 q 462 268 422 297 q 501 194 501 239 q 381 21 501 107 q 150 -65 261 -65 q 14 78 14 -65 q 186 396 14 199 q 481 597 358 597 q 533 579 506 597 q 560 546 560 561 q 557 531 560 531 z "},"7":{"ha":453,"x_min":18,"x_max":538,"o":"m 522 482 l 514 471 q 538 431 538 458 q 83 28 251 294 q 47 -65 47 -31 q 55 -83 47 -74 q 63 -97 63 -93 q 56 -100 63 -100 q 28 -70 38 -100 q 18 -8 18 -40 q 163 248 18 81 q 421 469 307 415 q 332 474 381 474 q 79 431 150 474 q 58 398 67 422 q 47 374 49 374 q 33 409 33 374 q 54 481 33 444 q 359 532 196 532 q 522 482 522 532 z "},"8":{"ha":636,"x_min":26,"x_max":675,"o":"m 675 608 q 526 403 675 526 l 303 242 q 410 85 410 144 q 363 -3 410 39 q 204 -60 301 -60 q 85 -34 143 -60 q 26 26 26 -8 q 104 149 26 78 l 226 242 q 176 299 206 256 q 147 364 147 342 q 207 448 147 404 q 346 519 267 492 q 490 551 425 547 l 493 551 q 549 540 521 551 q 576 514 576 529 q 569 508 576 508 q 465 488 528 508 q 189 336 189 396 q 226 301 189 331 q 267 272 263 272 q 285 282 267 267 q 319 308 304 297 q 529 453 325 311 q 664 621 629 533 l 667 621 q 675 608 675 621 m 147 3 l 154 1 q 196 14 163 1 q 349 128 349 72 q 317 175 349 139 q 269 211 285 211 q 187 153 254 207 q 96 68 119 99 q 72 3 72 38 l 92 -7 q 131 -1 117 -7 l 136 -3 l 147 3 z "},"9":{"ha":424,"x_min":0,"x_max":433,"o":"m 238 -126 l 261 -124 q 271 -129 268 -124 q 238 -142 267 -142 q 167 -44 167 -142 q 216 142 167 22 q 319 333 265 261 q 114 233 182 233 q 35 267 71 233 q 0 343 0 300 q 97 483 0 408 q 271 558 194 558 q 333 532 296 558 q 369 476 369 506 q 343 446 369 446 q 322 487 329 446 q 290 528 315 528 q 135 446 231 528 q 40 304 40 364 q 83 276 40 276 q 173 292 126 276 q 256 331 219 308 q 383 431 321 371 q 413 415 393 431 q 433 389 433 400 q 417 361 425 378 q 399 327 408 344 q 378 292 389 310 q 214 -86 214 7 q 238 -126 214 -126 z "}," ":{"ha":257,"x_min":0,"x_max":0,"o":""},"!":{"ha":271,"x_min":67,"x_max":419,"o":"m 344 569 q 392 562 365 569 q 419 549 419 554 q 418 543 419 544 q 272 308 367 474 q 240 247 269 304 q 147 85 158 85 q 140 101 140 85 q 228 359 140 149 q 344 569 315 569 m 174 13 q 81 -76 174 17 q 67 -62 67 -76 q 85 2 67 -25 q 138 29 103 29 q 174 13 174 29 z "},"\"":{"ha":215,"x_min":18,"x_max":215,"o":"m 172 456 q 202 446 189 456 q 215 412 215 436 q 190 347 215 388 q 131 307 165 307 q 125 310 125 307 q 159 354 149 333 q 169 383 169 375 q 156 406 169 392 q 142 425 142 419 q 172 456 142 456 m 65 456 q 110 411 110 456 q 85 347 110 388 q 24 307 60 307 q 18 310 18 307 q 64 376 64 360 q 50 406 64 393 q 36 425 36 419 q 65 456 36 456 z "},"#":{"ha":828,"x_min":-8,"x_max":814,"o":"m 603 458 l 782 464 q 814 453 814 464 q 763 429 814 443 q 686 415 711 415 l 589 415 l 518 233 l 671 233 q 722 222 722 233 q 672 199 722 210 q 596 188 622 188 l 501 185 l 464 82 q 408 3 432 3 q 399 19 399 3 q 450 185 399 35 l 243 183 l 207 82 q 153 3 175 3 q 140 26 140 3 q 164 103 140 50 l 197 183 q 25 187 58 183 q -8 210 -8 190 q 43 232 -8 232 l 217 233 q 282 414 246 306 q 115 417 149 414 q 82 439 82 421 q 133 463 82 463 l 299 460 l 347 596 q 374 642 365 642 q 383 599 383 642 q 347 460 383 556 q 524 457 500 457 l 547 457 q 633 640 618 640 q 643 617 643 640 q 603 458 643 558 m 532 414 l 332 414 l 261 233 l 467 233 q 532 414 468 239 z "},"$":{"ha":442,"x_min":-6,"x_max":401,"o":"m 319 742 l 318 754 l 319 757 q 333 728 333 757 q 314 647 333 699 q 341 650 324 650 q 364 649 358 650 l 388 625 q 401 597 401 610 q 355 554 401 581 q 296 528 308 528 l 296 532 q 374 600 374 589 q 351 607 374 607 q 174 563 265 607 q 83 465 83 518 q 161 349 83 431 q 239 225 239 267 q 208 176 239 197 q 140 156 178 156 l 122 156 q 58 44 58 79 l 63 31 l 60 28 q 46 64 46 28 q 76 157 46 100 l 76 158 q -6 210 21 171 l -4 215 q 79 197 31 197 q 169 215 128 197 q 211 256 211 232 q 136 346 211 271 q 61 482 61 428 q 263 636 61 585 q 319 742 319 706 z "},"%":{"ha":735,"x_min":100,"x_max":738,"o":"m 149 -114 q 164 -142 149 -129 q 139 -158 164 -158 q 114 -119 114 -158 q 340 282 114 -32 q 635 658 511 518 q 382 586 486 588 q 383 582 383 586 q 302 443 383 533 q 171 353 221 353 l 154 353 q 116 376 132 353 q 100 426 100 399 q 191 599 100 483 q 339 715 282 715 q 392 660 392 715 q 388 622 392 643 q 399 619 388 619 q 675 700 506 619 q 682 701 676 701 q 713 682 688 701 q 738 653 738 663 q 726 633 738 643 l 406 265 q 149 -114 149 -37 m 615 133 q 592 110 615 121 q 593 106 593 110 q 511 -33 593 58 q 381 -124 429 -124 l 364 -124 q 326 -101 342 -124 q 310 -51 310 -78 q 401 123 310 7 q 549 239 493 239 q 601 182 601 239 q 596 146 601 163 q 606 140 596 143 q 615 133 615 138 m 315 633 q 213 544 276 631 q 149 422 149 458 q 174 386 149 386 q 284 465 214 386 q 357 583 354 544 q 315 633 340 597 m 525 156 q 423 68 488 154 q 358 -56 358 -18 q 383 -93 358 -93 q 493 -12 422 -93 q 567 107 564 69 q 525 156 543 122 z "},"&":{"ha":618,"x_min":24,"x_max":660,"o":"m 610 417 q 618 425 610 422 q 653 392 653 425 q 560 296 653 343 l 453 246 q 517 149 517 208 q 425 8 517 67 q 218 -50 333 -50 q 182 -47 190 -47 q 248 -106 207 -81 q 317 -132 289 -132 q 351 -129 344 -132 q 360 -128 358 -126 q 342 -143 360 -136 q 307 -150 324 -150 q 157 -42 218 -150 q 56 7 89 -35 q 24 103 24 49 q 99 250 24 183 q 289 340 174 317 l 250 346 q 219 378 219 354 q 320 480 219 426 q 544 533 421 533 q 634 604 608 604 q 660 582 660 604 q 621 536 646 561 q 577 490 596 511 q 547 456 558 468 q 529 431 536 444 q 522 414 522 417 q 515 385 515 396 q 493 428 493 389 q 536 522 493 467 q 392 483 460 518 q 294 415 325 449 q 263 369 263 382 q 296 351 263 351 l 400 363 q 444 338 444 363 q 438 322 444 322 l 419 325 l 401 325 l 383 326 q 170 249 275 326 q 65 90 65 171 q 147 -21 65 10 q 140 22 140 0 q 147 62 140 44 q 169 97 153 79 q 197 126 185 114 q 238 157 208 139 q 279 183 267 175 q 329 211 292 190 q 376 238 367 232 q 360 243 374 243 q 268 215 318 243 q 211 161 218 186 q 208 174 208 164 q 256 233 208 204 q 378 263 303 263 q 418 260 390 263 q 546 333 467 272 q 625 407 625 393 q 617 413 625 411 q 610 417 610 415 m 481 175 q 460 214 481 194 q 421 233 440 233 q 276 133 385 233 q 168 -15 168 32 l 168 -25 q 204 -29 183 -29 q 390 36 299 -29 q 481 175 481 101 z "},"'":{"ha":207,"x_min":115,"x_max":218,"o":"m 218 554 q 143 425 218 483 q 122 413 128 413 q 115 417 115 413 q 174 514 174 493 q 159 537 174 522 q 144 557 144 551 q 175 588 144 588 q 205 578 192 588 q 218 554 218 568 z "},"(":{"ha":392,"x_min":-6,"x_max":664,"o":"m 211 -74 l 200 -74 q 53 4 113 -68 q -6 171 -6 76 q 38 358 -6 265 q 185 544 81 450 q 417 697 290 638 q 643 757 543 757 q 664 746 664 757 q 592 724 664 738 q 513 707 519 710 q 283 564 390 664 q 116 348 176 464 q 56 133 56 232 q 157 -36 56 1 q 201 -44 168 -36 q 235 -58 235 -53 q 211 -74 235 -74 z "},")":{"ha":681,"x_min":8,"x_max":679,"o":"m 474 757 q 621 679 563 751 q 679 517 679 607 q 636 328 679 428 q 376 54 571 183 q 31 -75 182 -75 q 8 -61 8 -75 q 36 -50 8 -54 q 322 66 185 -32 q 540 297 460 164 q 621 555 621 429 q 517 719 621 681 q 494 725 514 721 q 440 743 440 733 q 468 757 440 757 l 474 757 z "},"*":{"ha":368,"x_min":40,"x_max":340,"o":"m 340 336 q 226 315 340 319 q 294 222 294 228 q 289 215 294 215 q 200 294 271 215 q 161 192 179 192 q 151 213 151 192 q 167 297 151 221 q 78 240 89 240 q 68 246 68 240 q 81 265 68 257 l 150 317 q 40 329 40 317 q 65 343 40 342 l 157 346 q 102 433 101 419 q 108 446 103 446 q 129 432 119 446 l 183 365 l 200 443 q 215 478 210 478 q 225 458 225 478 q 211 361 225 438 q 303 421 297 421 q 310 415 310 421 q 232 343 310 397 l 315 343 q 340 336 340 343 z "},"+":{"ha":425,"x_min":19,"x_max":417,"o":"m 417 233 q 335 203 417 219 l 233 189 q 165 32 192 32 q 146 60 146 32 q 178 183 146 64 q 19 208 19 183 q 31 230 19 225 q 69 235 43 235 l 193 235 q 246 421 193 236 q 257 386 257 421 q 242 235 257 351 l 317 235 q 415 238 374 235 q 417 233 417 236 z "},",":{"ha":204,"x_min":85,"x_max":175,"o":"m 132 28 q 162 17 149 28 q 175 -17 175 7 q 150 -81 175 -40 q 90 -121 125 -121 q 85 -118 85 -121 q 129 -46 124 -75 q 115 -22 129 -35 q 101 -3 101 -8 q 132 28 101 28 z "},"-":{"ha":311,"x_min":19,"x_max":299,"o":"m 111 233 l 178 235 l 221 235 q 299 238 257 235 l 299 233 q 211 201 299 215 q 82 183 90 183 q 19 208 19 183 q 46 233 19 233 l 111 233 z "},".":{"ha":236,"x_min":92,"x_max":175,"o":"m 132 28 q 162 17 149 28 q 175 -6 175 7 q 162 -29 175 -19 q 136 -39 149 -39 q 92 -1 92 -39 q 132 28 92 28 z "},"/":{"ha":632,"x_min":25,"x_max":650,"o":"m 61 -103 q 76 -129 61 -117 q 51 -146 76 -146 q 25 -104 25 -146 q 40 -35 25 -62 q 146 126 54 -8 q 588 693 542 693 q 650 667 650 693 q 640 647 650 660 l 492 475 q 61 -103 61 -24 z "},":":{"ha":236,"x_min":92,"x_max":217,"o":"m 174 232 q 203 221 189 232 q 217 197 217 210 q 204 174 217 183 q 178 165 192 165 q 133 201 133 165 q 174 232 133 232 m 132 28 q 162 17 149 28 q 175 -6 175 7 q 162 -29 175 -19 q 136 -39 149 -39 q 92 -1 92 -39 q 132 28 92 28 z "},";":{"ha":236,"x_min":85,"x_max":217,"o":"m 174 232 q 203 221 189 232 q 217 197 217 210 q 204 174 217 183 q 178 165 192 165 q 133 201 133 165 q 174 232 133 232 m 132 28 q 162 17 149 28 q 175 -17 175 7 q 150 -81 175 -40 q 90 -121 125 -121 q 85 -118 85 -121 q 129 -46 124 -75 q 115 -22 129 -35 q 101 -3 101 -8 q 132 28 101 28 z "},"<":{"ha":333,"x_min":89,"x_max":239,"o":"m 239 418 q 136 258 239 400 q 238 119 238 132 q 229 106 238 106 l 228 106 l 218 110 q 92 224 193 147 q 89 231 89 226 q 154 335 89 246 q 232 425 219 425 q 239 418 239 425 z "},"=":{"ha":425,"x_min":19,"x_max":449,"o":"m 449 360 q 357 328 449 346 q 217 310 265 310 q 56 333 56 310 q 81 360 56 360 l 349 361 q 449 363 428 361 l 449 360 m 417 233 q 323 202 417 221 q 183 183 229 183 q 19 208 19 183 q 46 233 19 233 l 315 235 q 415 238 374 235 q 417 233 417 236 z "},">":{"ha":333,"x_min":89,"x_max":239,"o":"m 239 293 q 172 187 239 276 q 94 97 106 97 q 89 104 89 97 q 193 264 89 119 q 90 406 90 394 q 99 417 90 417 l 101 417 l 110 414 q 236 299 136 376 q 239 293 239 297 z "},"?":{"ha":419,"x_min":67,"x_max":504,"o":"m 135 443 l 140 421 q 136 414 140 414 q 115 443 128 414 q 101 481 101 472 q 149 535 101 515 q 284 556 197 556 q 438 524 371 556 q 504 449 504 493 q 447 366 504 406 q 319 299 389 326 q 135 174 135 225 q 206 108 135 144 q 229 96 229 97 q 197 86 229 86 q 134 122 164 86 q 104 198 104 157 q 158 281 104 239 q 278 349 213 322 q 451 465 451 419 q 293 501 451 501 q 135 443 135 501 m 174 13 q 81 -76 174 17 q 67 -62 67 -76 q 85 2 67 -25 q 138 29 103 29 q 174 13 174 29 z "},"@":{"ha":882,"x_min":15,"x_max":858,"o":"m 858 572 q 832 476 858 542 l 840 422 q 742 207 840 310 q 507 47 644 104 q 253 -11 369 -11 q 15 181 15 -11 q 75 378 15 279 q 226 549 135 476 q 431 666 318 621 q 644 711 543 711 q 802 674 746 711 q 858 572 858 636 m 817 513 q 828 560 828 524 q 778 655 828 619 q 646 690 729 690 q 381 609 517 690 q 158 402 246 528 q 71 157 71 276 q 236 11 71 11 q 632 176 446 11 q 776 393 776 306 q 772 396 776 396 q 528 151 621 151 q 470 182 492 151 q 449 263 449 213 q 469 383 449 313 q 432 325 468 383 q 251 150 319 150 q 201 176 224 150 q 178 232 178 203 q 227 367 178 283 q 347 515 276 450 q 467 579 417 579 l 481 579 q 567 560 531 579 q 603 508 603 542 q 590 493 603 493 q 586 496 589 493 q 516 549 565 549 q 397 483 467 549 q 282 338 328 417 q 236 227 236 260 q 250 194 236 194 q 514 475 311 194 q 522 476 514 476 q 551 465 529 476 q 572 443 572 453 q 508 236 508 328 q 544 176 508 176 q 667 288 590 176 l 774 443 l 772 458 q 779 510 772 489 q 792 532 786 532 q 817 513 799 532 z "},"A":{"ha":806,"x_min":24,"x_max":996,"o":"m 346 204 l 394 206 l 440 206 q 592 344 503 256 q 717 486 681 433 l 760 549 q 765 533 765 549 q 667 363 765 471 l 522 210 l 688 226 q 785 422 732 322 q 851 547 838 521 q 877 598 864 572 q 907 646 890 624 q 938 668 924 668 q 974 659 953 668 q 996 640 996 650 q 956 578 978 614 q 910 500 935 542 q 664 -76 664 89 q 675 -125 664 -96 q 683 -158 689 -158 q 638 -124 656 -158 q 621 -37 621 -90 q 678 192 621 17 q 571 178 658 192 q 463 158 483 164 q 107 -39 235 -39 q 24 -3 53 -39 q 31 -1 29 -1 l 71 -8 q 379 153 174 -8 l 379 154 l 304 151 q 247 170 271 151 q 222 217 222 189 l 225 219 q 226 221 225 221 l 231 218 q 346 204 244 204 z "},"B":{"ha":736,"x_min":14,"x_max":806,"o":"m 806 528 q 707 382 806 454 q 465 275 608 310 q 636 222 572 267 q 700 99 700 176 q 623 -33 700 22 q 440 -89 546 -89 q 319 -69 379 -89 q 260 -18 260 -49 q 263 -15 260 -15 l 271 -18 q 351 -39 303 -39 q 560 18 471 -39 q 649 127 649 75 q 578 215 649 179 q 442 251 508 251 q 339 236 376 251 q 325 254 325 239 q 354 282 325 274 l 399 289 q 639 397 553 331 q 725 544 725 463 q 679 610 725 585 q 541 635 633 635 q 387 619 449 635 q 183 555 325 603 q 38 507 42 507 q 14 540 14 507 q 24 560 14 556 q 526 664 285 664 q 806 528 806 664 m 426 553 q 425 549 426 550 q 125 -94 125 114 q 136 -146 125 -121 q 150 -171 147 -171 l 150 -169 q 142 -176 150 -176 q 101 -139 118 -176 q 83 -51 83 -101 q 285 469 83 129 q 363 579 343 579 q 404 570 382 579 q 426 553 426 561 z "},"C":{"ha":713,"x_min":33,"x_max":874,"o":"m 765 608 q 826 683 797 683 q 874 665 874 683 q 792 558 807 579 q 710 396 710 447 l 715 375 q 713 372 715 372 q 696 408 696 372 q 751 583 696 469 q 631 622 708 622 q 388 547 513 622 q 182 356 263 471 q 101 143 101 242 q 164 -13 101 44 q 324 -71 226 -71 q 667 90 514 -71 q 694 110 686 110 q 700 99 700 110 q 688 75 700 89 q 494 -58 613 -10 q 271 -106 376 -106 q 99 -45 165 -106 q 33 110 33 15 q 83 300 33 206 q 214 469 133 394 q 403 594 294 544 q 610 643 513 643 q 765 608 707 643 z "},"D":{"ha":964,"x_min":29,"x_max":953,"o":"m 953 374 q 908 214 953 294 q 784 68 863 133 q 587 -38 706 3 q 334 -79 468 -79 q 200 -57 200 -79 q 221 -44 200 -44 l 243 -44 q 268 -46 253 -46 q 529 -3 406 -46 q 733 106 653 40 q 859 248 813 172 q 906 392 906 324 q 821 562 906 499 q 603 625 736 625 l 593 625 q 58 494 403 621 q 29 538 29 494 q 42 558 29 551 q 122 583 54 564 q 578 658 371 658 q 847 581 742 658 q 953 374 953 503 m 172 -142 l 169 -143 q 133 -117 147 -143 q 119 -43 119 -92 q 314 471 119 129 q 328 501 314 476 q 353 542 343 525 q 387 576 372 576 q 421 569 401 576 q 440 553 440 561 q 365 431 404 490 q 153 -72 153 63 q 163 -112 153 -87 q 172 -142 172 -137 z "},"E":{"ha":681,"x_min":13,"x_max":763,"o":"m 18 254 l 58 246 q 280 531 115 407 q 600 654 444 654 q 674 643 654 654 q 704 700 688 693 q 714 701 708 701 q 763 683 763 701 q 731 644 760 683 q 674 557 703 606 q 646 488 646 508 l 651 467 q 649 464 651 464 q 628 514 628 464 q 660 618 628 564 q 625 621 640 621 q 328 505 481 621 q 122 243 175 389 q 383 247 293 243 q 557 275 467 253 q 567 268 567 275 q 394 216 567 242 q 106 188 222 190 q 101 138 101 161 q 164 -13 101 44 q 324 -71 226 -71 q 667 90 518 -71 q 694 110 686 110 q 700 99 700 110 q 688 75 700 89 q 494 -58 613 -10 q 271 -106 376 -106 q 99 -45 165 -106 q 33 119 33 15 q 40 192 33 150 q 23 216 33 192 q 13 247 13 240 q 18 254 13 254 z "},"F":{"ha":661,"x_min":38,"x_max":706,"o":"m 413 -122 l 419 -174 q 418 -181 419 -181 q 399 -156 407 -181 q 390 -103 390 -131 q 514 238 390 -10 q 411 218 485 231 q 199 188 261 188 q 136 250 136 188 q 139 254 136 253 q 272 243 182 243 q 526 261 361 243 l 601 414 q 646 576 646 511 q 539 672 646 672 q 299 601 447 672 q 65 446 151 531 q 57 443 63 443 q 38 482 38 443 q 138 581 38 529 q 357 665 238 633 q 547 696 476 696 q 706 554 706 696 q 688 448 706 490 q 582 268 669 406 q 672 283 658 283 q 685 278 685 283 q 681 271 685 274 q 665 265 676 268 q 642 261 653 263 q 571 247 604 253 q 413 -122 413 -7 z "},"G":{"ha":842,"x_min":33,"x_max":865,"o":"m 413 267 l 494 258 q 736 267 653 258 q 756 294 744 294 q 799 276 768 294 l 840 283 q 851 276 851 283 q 806 260 851 268 q 583 -167 706 7 q 379 -342 460 -342 q 354 -329 354 -342 q 372 -318 354 -325 q 444 -287 435 -294 q 671 97 556 -190 q 275 -106 479 -106 q 99 -46 165 -106 q 33 110 33 14 q 83 299 33 206 q 211 468 132 392 q 400 594 290 544 q 604 643 510 643 q 753 618 699 643 q 778 661 771 650 q 833 692 801 692 q 865 678 865 692 q 833 644 865 674 q 789 599 801 614 q 820 574 807 588 q 833 558 833 561 q 815 534 833 557 q 778 489 796 511 q 726 407 729 426 l 731 403 q 724 396 731 396 q 703 438 703 396 q 742 596 703 515 q 628 622 690 622 q 375 544 503 622 q 167 350 247 465 q 86 136 86 235 q 149 -17 86 38 q 317 -71 213 -71 q 665 146 476 -71 q 713 204 701 185 l 726 244 q 451 201 507 201 q 421 218 435 201 q 407 261 407 235 q 413 267 407 267 m 800 557 l 785 571 q 726 449 742 500 q 800 557 747 475 z "},"H":{"ha":760,"x_min":13,"x_max":918,"o":"m 18 254 l 44 247 q 217 251 189 247 q 408 628 294 432 q 456 638 418 638 q 493 619 493 638 l 426 513 q 289 254 343 371 l 518 265 q 663 282 569 268 q 783 495 719 393 q 864 597 847 597 q 899 590 881 597 q 918 574 918 582 q 884 526 903 553 q 846 474 865 500 q 638 60 638 196 q 688 -3 638 -3 l 735 4 q 739 1 739 4 q 714 -15 739 -6 q 675 -24 689 -24 q 623 4 643 -24 q 603 74 603 32 q 650 251 603 153 q 263 197 425 197 q 161 -136 161 -26 q 169 -185 161 -169 q 178 -203 178 -200 q 171 -206 178 -206 q 121 -101 121 -206 q 193 190 121 3 q 81 185 113 185 q 13 250 13 185 q 18 254 13 254 z "},"I":{"ha":488,"x_min":-21,"x_max":638,"o":"m -14 -15 l 68 -22 l 147 -22 l 147 -11 q 486 592 147 132 q 172 492 222 569 q 167 472 171 488 q 147 443 161 443 q 143 449 143 443 q 511 625 143 610 q 557 668 529 668 q 599 660 575 668 q 622 642 622 651 q 613 626 622 638 q 638 622 638 625 q 628 607 638 617 q 613 597 619 597 l 588 597 q 297 224 407 396 q 183 -21 188 51 q 406 1 329 -18 q 419 3 411 3 q 426 -3 426 3 q 392 -18 426 -12 l 189 -57 q 229 -72 200 -72 l 282 -62 q 289 -65 289 -62 q 256 -85 285 -75 q 211 -94 226 -94 q 157 -61 174 -94 q 24 -79 54 -79 q -14 -67 -7 -79 q -21 -22 -21 -56 q -14 -15 -21 -15 z "},"J":{"ha":883,"x_min":13,"x_max":968,"o":"m 968 496 q 888 276 968 400 q 694 50 807 153 q 456 -124 582 -53 q 246 -194 331 -194 q 167 -174 199 -194 q 135 -118 135 -153 q 383 179 135 18 q 760 364 567 300 q 766 365 763 364 q 771 367 769 367 q 772 364 772 367 q 751 346 772 356 q 165 -121 165 36 q 221 -178 165 -178 q 411 -103 301 -178 q 752 217 600 26 q 904 528 904 408 q 751 635 904 635 q 429 549 629 635 q 158 396 282 483 q 33 258 33 308 q 67 208 33 229 q 68 205 68 208 q 57 201 68 201 q 29 225 46 201 q 13 268 13 249 q 144 428 13 335 q 449 588 276 521 q 729 656 621 656 q 968 496 968 656 z "},"K":{"ha":632,"x_min":10,"x_max":824,"o":"m 793 599 q 808 594 793 599 q 824 579 824 589 q 810 569 824 569 q 763 579 774 579 q 608 519 700 579 q 378 353 517 460 q 207 222 240 247 q 399 -40 285 61 q 586 -140 513 -140 q 624 -106 624 -140 q 554 31 624 -72 l 557 33 q 586 13 565 33 q 653 -104 653 -51 q 624 -157 653 -136 q 551 -178 596 -178 q 374 -98 464 -178 q 213 114 285 -18 q 163 223 163 219 q 173 240 163 226 q 190 254 183 254 q 197 244 196 254 q 363 379 268 292 l 486 492 q 628 585 574 563 q 722 608 682 608 q 793 599 763 608 m 44 -72 q 54 -114 44 -89 q 61 -143 65 -143 q 25 -119 40 -143 q 10 -43 10 -94 q 207 471 10 125 q 279 576 260 576 q 314 567 294 576 q 333 553 333 558 q 306 510 314 524 q 284 475 297 496 q 257 431 271 454 q 44 -72 44 63 z "},"L":{"ha":650,"x_min":1,"x_max":635,"o":"m 635 -54 q 616 -101 635 -67 q 574 -136 597 -136 q 571 -132 571 -133 q 602 -90 593 -110 q 611 -62 611 -69 q 439 3 611 3 q 126 -57 325 3 q 137 -118 126 -82 q 147 -156 147 -154 q 144 -158 147 -158 q 90 -67 94 -158 q 14 -92 68 -74 q 1 -74 1 -92 q 13 -24 1 -33 q 97 0 25 -15 q 182 294 113 119 q 337 601 251 469 q 474 733 422 733 q 541 713 507 733 q 575 668 575 692 q 497 504 575 622 q 306 253 419 386 q 276 212 301 243 q 242 181 250 181 l 238 183 q 314 286 238 189 q 531 658 531 565 q 513 686 531 686 q 454 638 489 686 q 258 305 349 486 q 139 8 167 124 q 428 42 299 42 q 635 -54 635 42 z "},"M":{"ha":964,"x_min":29,"x_max":989,"o":"m 939 433 q 806 26 806 192 q 842 -82 806 -82 q 938 64 875 -82 q 952 82 947 82 q 957 73 957 82 q 956 60 957 64 q 833 -100 915 -100 q 772 -62 794 -100 q 749 28 749 -24 q 765 162 749 81 q 808 328 781 243 q 879 476 836 414 q 968 538 922 538 q 989 530 989 538 q 939 433 989 522 m 439 0 q 394 -14 429 -14 q 360 6 360 -14 q 465 218 358 6 q 571 501 571 431 q 540 540 571 540 q 367 450 463 539 q 183 225 271 361 q 72 -76 72 64 q 78 -126 72 -108 q 86 -146 83 -143 q 93 -158 93 -153 q 86 -162 93 -162 q 47 -124 65 -162 q 29 -37 29 -86 q 257 550 29 157 q 295 620 267 572 q 341 668 324 668 q 380 660 358 668 q 401 640 401 651 q 203 297 247 388 q 557 579 406 579 q 631 494 631 579 q 501 125 631 388 q 747 369 574 192 q 813 445 760 389 q 886 501 867 501 q 890 497 890 501 q 465 56 578 153 l 439 0 z "},"N":{"ha":657,"x_min":40,"x_max":708,"o":"m 88 -65 q 104 -118 88 -93 q 97 -124 104 -124 q 56 -84 72 -124 q 40 3 40 -44 q 258 554 40 189 q 342 668 315 668 q 380 660 358 668 q 401 640 401 651 q 324 510 365 579 q 263 407 283 442 q 235 358 243 372 q 101 64 139 185 q 526 510 192 211 l 635 608 q 692 629 656 626 q 708 619 708 629 l 707 614 q 503 19 503 210 q 539 -82 503 -82 q 635 64 575 -82 q 650 82 644 82 q 656 75 656 82 q 653 60 656 68 q 532 -100 608 -100 q 470 -62 494 -100 q 446 42 446 -25 q 481 245 446 110 q 565 489 517 381 l 281 232 q 88 -65 88 36 z "},"O":{"ha":821,"x_min":31,"x_max":871,"o":"m 871 486 q 842 392 871 451 q 847 346 847 375 q 697 78 847 211 q 481 -63 583 -22 q 243 -104 378 -104 q 91 -43 151 -104 q 31 111 31 18 q 128 356 31 235 q 372 553 225 478 q 657 628 518 628 q 813 590 754 628 q 871 486 871 551 m 838 475 q 788 570 838 535 q 657 606 739 606 q 404 538 532 606 q 192 357 276 471 q 107 124 107 243 q 160 -18 107 32 q 308 -68 214 -68 q 507 -20 401 -68 q 694 119 613 28 q 788 315 776 210 q 599 174 717 236 q 591 171 593 171 q 589 172 589 171 q 628 203 589 171 q 786 357 733 292 q 734 452 776 411 q 629 511 692 493 q 544 520 606 517 q 476 526 482 524 l 481 529 q 594 544 529 544 q 728 512 658 544 q 828 425 797 479 q 838 475 838 450 z "},"P":{"ha":868,"x_min":7,"x_max":957,"o":"m 261 -114 l 264 -131 q 258 -136 264 -136 q 219 -74 219 -136 q 316 237 219 47 q 558 597 413 426 l 558 599 q 38 438 221 571 q 29 435 35 435 q 7 469 7 435 q 64 532 7 504 q 581 646 304 646 q 857 594 757 646 q 957 450 957 543 q 823 281 957 357 q 550 204 689 204 q 397 232 474 204 q 307 53 353 169 q 261 -114 261 -62 m 928 485 q 582 599 928 599 q 618 574 618 576 q 406 251 406 275 q 499 243 433 243 q 670 278 565 243 q 851 372 775 314 q 928 485 928 429 z "},"Q":{"ha":833,"x_min":44,"x_max":1078,"o":"m 1078 -231 q 982 -318 1078 -318 q 725 -231 869 -318 q 501 -65 682 -204 q 307 -114 403 -114 q 147 -51 211 -114 q 82 113 82 11 q 217 385 82 261 q 514 510 353 510 q 579 485 575 510 q 526 493 564 493 q 357 423 458 493 q 180 256 256 353 q 104 92 104 160 q 285 -60 104 -60 q 446 -25 357 -60 q 218 72 311 72 q 136 46 167 72 q 132 49 132 46 q 169 83 132 68 q 232 99 206 99 q 475 -12 318 99 q 715 175 618 53 q 813 414 813 297 q 753 555 813 506 q 590 604 693 604 q 279 517 450 604 q 51 322 108 429 q 44 334 44 322 q 86 393 44 346 q 313 569 182 501 q 575 638 444 638 q 774 555 681 638 q 867 370 867 472 q 769 146 867 268 q 529 -51 671 24 q 790 -217 701 -175 q 963 -258 878 -258 q 1049 -194 1049 -258 q 947 -62 1049 -125 q 828 -10 900 -33 q 757 11 757 14 q 772 14 757 14 q 997 -59 915 14 q 1078 -231 1078 -132 z "},"R":{"ha":810,"x_min":1,"x_max":964,"o":"m 576 639 q 857 595 750 639 q 964 478 964 551 q 892 344 964 406 q 713 247 821 282 q 496 211 604 211 q 428 215 458 211 q 675 -51 593 -51 q 715 -17 707 -51 l 726 42 q 740 3 740 32 q 715 -53 740 -25 q 646 -81 689 -81 q 517 8 603 -81 q 344 235 432 96 q 233 -46 233 46 q 250 -81 233 -71 q 243 -85 250 -85 q 214 -4 214 -85 q 313 289 214 119 q 290 340 290 329 q 326 367 290 367 q 349 350 342 367 q 586 583 465 525 q 597 585 590 585 q 615 578 603 585 q 628 565 628 571 q 624 558 628 558 l 560 494 q 382 290 479 413 q 417 244 403 253 q 472 235 432 235 q 675 275 567 235 q 857 375 783 315 q 931 489 931 435 q 847 574 931 543 q 628 606 764 606 q 51 453 271 606 q 24 442 33 442 q 1 464 1 442 q 95 552 1 511 q 316 615 189 593 q 558 639 443 638 l 576 639 z "},"S":{"ha":442,"x_min":22,"x_max":650,"o":"m 604 603 q 569 615 604 615 q 390 585 486 615 q 226 503 294 556 q 157 398 157 450 q 278 219 157 346 q 399 29 399 93 q 353 -47 399 -17 q 243 -78 307 -78 l 208 -78 q 22 4 75 -78 l 25 13 q 153 -15 85 -15 q 288 11 221 -15 q 356 74 356 38 q 296 158 356 94 q 152 322 181 279 q 124 425 124 365 q 411 654 124 579 q 557 683 539 683 q 590 679 575 683 l 625 643 q 650 601 647 618 q 576 533 650 572 q 485 493 501 493 l 483 500 l 554 549 q 604 603 604 582 z "},"T":{"ha":692,"x_min":17,"x_max":978,"o":"m 290 467 l 317 468 q 326 463 326 468 q 293 449 326 449 q 113 504 208 449 q 17 621 17 560 q 97 701 17 701 q 140 697 117 701 q 813 576 611 576 q 936 631 936 576 q 858 693 936 668 l 783 722 q 801 729 783 729 q 917 681 856 729 q 978 586 978 633 q 872 532 978 532 l 867 532 q 629 557 724 538 q 326 619 363 611 q 269 631 290 626 q 213 640 247 635 q 97 650 151 650 q 43 621 43 650 q 137 518 43 569 q 290 467 231 467 m 688 519 q 681 501 688 515 l 593 414 q 356 -56 356 149 q 396 -94 356 -94 q 463 -75 424 -94 l 497 -56 q 503 -58 503 -56 q 458 -92 503 -75 q 399 -110 414 -110 q 340 -84 361 -110 q 319 -5 319 -58 q 376 182 319 49 q 515 428 432 315 q 656 540 597 540 q 688 519 688 540 z "},"U":{"ha":529,"x_min":7,"x_max":813,"o":"m 813 613 q 758 504 813 569 q 694 432 726 467 q 483 200 610 342 q 437 65 461 164 q 413 -82 413 -35 q 471 -312 413 -250 q 472 -315 472 -312 q 468 -318 471 -317 q 400 -217 433 -318 q 367 -40 367 -117 q 389 106 367 36 q 182 -54 258 -54 q 112 -13 144 -54 q 79 65 79 28 q 168 310 79 158 l 311 542 q 158 464 242 519 q 8 361 11 361 l 7 363 l 10 368 q 159 495 51 421 q 307 569 267 569 q 348 552 329 569 q 367 514 367 535 q 279 354 367 493 q 160 150 192 215 q 129 21 129 85 q 149 -3 129 -3 q 303 103 185 -3 q 461 285 422 208 q 627 545 542 450 q 782 640 713 640 q 813 613 813 640 m 789 613 q 781 619 789 619 q 649 510 740 619 q 500 282 558 401 l 500 279 q 501 275 500 278 q 696 482 603 374 q 789 613 789 590 z "},"V":{"ha":696,"x_min":36,"x_max":1099,"o":"m 1099 611 q 1096 601 1099 601 l 1081 626 q 1033 650 1065 650 q 840 536 965 650 q 612 295 715 422 q 443 68 508 168 q 342 -89 364 -89 q 310 -79 328 -89 q 292 -60 292 -69 l 336 82 q 424 508 421 350 q 349 639 424 639 q 236 590 306 639 q 106 469 167 540 q 74 420 97 453 q 39 388 50 388 q 36 394 36 388 q 42 410 36 400 q 186 590 103 517 q 333 663 269 663 q 475 460 475 663 q 456 315 475 393 q 390 88 438 238 q 745 535 601 399 q 1006 671 889 671 q 1072 655 1044 671 q 1099 611 1099 639 z "},"W":{"ha":1044,"x_min":15,"x_max":1007,"o":"m 739 414 q 731 225 731 286 q 793 -43 731 -43 q 904 81 856 -43 q 953 315 953 204 q 867 511 953 483 q 863 515 863 514 q 907 529 863 529 q 979 472 951 529 q 1007 317 1007 414 q 944 47 1007 161 q 786 -67 882 -67 q 672 167 672 -67 q 689 379 672 256 q 508 169 650 339 q 276 -73 365 -1 q 114 -144 188 -144 q 44 -108 72 -144 q 15 -24 15 -72 q 128 243 15 82 q 379 521 240 404 q 593 638 518 638 q 618 622 618 638 q 611 614 618 617 q 448 503 525 569 q 269 322 371 436 q 112 105 168 207 q 56 -53 56 3 q 99 -110 56 -110 q 166 -98 138 -110 q 273 -17 194 -86 q 525 242 351 53 q 719 431 699 431 q 739 414 739 431 z "},"X":{"ha":671,"x_min":-3,"x_max":806,"o":"m 218 499 l 219 492 l 215 489 q 208 569 208 492 q 253 622 208 622 q 315 501 271 622 q 374 346 358 381 q 767 679 744 679 q 792 667 778 679 q 806 642 806 654 q 640 506 806 646 q 390 293 475 367 l 447 142 q 532 -3 483 49 q 560 -22 550 -22 q 576 -20 571 -22 q 599 17 581 -18 q 646 128 618 51 q 651 99 651 113 q 617 -5 651 35 q 529 -44 583 -44 q 432 47 478 -44 q 344 251 397 115 q 15 -128 149 81 q 1 -144 4 -144 q -3 -124 -3 -144 q 6 -82 -3 -103 q 147 119 24 -33 q 321 307 271 272 q 233 535 288 407 l 232 535 q 218 499 218 535 z "},"Y":{"ha":750,"x_min":22,"x_max":804,"o":"m 753 449 q 789 456 774 456 q 804 451 804 456 q 798 440 804 446 q 783 431 792 435 q 744 410 756 415 q 536 46 701 278 q 303 -262 385 -176 q 171 -349 221 -349 q 106 -287 106 -349 q 164 -150 106 -250 q 300 35 222 -50 q 453 179 338 76 q 661 372 568 282 q 690 463 672 382 q 708 581 708 543 q 689 618 708 618 q 289 139 633 618 l 221 44 q 172 7 203 7 q 142 35 142 7 l 142 39 l 239 268 q 310 472 286 379 q 335 601 333 565 q 281 686 335 686 q 191 638 254 686 q 76 542 128 590 q 25 485 25 493 l 26 485 q 22 488 22 485 q 26 499 22 492 q 154 640 83 582 q 275 697 225 697 q 376 569 376 697 q 249 133 376 425 l 458 426 q 674 660 631 660 q 718 642 718 660 q 710 633 717 639 q 764 519 764 579 q 753 449 764 486 m 165 -267 q 150 -309 150 -300 q 157 -318 150 -318 q 163 -318 157 -318 q 196 -294 168 -318 q 430 -27 300 -207 q 639 318 560 153 q 165 -267 278 -8 z "},"Z":{"ha":929,"x_min":3,"x_max":929,"o":"m 929 -61 q 828 -221 929 -156 q 788 -240 796 -240 q 779 -236 779 -240 q 781 -233 781 -235 q 900 -57 900 -126 q 635 24 900 24 q 359 3 508 24 q 119 -41 210 -18 q 28 -74 28 -64 l 29 -74 q 6 -40 6 -74 l 4 -29 q 13 -19 4 -24 q 74 0 21 -15 l 72 10 q 145 87 72 31 q 297 192 218 143 q 511 319 375 242 q 846 515 843 507 q 646 565 801 565 q 467 551 603 565 q 307 538 332 538 q 250 571 250 538 q 263 594 250 585 q 285 583 275 583 q 451 601 296 583 q 701 619 607 619 q 872 485 843 619 q 886 436 886 469 q 814 399 886 428 l 726 361 q 263 103 526 267 l 114 13 q 685 71 458 71 q 861 35 793 71 q 929 -61 929 0 z "},"[":{"ha":613,"x_min":8,"x_max":600,"o":"m 171 -33 l 250 -29 q 281 -40 281 -29 q 185 -56 281 -56 q 8 -18 8 -56 q 142 363 8 106 q 379 693 275 619 q 504 714 408 714 q 600 692 600 714 l 599 679 q 585 678 594 678 l 508 682 q 451 675 468 682 q 321 519 408 653 q 162 236 233 386 q 90 25 90 86 q 171 -33 90 -33 z "},"\\":{"ha":576,"x_min":10,"x_max":547,"o":"m 547 -125 q 519 -160 547 -160 q 522 -150 522 -157 q 377 236 522 -4 q 10 704 232 476 q 35 711 14 711 q 80 690 56 711 q 171 579 104 668 q 443 172 339 367 q 547 -125 547 -24 z "},"]":{"ha":582,"x_min":19,"x_max":610,"o":"m 447 689 l 368 683 q 338 697 338 683 q 433 711 338 711 q 610 672 610 711 q 476 292 610 549 q 239 -39 342 36 q 117 -58 214 -58 q 19 -36 19 -58 l 19 -22 q 36 -21 25 -21 l 110 -25 q 168 -18 154 -25 q 273 98 203 0 q 415 326 343 196 q 528 629 528 536 q 447 689 528 689 z "},"^":{"ha":388,"x_min":67,"x_max":353,"o":"m 194 393 q 76 306 86 306 q 67 317 67 306 q 133 380 67 328 q 210 435 199 432 l 215 432 q 346 319 253 390 l 353 308 l 347 301 q 270 338 328 303 q 194 393 213 374 z "},"_":{"ha":844,"x_min":8,"x_max":829,"o":"m 26 -114 q 8 -89 8 -114 q 26 -64 8 -64 l 801 -64 q 829 -93 828 -64 l 824 -100 q 434 -107 685 -100 q 26 -114 183 -114 z "},"`":{"ha":232,"x_min":22,"x_max":217,"o":"m 36 436 q 130 371 43 436 q 217 297 217 306 q 208 288 217 288 q 118 336 188 294 q 35 389 49 378 q 22 408 22 400 q 22 418 22 408 q 36 436 22 436 z "},"a":{"ha":392,"x_min":8,"x_max":433,"o":"m 374 -40 l 388 -37 l 390 -39 q 356 -51 390 -51 q 301 -21 322 -51 q 279 62 279 10 q 299 181 279 114 q 261 124 299 176 q 82 -53 147 -53 q 31 -27 54 -53 q 8 40 8 -1 q 58 165 8 81 q 176 314 107 249 q 296 379 246 379 l 310 379 q 397 359 361 379 q 433 306 433 339 q 421 290 433 290 q 417 294 417 290 q 349 346 393 346 q 169 216 271 346 q 67 18 67 86 q 81 -8 67 -8 q 343 274 143 -8 q 352 276 346 276 q 381 263 358 276 q 403 240 403 250 q 383 204 403 240 q 338 33 338 107 q 374 -40 338 -40 z "},"b":{"ha":411,"x_min":-4,"x_max":406,"o":"m 232 667 l 183 657 q 174 665 174 657 q 225 686 174 686 q 306 668 276 686 q 335 617 335 650 q 281 478 335 585 l 208 336 q 310 367 253 367 q 406 274 406 367 q 303 39 406 167 q 110 -89 201 -89 q -1 -21 42 -89 q -4 -14 -4 -15 q -1 -10 -4 -12 q 83 -42 43 -42 q 258 72 175 -42 q 340 296 340 185 q 311 339 340 339 q 169 217 251 339 q 88 25 88 96 q 97 -8 88 14 q 85 -12 97 -12 q 65 7 74 -12 q 57 51 57 26 q 124 283 57 129 l 225 517 q 257 635 257 604 q 232 667 257 667 z "},"c":{"ha":336,"x_min":-7,"x_max":356,"o":"m 347 174 q 356 167 356 174 q 353 156 356 161 q 111 -57 207 -57 q -7 53 -7 -57 q 77 258 -7 136 q 239 379 161 379 q 297 359 267 379 q 326 315 326 339 q 282 250 326 250 q 268 257 269 250 q 285 319 285 294 q 274 343 285 343 q 218 311 257 343 q 100 172 150 256 q 50 32 50 89 q 93 -25 50 -25 q 203 26 142 -25 q 294 118 242 63 q 347 174 346 174 z "},"d":{"ha":424,"x_min":-1,"x_max":547,"o":"m 446 660 l 399 650 q 389 658 389 650 q 451 681 389 681 q 547 615 547 681 q 462 419 547 593 q 374 238 376 244 q 300 -21 300 76 q 328 -78 300 -78 l 369 -62 l 374 -64 q 353 -83 374 -74 q 322 -93 333 -93 q 260 7 260 -93 q 304 219 260 69 q 190 33 253 115 q 83 -50 128 -50 q 27 -16 56 -50 q -1 47 -1 18 q 92 258 -1 133 q 260 382 186 382 q 303 370 279 382 q 328 345 328 358 q 315 332 328 332 l 288 347 q 142 208 239 347 q 44 11 44 68 q 56 -10 44 -10 q 104 21 68 -10 q 202 123 140 51 q 328 286 264 194 q 415 492 356 347 q 474 638 474 636 q 446 660 474 660 z "},"e":{"ha":324,"x_min":-7,"x_max":356,"o":"m 347 174 q 356 167 356 174 q 353 156 356 161 q 111 -57 207 -57 q -7 53 -7 -57 q 77 258 -7 138 q 240 379 161 379 q 299 358 274 379 q 325 306 325 336 q 260 201 325 253 q 133 150 194 150 q 121 156 121 150 l 125 163 q 285 326 285 213 q 274 343 285 343 q 218 311 257 343 q 100 172 150 256 q 50 32 50 89 q 93 -25 50 -25 q 203 26 142 -25 q 294 118 242 63 q 347 174 346 174 z "},"f":{"ha":307,"x_min":-412,"x_max":486,"o":"m 97 383 l 168 371 q 177 370 171 371 q 186 375 183 369 q 207 425 200 396 q 301 653 258 588 q 407 718 343 718 q 463 700 439 718 q 486 654 486 682 q 443 588 486 588 q 429 596 429 588 q 440 656 440 619 q 419 693 440 693 q 317 574 376 693 q 278 476 307 554 q 250 389 250 397 q 268 375 250 375 l 444 379 q 449 374 449 379 q 217 299 260 308 q 172 157 217 289 q -26 -318 75 -172 q -253 -464 -128 -464 q -362 -422 -312 -464 q -412 -308 -412 -381 q -408 -300 -412 -300 q -399 -315 -403 -300 q -262 -421 -368 -421 q 29 -71 -114 -421 q 94 108 54 -8 q 157 293 133 225 q 90 371 90 311 q 97 383 90 383 z "},"g":{"ha":324,"x_min":-582,"x_max":399,"o":"m 235 31 q 256 -74 256 -8 q 254 -100 256 -87 q 349 -161 311 -124 q 388 -233 388 -199 q 371 -267 388 -267 q 364 -258 367 -267 q 375 -229 375 -243 q 338 -171 375 -200 q 256 -128 300 -142 q 149 -398 239 -271 q -76 -601 60 -525 q -356 -676 -212 -676 q -517 -622 -453 -676 q -582 -473 -582 -568 q -475 -283 -582 -378 q -210 -132 -368 -187 q 99 -76 -53 -76 q 219 -89 169 -76 q 225 -58 225 -72 q 214 8 225 -11 q 115 -42 160 -42 q 38 1 71 -42 q 4 93 4 44 q 111 294 4 190 q 128 401 111 374 q 194 429 146 429 q 299 338 242 429 q 399 264 399 319 q 391 238 399 251 q 375 225 383 225 q 367 231 367 225 q 381 253 381 240 q 314 294 381 294 q 315 265 315 283 q 235 31 315 132 m 233 344 q 175 390 214 390 q 136 315 136 390 l 136 314 q 222 344 182 344 l 233 344 m 269 224 q 257 293 269 263 q 190 262 233 285 q 146 229 146 239 q 219 64 146 218 q 269 224 269 136 m 58 47 q 114 -25 58 -25 q 206 43 163 -25 l 133 215 q 81 136 104 186 q 58 47 58 86 m 122 -112 q -137 -147 -10 -112 q -356 -233 -265 -181 q -501 -347 -446 -285 q -557 -474 -557 -410 q -508 -578 -557 -539 q -369 -618 -458 -618 q -6 -466 -178 -618 q 214 -119 165 -314 q 122 -112 181 -112 z "},"h":{"ha":363,"x_min":-44,"x_max":385,"o":"m 221 671 l 172 661 q 165 669 165 661 q 219 690 165 690 q 298 671 272 690 q 324 622 324 651 q 261 464 324 592 l 179 296 l 97 107 q 210 224 154 157 q 295 333 267 292 q 328 374 324 374 l 335 374 q 385 354 385 374 q 378 347 385 360 q 308 176 339 276 q 278 46 278 76 q 307 -39 278 -39 q 347 -12 317 -39 q 351 -24 351 -12 q 312 -60 351 -60 q 247 -19 272 -60 q 222 75 222 21 q 249 201 222 129 q 76 47 158 110 q 49 -60 49 -29 l 49 -67 q 61 -81 61 -75 q 44 -93 61 -93 q 29 -86 36 -93 q -44 -1 -44 -10 q -36 7 -44 7 l -33 7 q 29 49 4 29 q 113 282 57 154 l 192 464 q 247 640 244 585 q 221 671 247 671 m 18 -50 q 17 -30 17 -43 q 21 8 17 -17 q -17 -10 -11 -8 q 18 -50 -4 -31 z "},"i":{"ha":214,"x_min":21,"x_max":278,"o":"m 275 576 q 278 569 278 576 l 271 529 q 207 443 250 443 q 157 460 175 443 q 275 576 210 496 m 203 349 q 121 162 160 275 q 82 6 82 49 q 100 -37 82 -37 q 132 -22 113 -37 q 156 -3 151 -7 q 165 6 160 1 q 171 0 171 6 q 131 -40 171 -17 q 74 -62 92 -62 q 21 14 21 -62 q 104 318 21 128 q 112 339 104 324 q 124 358 119 354 q 150 368 133 368 q 203 349 199 368 z "},"j":{"ha":219,"x_min":-512,"x_max":233,"o":"m 231 547 q 233 540 235 547 q 232 526 232 532 q 164 413 215 413 q 113 431 132 413 q 231 547 165 467 m 106 294 l 101 351 l 101 354 q 114 364 101 364 q 150 353 126 364 q 178 331 174 342 q 183 272 183 308 q 86 -94 183 133 q -165 -508 -11 -322 q -421 -694 -318 -694 q -491 -674 -469 -694 q -512 -606 -512 -653 q -358 -323 -512 -497 q -11 -29 -203 -149 l 0 -24 q 3 -28 3 -24 q -14 -50 3 -33 q -482 -612 -482 -440 q -431 -679 -482 -679 q -257 -568 -354 -679 q -81 -303 -160 -457 q 51 19 -3 -149 q 106 294 106 186 z "},"k":{"ha":385,"x_min":21,"x_max":458,"o":"m 208 671 l 161 661 q 151 669 151 661 q 205 690 151 690 q 285 671 258 690 q 311 625 311 651 q 203 353 311 599 q 68 43 86 97 q 164 174 74 56 l 136 197 q 156 231 136 207 q 183 254 176 254 q 214 236 189 254 q 347 365 278 308 q 444 421 415 421 q 458 390 458 421 q 401 253 458 317 q 271 174 344 189 q 326 -24 326 83 q 317 -108 326 -65 q 297 -151 308 -151 q 285 -142 285 -151 l 292 -86 q 179 156 292 36 q 57 -35 72 4 q 61 -43 61 -39 q 44 -56 61 -56 q 21 -15 21 -56 q 44 110 21 26 l 151 378 q 235 633 235 594 q 208 671 235 671 m 382 360 q 380 364 382 364 q 308 298 378 364 q 231 222 238 232 q 265 210 236 210 q 338 265 294 210 q 382 360 382 319 z "},"l":{"ha":239,"x_min":28,"x_max":399,"o":"m 114 -32 l 136 -25 q 143 -32 143 -25 q 94 -54 143 -54 q 28 57 28 -54 q 72 291 28 131 q 185 592 117 451 q 307 732 253 732 q 368 712 338 732 q 399 668 399 692 q 104 224 399 568 q 81 44 81 121 q 114 -32 81 -32 m 365 672 q 356 689 365 689 q 235 541 314 689 q 114 260 156 393 q 365 672 365 589 z "},"m":{"ha":624,"x_min":26,"x_max":621,"o":"m 621 275 q 565 56 565 122 q 589 -10 565 -10 q 599 21 593 1 q 603 -8 603 11 q 581 -44 603 -44 q 508 81 508 -44 q 528 236 508 140 q 464 157 496 204 l 392 56 q 318 -29 332 -29 q 271 -12 271 -29 q 286 53 271 -8 q 335 299 335 233 q 317 328 335 328 q 178 176 265 328 q 110 38 147 121 q 71 -44 74 -44 q 42 -37 57 -44 q 26 -21 26 -31 q 72 147 26 3 q 118 363 118 290 q 99 388 118 386 q 79 396 79 390 q 100 408 79 408 q 193 332 193 408 q 161 203 193 293 l 193 257 q 265 350 232 321 q 333 379 297 379 q 336 379 335 379 q 400 293 400 379 q 349 71 400 224 l 539 276 q 589 288 557 288 q 621 275 621 288 z "},"n":{"ha":424,"x_min":26,"x_max":429,"o":"m 429 354 q 422 347 429 360 q 353 176 383 276 q 322 46 322 76 q 353 -39 322 -39 q 378 -26 363 -39 q 392 -12 394 -12 q 396 -24 396 -12 q 354 -60 396 -60 q 290 -23 313 -60 q 268 82 268 14 q 304 262 268 150 q 374 374 340 374 l 381 374 q 429 354 429 374 m 321 340 q 322 335 322 339 q 311 318 322 332 q 103 7 161 136 l 90 -29 q 69 -44 82 -44 q 42 -37 57 -44 q 26 -21 26 -31 q 72 147 26 3 q 118 363 118 290 q 108 386 118 382 q 89 390 99 390 q 79 396 79 389 q 100 408 79 408 q 193 332 193 408 q 126 106 193 303 q 244 271 188 201 q 321 340 301 340 z "},"o":{"ha":324,"x_min":3,"x_max":365,"o":"m 351 289 l 317 294 q 319 250 319 267 q 261 47 319 135 q 115 -42 203 -42 q 3 76 3 -42 q 24 177 3 124 q 78 264 46 231 q 63 329 63 289 q 96 402 63 369 q 178 435 129 435 q 300 340 269 435 q 365 310 365 328 q 351 289 365 289 m 161 396 q 113 369 132 396 q 93 316 93 343 q 97 276 93 289 q 228 347 192 347 l 232 347 q 161 396 214 396 m 146 229 q 168 220 160 219 q 178 221 176 221 q 185 214 185 221 q 166 203 185 203 q 132 213 147 203 q 58 51 58 126 q 115 -25 58 -25 q 221 65 171 -25 q 271 236 271 154 q 258 294 271 272 q 146 229 206 286 z "},"p":{"ha":471,"x_min":-35,"x_max":474,"o":"m 156 382 l 108 371 q 100 381 100 371 q 161 403 100 403 q 257 338 257 403 q 217 225 257 317 q 407 374 324 374 q 474 297 474 374 q 374 76 474 196 q 182 -43 275 -43 q 101 -22 135 -43 q 13 -322 13 -218 q 38 -356 13 -356 l 81 -340 q 83 -343 83 -340 q 64 -362 83 -353 q 26 -371 44 -371 q -13 -346 8 -371 q -35 -294 -35 -321 q 51 28 -35 -178 q 38 64 38 54 q 42 74 38 74 l 44 72 q 58 43 49 54 q 185 360 185 339 q 156 382 185 382 m 408 304 q 385 340 408 340 q 260 249 339 340 q 110 0 182 157 l 110 -1 q 163 -8 128 -8 q 326 100 243 -8 q 408 304 408 208 z "},"q":{"ha":383,"x_min":8,"x_max":429,"o":"m 429 276 l 428 276 q 369 211 413 276 q 292 63 326 146 q 336 -78 336 22 q 281 -290 336 -179 l 251 -351 q 215 -404 228 -393 q 180 -415 203 -415 q 128 -393 157 -415 q 99 -340 99 -371 q 167 -119 99 -308 q 285 167 236 69 q 67 -37 158 -37 q 8 26 8 -37 q 60 173 8 89 q 186 319 111 257 q 321 381 261 381 q 394 319 394 381 q 386 303 394 306 l 383 304 q 325 333 369 333 q 228 280 281 333 q 121 135 175 226 q 67 7 67 43 q 81 -11 67 -11 q 214 110 119 -11 q 335 260 308 232 q 374 289 363 289 q 408 285 386 289 q 429 276 429 281 m 315 -57 q 282 42 315 8 q 164 -356 164 -267 q 172 -375 164 -375 q 215 -336 185 -375 q 315 -57 315 -211 z "},"r":{"ha":361,"x_min":26,"x_max":424,"o":"m 424 378 q 408 363 424 383 q 351 254 356 289 q 378 208 351 217 q 388 204 388 206 q 360 193 388 193 q 314 215 333 193 q 294 263 294 236 q 301 310 294 290 q 188 199 233 256 q 126 100 143 142 q 101 24 110 58 q 88 -27 93 -10 q 69 -44 82 -44 q 42 -37 57 -44 q 26 -21 26 -31 q 72 147 26 3 q 118 363 118 290 q 99 388 118 386 q 79 396 79 390 q 100 408 79 408 q 193 332 193 408 q 147 168 193 310 q 314 336 222 290 q 380 386 336 386 q 424 378 424 386 z "},"s":{"ha":282,"x_min":-1,"x_max":321,"o":"m 253 400 q 292 371 263 400 q 321 334 321 342 q 314 326 321 326 q 275 333 283 333 q 147 288 213 333 q 81 194 81 242 q 146 110 81 185 q 211 9 211 36 q 172 -46 211 -18 q 94 -74 133 -74 q 26 -62 54 -74 q -1 -37 -1 -50 q 158 43 158 -4 q 121 86 158 53 q 49 229 49 150 q 120 342 49 285 q 253 400 192 400 z "},"t":{"ha":240,"x_min":7,"x_max":368,"o":"m 168 521 l 140 514 q 136 518 136 514 q 153 535 136 529 q 178 542 169 542 q 239 472 239 542 q 214 367 239 431 q 264 361 219 361 q 333 372 308 361 q 363 382 358 382 q 368 378 368 382 q 363 368 368 374 q 203 300 297 313 q 183 296 194 300 q 57 -24 57 43 q 74 -46 57 -46 l 113 -37 l 114 -39 q 68 -68 114 -68 q 7 -3 7 -68 q 46 151 7 53 q 111 304 68 201 q 64 358 64 324 q 69 374 64 369 q 133 360 92 364 q 179 491 179 461 q 168 521 179 521 z "},"u":{"ha":432,"x_min":8,"x_max":446,"o":"m 131 361 l 118 386 q 128 390 118 390 q 174 376 139 390 q 208 353 208 363 q 133 199 194 325 q 71 28 71 72 q 89 -15 71 -15 q 153 35 111 -15 q 235 151 194 85 l 351 340 q 396 374 371 374 q 446 354 446 374 q 439 347 446 360 q 369 176 400 276 q 338 46 338 76 q 368 -39 338 -39 q 408 -12 378 -39 q 411 -24 411 -12 q 370 -60 411 -60 q 306 -23 329 -60 q 283 69 283 14 q 306 215 283 124 q 160 -7 197 39 q 89 -53 124 -53 q 31 -27 54 -53 q 8 29 8 -1 q 69 222 8 88 q 131 361 131 356 z "},"v":{"ha":315,"x_min":17,"x_max":469,"o":"m 469 414 q 465 403 469 407 q 287 249 385 354 q 139 8 189 144 q 104 -58 122 -58 q 63 -39 63 -58 q 83 225 83 185 q 49 342 83 340 q 40 329 46 340 q 29 318 33 318 q 17 338 17 318 q 63 365 17 365 q 150 211 150 365 q 140 121 150 197 q 146 115 140 115 q 156 126 149 115 q 334 347 254 264 q 453 429 414 429 q 469 414 469 429 z "},"w":{"ha":629,"x_min":-1,"x_max":632,"o":"m 632 238 q 574 50 632 136 q 438 -36 515 -36 q 354 28 383 -36 q 325 199 325 93 q 331 258 325 236 q 157 8 210 67 q 51 -51 104 -51 q 13 -32 28 -51 q -1 14 -1 -12 q 172 313 -1 101 q 202 336 192 336 q 213 328 213 336 l 210 324 q 122 162 176 281 q 67 16 67 43 q 79 -11 67 -11 q 201 117 100 -11 q 322 290 301 244 q 365 294 326 294 q 403 282 403 294 l 403 283 q 399 158 399 283 q 442 -18 399 -18 q 518 69 479 -18 q 557 232 557 156 q 497 350 557 331 q 546 364 504 364 q 632 238 632 364 z "},"x":{"ha":394,"x_min":-62,"x_max":463,"o":"m 463 371 q 440 344 463 361 q 221 150 354 276 q 317 -29 244 -29 q 363 -14 326 -29 q 367 -18 367 -14 q 326 -50 367 -32 q 264 -68 286 -68 q 207 -30 226 -68 q 167 110 188 8 q 68 6 92 33 q 19 -57 44 -22 q -50 -144 -43 -144 q -62 -132 -62 -144 q 92 68 -62 -108 q 126 108 111 90 q 151 136 142 126 q 158 146 160 146 l 144 258 q 120 323 135 301 q 96 348 106 344 q 86 353 86 351 q 135 367 86 367 q 190 353 185 367 q 215 188 199 343 q 337 307 240 215 q 438 399 433 399 q 463 371 463 399 z "},"y":{"ha":406,"x_min":-254,"x_max":424,"o":"m 424 261 q 332 -92 424 128 q 86 -496 229 -331 q -162 -661 -57 -661 q -254 -571 -254 -661 q -97 -286 -254 -461 q 260 8 67 -101 q 246 -17 267 8 q -224 -581 -224 -407 q -171 -647 -224 -647 q 47 -472 -81 -647 q 266 -77 175 -297 q 357 272 357 143 q 340 339 357 321 q 82 14 156 146 q 40 -44 58 -44 q -1 -21 -1 -44 q 54 144 -3 -7 l 93 251 q 114 363 111 307 l 114 368 q 110 386 114 383 q 92 389 107 389 q 78 396 78 389 q 100 408 78 408 q 189 342 189 408 q 106 106 189 310 q 247 272 154 172 q 363 371 339 371 q 351 349 363 358 q 418 321 414 342 q 424 261 424 285 z "},"z":{"ha":464,"x_min":13,"x_max":460,"o":"m 147 350 l 364 371 q 432 341 404 371 q 460 260 460 311 q 379 196 460 253 l 146 31 q 346 46 201 46 q 451 -51 451 46 q 424 -106 451 -106 q 419 -100 419 -106 q 436 -47 436 -53 q 290 1 436 1 q 17 -54 144 1 q 13 -35 13 -54 q 25 0 13 -17 l 26 1 q 56 18 46 4 q 246 169 56 40 q 439 307 436 297 q 388 331 421 331 q 254 308 356 331 q 136 285 153 285 q 119 313 119 285 q 136 357 119 342 q 147 350 144 350 z "},"{":{"ha":338,"x_min":8,"x_max":421,"o":"m 186 146 q 169 34 186 125 q 151 -78 151 -57 q 179 -139 151 -124 l 250 -150 l 258 -160 q 239 -165 247 -165 q 83 -74 83 -165 q 103 38 83 -53 q 122 150 122 129 q 8 233 122 233 l 21 251 q 128 283 97 257 q 172 374 160 310 q 192 481 181 439 q 228 561 203 522 q 408 633 274 633 q 421 622 417 633 l 407 618 q 275 536 306 618 q 265 491 272 526 q 256 442 258 456 q 244 399 253 429 q 227 354 235 368 q 206 317 219 340 q 176 283 192 294 q 90 240 138 253 q 186 146 186 206 z "},"|":{"ha":229,"x_min":54,"x_max":165,"o":"m 124 618 q 165 526 165 618 q 140 214 165 435 q 98 -74 115 -7 q 56 -144 81 -140 l 54 -143 q 69 -69 57 -125 q 125 424 125 161 q 106 607 125 554 q 124 618 106 618 z "},"}":{"ha":444,"x_min":33,"x_max":444,"o":"m 44 -157 q 33 -147 39 -157 l 46 -142 q 178 -61 147 -142 q 191 1 182 -44 q 209 76 200 46 q 226 120 218 106 q 247 157 233 135 q 276 192 261 179 q 363 236 315 224 q 268 331 268 269 q 285 441 268 350 q 303 553 303 532 q 274 614 303 600 l 204 625 l 194 635 q 214 640 207 640 q 369 549 369 640 q 351 437 369 528 q 333 325 333 346 q 444 242 333 243 l 433 225 q 324 190 354 215 q 281 103 293 165 q 219 -95 265 -33 q 44 -157 174 -157 z "},"~":{"ha":317,"x_min":50,"x_max":281,"o":"m 132 433 l 232 411 q 275 435 257 411 q 281 431 281 435 q 273 414 281 426 q 248 390 265 401 q 211 378 231 378 l 108 406 q 74 392 94 406 q 51 379 53 379 l 50 382 q 60 398 50 386 q 91 422 71 410 q 132 433 111 433 z "},"":{"ha":0,"x_min":0,"x_max":0,"o":""},"¡":{"ha":310,"x_min":-58,"x_max":293,"o":"m 293 350 q 276 286 293 314 q 232 258 258 258 q 186 276 186 258 q 281 364 186 272 q 293 350 293 364 m 219 188 q 133 -70 219 139 q 15 -279 46 -279 q -32 -274 -6 -279 q -58 -258 -58 -268 q 87 -24 60 -79 q 130 63 114 32 q 164 128 146 94 q 211 203 203 203 q 219 188 219 203 z "},"¢":{"ha":431,"x_min":51,"x_max":513,"o":"m 79 -67 q 51 -19 51 -67 q 143 213 51 29 q 78 317 78 233 q 115 444 78 368 q 213 581 153 521 q 324 642 272 642 q 342 640 336 642 q 381 703 361 669 q 412 755 400 738 q 447 791 424 772 q 485 810 469 810 q 513 792 513 810 q 507 786 513 786 q 494 789 503 789 q 379 622 444 789 l 381 622 q 411 578 411 601 q 367 513 411 513 q 353 519 354 513 q 369 581 369 557 q 358 606 369 606 q 303 575 339 606 q 185 435 235 518 q 135 294 135 351 q 178 238 135 238 q 288 289 224 238 q 378 381 326 325 q 432 436 431 436 q 440 431 440 436 q 438 418 440 426 q 196 206 290 206 l 193 206 q 76 -33 76 7 q 83 -54 76 -49 q 90 -63 90 -60 q 79 -67 90 -67 z "},"£":{"ha":704,"x_min":15,"x_max":692,"o":"m 692 -8 q 658 -89 692 -57 q 574 -121 624 -121 q 289 -28 471 -121 q 165 -65 228 -65 q 59 -32 103 -65 q 15 49 15 1 q 49 78 15 78 q 268 -8 100 78 q 371 208 322 67 l 228 208 q 217 214 217 208 q 236 232 217 232 l 381 232 q 488 457 425 364 q 621 550 551 550 q 669 526 650 550 q 688 467 688 501 q 603 346 688 388 q 592 343 594 343 q 589 347 589 343 l 621 382 q 664 475 664 436 q 636 514 664 514 q 549 456 593 514 q 436 232 504 399 l 611 232 q 617 225 617 232 q 594 208 617 208 l 426 208 q 353 47 371 81 q 306 -15 336 13 q 411 -55 342 -36 q 529 -74 481 -74 q 674 0 674 -74 q 643 49 674 11 q 652 53 643 53 q 676 30 661 53 q 692 -8 692 7 m 240 -21 q 150 22 218 -3 q 64 47 82 47 q 46 33 46 47 q 81 -21 46 6 q 159 -47 117 -47 q 240 -21 201 -47 z "},"¤":{"ha":524,"x_min":61,"x_max":456,"o":"m 453 688 q 456 660 456 688 q 444 625 456 632 l 385 582 q 396 540 396 560 q 364 460 396 496 l 410 417 q 411 408 411 415 q 408 389 411 401 q 397 354 401 354 l 324 425 q 244 403 286 403 q 167 428 201 403 l 64 354 l 63 354 q 61 383 61 358 q 72 417 61 408 l 136 463 q 125 517 125 485 q 153 588 125 549 l 114 625 q 111 638 111 628 q 118 667 111 647 q 128 688 125 688 l 129 688 l 194 624 q 277 647 231 647 q 358 619 324 647 l 453 688 m 346 536 q 324 592 346 569 q 267 615 303 615 q 201 585 231 615 q 172 518 172 556 q 194 458 172 481 q 251 435 217 435 q 315 462 286 435 q 346 526 343 489 l 346 536 z "},"¥":{"ha":696,"x_min":86,"x_max":925,"o":"m 544 208 q 546 202 546 206 q 518 189 546 199 q 346 156 447 161 q 311 9 311 56 q 328 -37 311 -37 q 345 -31 336 -37 q 361 -21 354 -25 q 374 -12 368 -17 q 385 -3 381 -7 q 394 6 389 1 q 400 0 400 6 q 360 -40 400 -17 q 303 -62 321 -62 q 250 14 250 -62 q 272 154 250 74 q 149 178 149 157 q 175 203 149 203 l 288 203 l 315 281 q 185 304 185 282 q 210 329 185 329 l 332 329 q 392 612 392 532 q 322 692 392 692 q 231 647 285 692 q 136 558 176 603 q 91 513 96 513 q 86 521 86 513 q 101 550 86 529 q 135 595 117 571 q 186 650 154 619 q 315 715 250 715 q 409 687 381 715 q 438 588 438 658 q 390 382 438 518 l 374 329 l 381 329 q 578 561 457 440 q 853 724 738 724 q 905 711 885 724 q 925 685 925 699 q 922 672 925 672 l 911 690 q 874 708 897 708 q 660 576 810 708 q 432 331 511 444 l 479 331 q 578 332 557 331 l 578 329 q 403 283 578 308 l 383 253 q 364 203 368 215 l 444 204 q 544 208 524 204 z "},"¦":{"ha":0,"x_min":0,"x_max":0,"o":""},"§":{"ha":467,"x_min":-61,"x_max":665,"o":"m 501 493 l 501 500 l 572 549 q 621 603 621 579 q 586 615 621 615 l 572 615 q 357 565 488 615 q 174 396 174 496 q 293 219 174 347 q 413 29 413 92 q 385 -51 413 -15 q 315 -96 358 -86 q 269 -171 315 -140 q 163 -201 224 -201 l 126 -201 q -61 -118 -6 -201 l -58 -110 q 70 -137 0 -137 q 208 -111 140 -137 q 275 -47 275 -85 q 214 36 275 -22 q 72 197 101 151 q 42 301 42 242 q 143 457 42 392 q 428 654 167 589 q 575 683 558 683 q 607 679 592 683 l 642 643 q 665 601 663 621 q 592 533 665 574 q 501 493 519 493 m 335 -40 q 338 -37 335 -40 q 347 -26 340 -35 q 364 5 354 -17 q 374 43 374 26 q 371 70 374 60 q 365 89 368 81 q 353 108 361 97 q 342 126 346 119 q 326 144 338 132 q 310 161 315 156 q 272 200 306 167 q 147 386 164 310 q 76 278 76 332 q 184 108 76 224 q 310 -62 292 -8 q 322 -51 314 -58 q 335 -40 331 -44 z "},"¨":{"ha":274,"x_min":35,"x_max":242,"o":"m 183 322 q 168 333 175 322 q 161 355 161 343 q 192 389 161 367 q 239 411 222 411 l 242 410 l 242 411 l 242 410 q 228 392 238 403 l 211 350 q 183 322 201 322 m 56 322 q 42 333 49 322 q 35 355 35 343 q 65 389 35 367 q 111 411 96 411 l 115 410 l 115 411 l 115 410 q 101 392 111 403 l 83 350 q 56 322 69 322 z "},"©":{"ha":667,"x_min":26,"x_max":624,"o":"m 624 343 q 489 106 624 214 q 204 -1 354 -1 q 26 156 26 -1 q 92 316 26 232 q 252 455 157 400 q 426 510 347 510 q 565 460 506 510 q 624 343 624 411 m 568 336 q 527 446 568 403 q 419 489 486 489 q 192 379 304 489 q 81 156 81 269 q 225 19 81 19 q 460 117 353 19 q 568 336 568 215 m 493 392 q 474 358 493 361 l 468 363 q 474 388 474 385 q 438 425 474 425 q 278 331 364 425 q 193 147 193 236 q 236 107 193 107 q 432 188 296 107 l 436 183 q 357 118 436 153 q 225 83 278 83 q 136 150 136 83 q 239 337 136 240 q 442 433 342 433 q 493 392 493 433 z "},"ª":{"ha":392,"x_min":8,"x_max":433,"o":"m 374 585 l 388 588 l 390 586 q 356 575 390 575 q 301 605 322 575 q 279 688 279 635 q 299 807 279 740 q 261 749 299 804 q 82 574 147 574 q 31 599 54 574 q 8 656 8 625 q 114 871 8 738 q 296 1004 219 1004 l 310 1004 q 397 985 361 1004 q 433 932 433 965 q 421 917 433 917 q 417 919 417 917 q 349 972 393 972 q 169 842 271 972 q 67 643 67 713 q 81 618 67 618 q 343 899 143 618 q 352 901 346 901 q 381 888 358 901 q 403 867 403 875 q 383 831 403 865 q 338 659 338 733 q 374 585 338 585 z "},"«":{"ha":481,"x_min":89,"x_max":415,"o":"m 415 418 q 313 258 415 403 q 413 118 413 131 q 404 106 413 106 l 403 106 l 394 110 q 268 224 367 147 q 264 231 264 228 q 329 335 264 246 q 407 425 394 425 q 415 418 415 425 m 239 418 q 136 258 239 400 q 238 119 238 132 q 229 106 238 106 l 228 106 l 218 110 q 92 224 193 147 q 89 231 89 226 q 154 335 89 246 q 232 425 219 425 q 239 418 239 425 z "},"¬":{"ha":1061,"x_min":44,"x_max":1019,"o":"m 879 139 q 898 117 879 124 q 917 108 917 110 q 871 97 917 97 q 808 151 808 103 q 894 347 808 226 q 450 368 654 368 q 76 332 126 368 q 56 324 61 324 q 44 338 44 324 q 57 367 44 351 q 88 386 69 383 q 533 418 303 418 q 1019 385 1019 418 q 924 253 969 331 q 879 139 879 175 z "},"­":{"ha":311,"x_min":19,"x_max":299,"o":"m 111 233 l 178 235 l 221 235 q 299 238 257 235 l 299 233 q 211 201 299 215 q 82 183 90 183 q 19 208 19 183 q 46 233 19 233 l 111 233 z "},"®":{"ha":667,"x_min":43,"x_max":608,"o":"m 429 510 q 556 463 504 510 q 608 344 608 415 q 556 194 608 272 q 419 60 504 117 q 465 33 450 33 q 485 51 481 33 l 490 82 q 497 67 497 72 q 451 19 497 19 q 400 47 432 19 q 230 -8 307 -8 q 98 38 153 -8 q 43 156 43 85 q 157 379 43 269 q 115 356 149 376 q 72 336 81 336 q 63 347 63 336 q 204 418 63 389 q 429 510 324 510 m 404 74 q 522 197 476 124 q 568 337 568 271 q 527 446 568 403 q 415 489 486 489 q 256 428 344 489 q 371 435 299 435 q 497 413 443 435 q 550 353 550 390 q 468 255 550 290 q 288 219 386 219 q 404 74 358 124 m 379 394 q 257 261 307 333 l 278 233 q 301 231 292 231 q 451 274 368 231 q 533 360 533 317 q 381 421 533 421 q 217 400 307 421 q 81 156 81 283 q 128 54 81 94 q 242 14 175 14 q 383 61 308 14 q 239 235 311 131 q 179 89 179 135 q 188 71 179 76 l 186 68 q 169 120 169 68 q 221 261 169 172 q 208 283 208 279 q 228 297 208 297 q 239 289 233 297 q 304 367 263 325 q 363 408 346 408 q 379 394 379 408 z "},"¯":{"ha":356,"x_min":28,"x_max":324,"o":"m 324 601 q 315 592 324 594 q 270 589 306 590 q 206 585 235 588 q 152 580 176 582 q 110 576 128 578 q 81 574 93 575 q 49 573 69 574 q 28 582 28 572 q 40 601 28 592 q 130 628 74 628 q 255 620 186 628 q 324 601 324 613 z "},"°":{"ha":296,"x_min":68,"x_max":249,"o":"m 222 450 q 235 437 222 450 q 249 388 249 424 q 222 324 249 351 q 158 297 194 297 q 94 324 121 297 q 68 388 68 351 q 94 450 68 424 q 158 476 121 476 q 222 450 194 476 m 205 340 q 215 350 205 340 q 225 388 225 360 q 205 435 225 415 q 158 454 185 454 q 110 435 131 454 q 90 388 90 415 q 110 340 90 360 q 158 321 131 321 q 205 340 185 321 z "},"±":{"ha":458,"x_min":64,"x_max":424,"o":"m 229 293 l 222 436 q 246 456 222 451 l 251 450 q 256 332 256 415 l 256 293 q 308 290 263 292 q 424 279 424 286 l 424 275 l 413 268 q 256 267 332 268 q 239 107 256 107 q 234 117 235 103 q 232 147 233 131 q 229 263 229 181 l 229 265 l 83 261 q 64 282 67 261 l 68 288 q 188 293 113 293 l 229 293 m 140 31 q 118 56 122 31 l 119 56 q 229 64 138 64 q 335 49 321 64 q 253 38 335 44 q 140 31 172 31 z "},"²":{"ha":511,"x_min":26,"x_max":611,"o":"m 207 368 l 217 350 q 208 344 217 344 q 181 369 200 344 q 161 407 161 393 q 283 497 161 453 q 500 542 404 542 q 611 458 611 542 q 483 272 611 397 q 154 40 354 146 q 325 57 239 57 q 492 -14 492 57 q 475 -56 492 -56 q 474 -49 472 -56 q 473 -36 475 -42 q 449 -24 471 -31 q 361 -17 428 -17 q 211 -25 294 -17 q 51 -42 79 -40 q 26 8 36 -42 q 540 460 413 229 q 550 486 550 475 q 514 507 550 507 q 331 457 454 507 q 207 368 207 407 z "},"³":{"ha":572,"x_min":21,"x_max":593,"o":"m 222 428 l 225 414 q 219 406 225 406 q 205 431 214 406 q 196 467 196 456 q 248 524 196 501 q 385 547 300 547 q 531 520 469 547 q 593 448 593 493 q 554 370 593 403 q 419 289 515 338 q 511 157 511 226 q 405 -5 511 68 q 186 -78 299 -78 q 65 -31 110 -78 q 21 91 21 15 q 50 167 21 167 q 57 157 57 167 q 48 126 57 154 q 39 89 39 99 q 161 7 39 7 q 367 69 267 7 q 467 192 467 131 q 324 254 467 254 l 231 243 q 207 268 217 243 l 189 306 q 212 308 192 306 q 247 311 232 310 q 419 369 294 315 q 544 459 544 424 q 403 494 544 494 q 272 476 321 494 q 222 428 222 458 z "},"´":{"ha":232,"x_min":40,"x_max":225,"o":"m 211 365 q 225 350 225 365 q 217 326 225 335 q 131 272 208 318 q 47 225 53 225 q 40 233 40 225 q 122 303 40 240 q 211 365 204 365 z "},"µ":{"ha":432,"x_min":-93,"x_max":446,"o":"m 131 361 l 118 386 q 128 390 118 390 q 174 376 139 390 q 208 353 208 363 q 133 199 194 325 q 71 28 71 72 q 89 -15 71 -15 q 153 35 111 -15 q 235 151 194 85 l 351 340 q 396 374 371 374 q 446 354 446 374 q 439 347 446 360 q 369 176 400 276 q 338 46 338 76 q 368 -39 338 -39 q 408 -12 378 -39 q 411 -24 411 -12 q 370 -60 411 -60 q 306 -23 329 -60 q 283 69 283 14 q 306 215 283 124 q 160 -7 197 39 q 82 -53 124 -53 q 38 -33 60 -53 q -47 -322 -47 -219 q -22 -356 -47 -356 q 1 -348 -15 -356 q 21 -340 18 -340 q 24 -343 24 -340 q 4 -362 24 -353 q -33 -371 -15 -371 q -72 -346 -51 -371 q -93 -294 -93 -321 q -51 -86 -93 -207 q 38 148 -8 35 q 108 309 85 261 q 131 361 131 357 z "},"¶":{"ha":574,"x_min":-56,"x_max":654,"o":"m 511 582 q 393 481 453 582 q 239 121 333 379 q 108 -119 192 -14 q -37 -224 25 -224 q -56 -212 -54 -224 q -44 -207 -50 -207 q 92 -110 31 -207 q 251 261 153 -14 q 90 379 90 274 q 192 536 90 469 q 381 599 274 590 q 465 601 418 601 q 532 597 513 601 q 612 640 575 640 q 654 626 649 640 q 565 571 608 619 q 472 407 522 522 q 289 -15 338 68 q 214 -100 240 -99 q 207 -96 207 -100 q 221 -78 211 -87 q 347 179 278 -22 q 522 582 446 492 l 511 582 z "},"·":{"ha":236,"x_min":92,"x_max":175,"o":"m 132 281 q 162 270 149 281 q 175 247 175 260 q 162 224 175 233 q 136 214 149 214 q 92 251 92 214 q 132 281 92 281 z "},"¸":{"ha":235,"x_min":17,"x_max":182,"o":"m 182 -226 q 135 -301 182 -272 q 25 -331 88 -331 q 17 -318 17 -331 q 47 -308 17 -311 q 136 -237 136 -300 q 110 -185 136 -231 q 83 -126 83 -139 q 103 -62 83 -89 q 156 -36 124 -36 q 168 -43 168 -36 q 121 -108 121 -49 q 151 -160 121 -112 q 182 -226 182 -208 z "},"¹":{"ha":250,"x_min":26,"x_max":288,"o":"m 68 453 l 78 404 q 72 399 78 399 q 40 433 53 399 q 26 511 26 467 q 147 879 26 629 q 69 810 115 846 q 68 813 68 811 q 69 818 68 815 l 143 919 q 218 1001 203 1001 q 260 990 233 1001 q 288 969 288 979 q 285 964 288 968 q 143 699 218 874 q 68 453 68 524 z "},"º":{"ha":324,"x_min":3,"x_max":365,"o":"m 300 946 q 365 916 365 936 q 351 896 365 896 q 333 898 347 896 q 317 900 319 900 q 319 856 319 875 q 261 652 319 740 q 115 564 203 564 q 3 683 3 564 q 24 784 3 731 q 78 871 46 838 q 63 936 63 896 q 96 1009 63 976 q 178 1042 129 1042 q 300 946 269 1042 m 161 1003 q 113 976 132 1003 q 93 924 93 950 q 97 882 93 897 q 228 954 193 954 l 232 954 q 161 1003 213 1003 m 146 835 q 169 827 161 826 q 178 828 176 828 q 185 819 185 828 q 167 810 185 810 q 132 818 149 810 q 58 657 58 733 q 115 581 58 581 q 221 670 171 581 q 271 842 271 760 q 258 900 271 878 q 146 835 206 894 z "},"»":{"ha":481,"x_min":89,"x_max":415,"o":"m 89 418 q 97 425 89 425 q 172 337 106 425 q 239 231 239 249 q 236 224 239 226 q 110 110 138 147 l 101 106 l 99 106 q 90 117 90 106 q 192 258 90 129 q 89 418 89 403 m 264 418 q 272 425 264 425 q 348 337 281 425 q 415 231 415 249 q 411 224 415 228 q 285 110 313 147 l 276 106 l 274 106 q 267 118 267 106 q 367 258 267 131 q 264 418 264 403 z "},"¼":{"ha":982,"x_min":21,"x_max":899,"o":"m 56 338 l 63 299 q 58 294 63 294 q 32 322 43 294 q 21 383 21 349 q 118 679 21 474 q 57 622 93 651 q 56 626 56 624 l 114 710 q 174 775 161 775 q 208 767 188 775 q 229 751 229 760 l 229 746 q 115 533 175 674 q 56 338 56 393 m 57 -103 q 71 -129 57 -118 q 46 -146 71 -146 q 21 -104 21 -146 q 35 -35 21 -62 q 142 126 50 -8 q 582 693 538 693 q 644 667 644 693 q 636 647 644 658 l 488 475 q 57 -103 57 -24 m 832 404 q 814 424 832 408 q 838 432 817 432 q 878 419 858 432 q 899 387 899 407 q 864 293 899 367 l 814 188 q 853 168 833 183 q 874 139 874 153 q 863 110 874 125 q 845 96 853 96 q 838 103 838 96 l 853 144 q 814 156 853 156 l 806 156 q 768 47 793 131 q 743 -52 743 -37 q 757 -83 743 -67 q 747 -87 757 -87 q 707 10 707 -87 q 733 151 707 64 q 710 153 728 153 q 609 138 693 153 q 488 108 525 124 q 471 124 479 108 q 463 150 463 139 q 589 289 463 189 l 758 413 l 751 413 q 728 417 728 413 q 763 425 728 425 q 799 399 799 425 q 780 376 799 392 q 746 347 761 360 q 704 314 731 335 q 654 274 678 293 q 591 225 631 256 q 519 169 551 194 q 722 194 635 194 l 750 194 l 799 303 q 832 404 832 381 z "},"½":{"ha":949,"x_min":21,"x_max":897,"o":"m 786 -35 q 785 -33 786 -35 q 768 -26 785 -31 q 708 -21 751 -21 q 450 -40 664 -21 q 429 0 439 -40 q 842 361 738 172 q 849 382 849 375 q 811 399 849 399 q 674 359 774 399 q 574 288 574 319 q 578 279 574 283 q 582 272 582 275 q 575 268 582 268 q 552 288 568 268 q 536 318 536 307 q 634 390 536 354 q 815 426 732 426 q 897 360 897 426 q 794 210 897 311 q 532 25 692 108 q 668 39 608 39 q 803 -18 803 39 q 789 -53 803 -53 q 786 -47 785 -53 q 786 -35 788 -40 m 56 338 l 63 299 q 58 294 63 294 q 32 322 43 294 q 21 383 21 349 q 118 679 21 474 q 57 622 93 651 q 56 626 56 624 l 114 710 q 174 775 161 775 q 208 767 188 775 q 229 751 229 760 l 229 746 q 115 533 175 674 q 56 338 56 393 m 57 -103 q 71 -129 57 -118 q 46 -146 71 -146 q 21 -104 21 -146 q 35 -35 21 -62 q 142 126 50 -8 q 582 693 538 693 q 644 667 644 693 q 636 647 644 658 l 488 475 q 57 -103 57 -24 z "},"¾":{"ha":1118,"x_min":17,"x_max":1067,"o":"m 178 679 q 179 665 179 669 q 175 661 179 661 q 164 682 171 661 q 157 710 157 703 q 198 756 157 738 q 308 774 239 774 q 425 753 376 774 q 474 695 474 732 q 443 633 474 658 q 336 569 413 607 q 408 464 408 518 q 323 334 408 393 q 149 275 238 275 q 52 312 88 275 q 17 410 17 349 q 40 471 17 471 q 44 464 44 471 l 31 408 q 124 343 31 343 q 295 393 217 343 q 374 492 374 443 q 258 540 374 540 l 185 532 q 165 553 172 532 l 151 582 q 324 629 213 582 q 436 706 436 676 q 322 732 436 732 q 217 717 257 732 q 178 679 178 703 m 225 -103 q 239 -129 225 -118 q 214 -146 239 -146 q 189 -104 189 -146 q 203 -35 189 -62 q 310 126 218 -8 q 750 693 706 693 q 813 667 813 693 q 804 647 813 658 l 656 475 q 341 91 457 246 q 225 -103 225 -64 m 1000 404 q 982 424 1000 408 q 1005 432 983 432 q 1047 419 1026 432 q 1067 387 1067 407 q 1032 293 1067 367 l 982 188 q 1022 168 1001 183 q 1042 139 1042 153 q 1031 110 1042 125 q 1013 96 1021 96 q 1006 103 1006 96 l 1021 144 q 982 156 1021 156 l 974 156 q 936 47 961 131 q 911 -52 911 -37 q 925 -83 911 -67 q 915 -87 925 -87 q 875 10 875 -87 q 900 151 875 61 q 878 153 896 153 q 776 138 861 153 q 656 108 692 124 q 639 124 647 108 q 631 150 631 139 q 757 289 631 189 l 926 413 l 919 413 q 896 417 896 413 q 931 425 896 425 q 965 399 965 425 q 929 359 965 388 q 878 319 893 331 q 840 288 863 307 q 796 253 817 269 q 688 169 731 203 q 890 194 803 194 l 918 194 l 965 303 q 1000 404 1000 381 z "},"¿":{"ha":419,"x_min":-17,"x_max":421,"o":"m 421 350 q 403 285 421 313 q 360 258 386 258 q 314 275 314 258 q 408 364 314 267 q 421 350 421 364 m 353 -156 l 347 -132 q 353 -126 347 -126 q 372 -156 358 -126 q 386 -194 386 -185 q 338 -248 386 -228 q 204 -268 290 -268 q 51 -237 118 -268 q -17 -162 -17 -206 q 41 -80 -17 -119 q 168 -12 99 -40 q 295 51 238 15 q 353 110 353 86 q 306 163 353 135 q 260 192 260 190 q 292 201 260 201 q 353 166 324 201 q 383 90 383 131 q 329 6 383 49 q 210 -62 275 -36 q 90 -119 144 -87 q 36 -178 36 -151 q 194 -215 36 -215 q 353 -156 353 -215 z "},"À":{"ha":806,"x_min":24,"x_max":996,"o":"m 346 204 l 394 206 l 440 206 q 592 344 503 256 q 717 486 681 433 l 760 549 q 765 533 765 549 q 667 363 765 471 l 522 210 l 688 226 q 785 422 732 322 q 851 547 838 521 q 877 598 864 572 q 907 646 890 624 q 938 668 924 668 q 974 659 953 668 q 996 640 996 650 q 956 578 978 614 q 910 500 935 542 q 664 -76 664 89 q 675 -125 664 -96 q 683 -158 689 -158 q 638 -124 656 -158 q 621 -37 621 -90 q 678 192 621 17 q 571 178 658 192 q 463 158 483 164 q 107 -39 235 -39 q 24 -3 53 -39 q 31 -1 29 -1 l 71 -8 q 379 153 174 -8 l 379 154 l 304 151 q 247 170 271 151 q 222 217 222 189 l 225 219 q 226 221 225 221 l 231 218 q 346 204 244 204 m 877 799 q 920 767 877 799 q 964 725 964 735 q 953 715 964 715 q 869 763 943 715 q 781 818 793 807 q 769 847 769 829 q 783 864 769 864 q 877 799 790 864 z "},"Á":{"ha":806,"x_min":24,"x_max":1067,"o":"m 346 204 l 394 206 l 440 206 q 592 344 503 256 q 717 486 681 433 l 760 549 q 765 533 765 549 q 667 363 765 471 l 522 210 l 688 226 q 785 422 732 322 q 851 547 838 521 q 877 598 864 572 q 907 646 890 624 q 938 668 924 668 q 974 659 953 668 q 996 640 996 650 q 956 578 978 614 q 910 500 935 542 q 664 -76 664 89 q 675 -125 664 -96 q 683 -158 689 -158 q 638 -124 656 -158 q 621 -37 621 -90 q 678 192 621 17 q 571 178 658 192 q 463 158 483 164 q 107 -39 235 -39 q 24 -3 53 -39 q 31 -1 29 -1 l 71 -8 q 379 153 174 -8 l 379 154 l 304 151 q 247 170 271 151 q 222 217 222 189 l 225 219 q 226 221 225 221 l 231 218 q 346 204 244 204 m 883 722 q 883 725 883 722 q 965 792 883 729 q 1056 854 1046 854 q 1067 838 1067 854 q 1058 814 1067 822 q 972 760 1049 806 q 890 714 896 714 q 883 722 883 714 z "},"Â":{"ha":806,"x_min":24,"x_max":1086,"o":"m 346 204 l 394 206 l 440 206 q 592 344 503 256 q 717 486 681 433 l 760 549 q 765 533 765 549 q 667 363 765 471 l 522 210 l 688 226 q 785 422 732 322 q 851 547 838 521 q 877 598 864 572 q 907 646 890 624 q 938 668 924 668 q 974 659 953 668 q 996 640 996 650 q 956 578 978 614 q 910 500 935 542 q 664 -76 664 89 q 675 -125 664 -96 q 683 -158 689 -158 q 638 -124 656 -158 q 621 -37 621 -90 q 678 192 621 17 q 571 178 658 192 q 463 158 483 164 q 107 -39 235 -39 q 24 -3 53 -39 q 31 -1 29 -1 l 71 -8 q 379 153 174 -8 l 379 154 l 304 151 q 247 170 271 151 q 222 217 222 189 l 225 219 q 226 221 225 221 l 231 218 q 346 204 244 204 m 810 725 q 801 735 801 725 q 867 799 801 746 q 943 854 932 851 l 950 851 q 1081 739 988 808 l 1086 728 l 1082 721 q 1005 758 1063 722 q 929 813 947 793 q 810 725 821 725 z "},"Ã":{"ha":806,"x_min":24,"x_max":1103,"o":"m 346 204 l 394 206 l 440 206 q 592 344 503 256 q 717 486 681 433 l 760 549 q 765 533 765 549 q 667 363 765 471 l 522 210 l 688 226 q 785 422 732 322 q 851 547 838 521 q 877 598 864 572 q 907 646 890 624 q 938 668 924 668 q 974 659 953 668 q 996 640 996 650 q 956 578 978 614 q 910 500 935 542 q 664 -76 664 89 q 675 -125 664 -96 q 683 -158 689 -158 q 638 -124 656 -158 q 621 -37 621 -90 q 678 192 621 17 q 571 178 658 192 q 463 158 483 164 q 107 -39 235 -39 q 24 -3 53 -39 q 31 -1 29 -1 l 71 -8 q 379 153 174 -8 l 379 154 l 304 151 q 247 170 271 151 q 222 217 222 189 l 225 219 q 226 221 225 221 l 231 218 q 346 204 244 204 m 953 832 l 1053 810 q 1097 832 1076 810 q 1103 827 1103 832 q 1095 810 1103 822 q 1070 787 1088 799 q 1037 775 1053 775 q 980 790 1021 775 q 929 804 939 804 q 906 797 919 804 q 882 782 892 789 q 871 775 872 775 l 869 778 q 880 796 869 783 q 910 820 890 808 q 953 832 931 832 z "},"Ä":{"ha":806,"x_min":24,"x_max":1067,"o":"m 346 204 l 394 206 l 440 206 q 592 344 503 256 q 717 486 681 433 l 760 549 q 765 533 765 549 q 667 363 765 471 l 522 210 l 688 226 q 785 422 732 322 q 851 547 838 521 q 877 598 864 572 q 907 646 890 624 q 938 668 924 668 q 974 659 953 668 q 996 640 996 650 q 956 578 978 614 q 910 500 935 542 q 664 -76 664 89 q 675 -125 664 -96 q 683 -158 689 -158 q 638 -124 656 -158 q 621 -37 621 -90 q 678 192 621 17 q 571 178 658 192 q 463 158 483 164 q 107 -39 235 -39 q 24 -3 53 -39 q 31 -1 29 -1 l 71 -8 q 379 153 174 -8 l 379 154 l 304 151 q 247 170 271 151 q 222 217 222 189 l 225 219 q 226 221 225 221 l 231 218 q 346 204 244 204 m 1007 746 q 992 756 1000 746 q 985 778 985 767 q 1016 813 985 790 q 1064 835 1047 835 l 1067 833 l 1067 835 l 1067 833 q 1053 815 1063 826 l 1036 774 q 1007 746 1024 746 m 879 746 q 866 756 874 746 q 858 778 858 767 q 890 813 858 790 q 936 835 921 835 l 940 833 l 940 835 l 940 833 q 926 815 936 826 l 908 774 q 879 746 894 746 z "},"Å":{"ha":806,"x_min":24,"x_max":996,"o":"m 346 204 l 394 206 l 440 206 q 592 344 503 256 q 717 486 681 433 l 760 549 q 765 533 765 549 q 667 363 765 471 l 522 210 l 688 226 q 910 649 799 461 q 883 644 894 644 q 840 686 840 644 q 869 760 840 721 q 933 799 899 799 q 978 749 978 799 q 940 668 978 699 q 996 640 996 660 q 956 578 978 614 q 910 500 935 542 q 664 -76 664 89 q 675 -125 664 -96 q 683 -158 689 -158 q 638 -124 656 -158 q 621 -37 621 -90 q 678 192 621 17 q 571 178 658 192 q 463 158 483 164 q 107 -39 235 -39 q 24 -3 53 -39 q 31 -1 29 -1 l 71 -8 q 379 153 174 -8 l 379 154 l 304 151 q 247 170 271 151 q 222 217 222 189 l 225 219 q 226 221 225 221 l 231 218 q 346 204 244 204 m 898 665 q 908 665 898 665 q 936 690 918 665 q 954 746 954 714 q 931 778 954 778 q 900 765 919 778 l 911 761 q 878 685 878 704 q 898 665 878 665 z "},"Æ":{"ha":1299,"x_min":24,"x_max":1406,"o":"m 663 254 l 699 247 q 806 463 774 404 q 851 547 838 521 q 877 598 864 572 q 907 646 890 624 q 938 668 924 668 q 974 659 953 668 q 996 640 996 650 q 932 538 979 619 q 1246 654 1089 654 q 1317 643 1297 654 q 1320 654 1318 646 q 1324 667 1322 663 q 1347 700 1336 696 q 1357 701 1351 701 q 1406 683 1406 701 q 1374 644 1403 683 q 1318 557 1346 606 q 1290 488 1290 508 l 1294 467 q 1292 464 1294 464 q 1271 514 1271 464 q 1303 618 1271 564 q 1269 621 1286 621 q 983 515 1121 621 q 769 243 846 408 q 1201 275 1074 243 q 1210 268 1210 275 q 1038 216 1210 242 q 750 188 865 190 q 744 138 744 151 q 807 -12 744 46 q 968 -71 869 -71 q 1313 90 1160 -71 q 1337 110 1329 110 q 1344 100 1344 110 q 1333 75 1344 90 q 1134 -59 1244 -12 q 920 -106 1024 -106 q 742 -38 817 -106 q 667 124 667 29 q 678 192 667 156 q 571 178 658 192 q 463 158 483 164 q 107 -39 235 -39 q 24 -3 53 -39 q 31 -1 29 -1 l 71 -8 q 379 153 174 -8 l 379 154 l 304 151 q 247 170 271 151 q 222 217 222 189 l 225 219 q 226 221 225 221 l 231 218 q 346 204 244 204 l 394 206 l 440 206 q 592 344 503 256 q 717 486 681 433 l 760 549 q 765 533 765 549 q 667 363 765 471 l 522 210 q 663 222 567 213 q 657 247 657 240 q 663 254 657 254 z "},"Ç":{"ha":774,"x_min":33,"x_max":874,"o":"m 710 396 l 715 375 q 713 372 715 372 q 696 408 696 372 q 751 583 696 469 q 631 622 708 622 q 388 547 513 622 q 182 356 263 471 q 101 143 101 242 q 164 -13 101 44 q 324 -71 226 -71 q 667 90 514 -71 q 694 110 686 110 q 700 99 700 110 q 688 75 700 89 q 494 -58 613 -10 q 275 -106 376 -106 q 250 -104 258 -106 q 225 -164 225 -121 q 255 -213 225 -165 q 285 -281 285 -261 q 240 -355 285 -325 q 129 -385 194 -385 q 121 -374 121 -385 q 129 -364 121 -369 l 207 -354 q 242 -293 242 -344 q 215 -240 242 -286 q 188 -181 188 -194 q 221 -101 188 -126 q 83 -29 133 -87 q 33 117 33 29 q 83 300 33 206 q 214 469 133 394 q 403 594 294 544 q 610 643 513 643 q 765 608 707 643 q 826 683 797 683 q 874 665 874 683 q 792 558 807 579 q 710 396 710 447 z "},"È":{"ha":681,"x_min":13,"x_max":763,"o":"m 18 254 l 58 246 q 280 531 115 407 q 600 654 444 654 q 674 643 654 654 q 704 700 688 693 q 714 701 708 701 q 763 683 763 701 q 731 644 760 683 q 674 557 703 606 q 646 488 646 508 l 651 467 q 649 464 651 464 q 628 514 628 464 q 660 618 628 564 q 625 621 640 621 q 328 505 481 621 q 122 243 175 389 q 383 247 293 243 q 557 275 467 253 q 567 268 567 275 q 394 216 567 242 q 106 188 222 190 q 101 138 101 161 q 164 -13 101 44 q 324 -71 226 -71 q 667 90 518 -71 q 694 110 686 110 q 700 99 700 110 q 688 75 700 89 q 494 -58 613 -10 q 271 -106 376 -106 q 99 -45 165 -106 q 33 119 33 15 q 40 192 33 150 q 23 216 33 192 q 13 247 13 240 q 18 254 13 254 m 544 886 l 544 896 q 555 914 544 914 q 652 848 565 914 q 739 774 739 782 q 729 765 739 765 q 651 806 701 775 q 591 842 601 836 q 574 854 581 849 q 561 863 567 860 q 553 870 556 867 q 547 875 550 874 q 544 886 544 878 z "},"É":{"ha":681,"x_min":13,"x_max":815,"o":"m 18 254 l 58 246 q 280 531 115 407 q 600 654 444 654 q 674 643 654 654 q 704 700 688 693 q 714 701 708 701 q 763 683 763 701 q 731 644 760 683 q 674 557 703 606 q 646 488 646 508 l 651 467 q 649 464 651 464 q 628 514 628 464 q 660 618 628 564 q 625 621 640 621 q 328 505 481 621 q 122 243 175 389 q 383 247 293 243 q 557 275 467 253 q 567 268 567 275 q 394 216 567 242 q 106 188 222 190 q 101 138 101 161 q 164 -13 101 44 q 324 -71 226 -71 q 667 90 518 -71 q 694 110 686 110 q 700 99 700 110 q 688 75 700 89 q 494 -58 613 -10 q 271 -106 376 -106 q 99 -45 165 -106 q 33 119 33 15 q 40 192 33 150 q 23 216 33 192 q 13 247 13 240 q 18 254 13 254 m 632 760 q 632 764 632 760 q 713 831 632 768 q 805 893 794 893 q 815 877 815 893 q 808 853 815 861 q 722 799 800 846 q 638 753 644 753 q 632 760 632 753 z "},"Ê":{"ha":681,"x_min":13,"x_max":821,"o":"m 18 254 l 58 246 q 280 531 115 407 q 600 654 444 654 q 674 643 654 654 q 704 700 688 693 q 714 701 708 701 q 763 683 763 701 q 731 644 760 683 q 674 557 703 606 q 646 488 646 508 l 651 467 q 649 464 651 464 q 628 514 628 464 q 660 618 628 564 q 625 621 640 621 q 328 505 481 621 q 122 243 175 389 q 383 247 293 243 q 557 275 467 253 q 567 268 567 275 q 394 216 567 242 q 106 188 222 190 q 101 138 101 161 q 164 -13 101 44 q 324 -71 226 -71 q 667 90 518 -71 q 694 110 686 110 q 700 99 700 110 q 688 75 700 89 q 494 -58 613 -10 q 271 -106 376 -106 q 99 -45 165 -106 q 33 119 33 15 q 40 192 33 150 q 23 216 33 192 q 13 247 13 240 q 18 254 13 254 m 663 844 q 544 756 554 756 q 535 767 535 756 q 601 830 535 778 q 678 885 667 882 l 683 882 q 814 769 721 840 l 821 760 l 815 751 q 738 789 796 753 q 663 844 681 825 z "},"Ë":{"ha":681,"x_min":13,"x_max":772,"o":"m 18 254 l 58 246 q 280 531 115 407 q 600 654 444 654 q 674 643 654 654 q 704 700 688 693 q 714 701 708 701 q 763 683 763 701 q 731 644 760 683 q 674 557 703 606 q 646 488 646 508 l 651 467 q 649 464 651 464 q 628 514 628 464 q 660 618 628 564 q 625 621 640 621 q 328 505 481 621 q 122 243 175 389 q 383 247 293 243 q 557 275 467 253 q 567 268 567 275 q 394 216 567 242 q 106 188 222 190 q 101 138 101 161 q 164 -13 101 44 q 324 -71 226 -71 q 667 90 518 -71 q 694 110 686 110 q 700 99 700 110 q 688 75 700 89 q 494 -58 613 -10 q 271 -106 376 -106 q 99 -45 165 -106 q 33 119 33 15 q 40 192 33 150 q 23 216 33 192 q 13 247 13 240 q 18 254 13 254 m 714 753 q 699 763 706 753 q 692 786 692 774 q 722 820 692 799 q 769 842 753 842 l 772 840 l 772 842 l 772 840 q 758 824 767 832 l 742 782 q 714 753 731 753 m 586 753 q 572 763 579 753 q 565 786 565 774 q 596 820 565 799 q 642 842 626 842 l 646 840 l 646 842 l 646 840 q 632 824 640 832 l 614 782 q 586 753 600 753 z "},"Ì":{"ha":488,"x_min":-21,"x_max":675,"o":"m -14 -15 l 68 -22 l 147 -22 l 147 -11 q 486 592 147 132 q 172 492 222 569 q 167 472 171 488 q 147 443 161 443 q 143 449 143 443 q 511 625 143 610 q 557 668 529 668 q 599 660 575 668 q 622 642 622 651 q 613 626 622 638 q 638 622 638 625 q 628 607 638 617 q 613 597 619 597 l 588 597 q 297 224 407 396 q 183 -21 188 51 q 406 1 329 -18 q 419 3 411 3 q 426 -3 426 3 q 392 -18 426 -12 l 189 -57 q 229 -72 200 -72 l 282 -62 q 289 -65 289 -62 q 256 -85 285 -75 q 211 -94 226 -94 q 157 -61 174 -94 q 24 -79 54 -79 q -14 -67 -7 -79 q -21 -22 -21 -56 q -14 -15 -21 -15 m 481 850 l 481 858 q 491 876 481 876 q 588 810 501 876 q 675 736 675 744 q 665 728 675 728 q 588 767 639 736 q 527 805 538 799 q 510 817 517 811 q 497 826 503 822 q 489 833 492 829 q 483 838 486 836 q 481 850 481 840 z "},"Í":{"ha":488,"x_min":-21,"x_max":767,"o":"m -14 -15 l 68 -22 l 147 -22 l 147 -11 q 486 592 147 132 q 172 492 222 569 q 167 472 171 488 q 147 443 161 443 q 143 449 143 443 q 511 625 143 610 q 557 668 529 668 q 599 660 575 668 q 622 642 622 651 q 613 626 622 638 q 638 622 638 625 q 628 607 638 617 q 613 597 619 597 l 588 597 q 297 224 407 396 q 183 -21 188 51 q 406 1 329 -18 q 419 3 411 3 q 426 -3 426 3 q 392 -18 426 -12 l 189 -57 q 229 -72 200 -72 l 282 -62 q 289 -65 289 -62 q 256 -85 285 -75 q 211 -94 226 -94 q 157 -61 174 -94 q 24 -79 54 -79 q -14 -67 -7 -79 q -21 -22 -21 -56 q -14 -15 -21 -15 m 753 878 q 767 862 767 878 q 758 838 767 846 q 672 784 749 829 q 589 739 596 739 q 582 746 582 739 q 664 815 582 753 q 753 878 746 878 z "},"Î":{"ha":488,"x_min":-21,"x_max":758,"o":"m -14 -15 l 68 -22 l 147 -22 l 147 -11 q 486 592 147 132 q 172 492 222 569 q 167 472 171 488 q 147 443 161 443 q 143 449 143 443 q 511 625 143 610 q 557 668 529 668 q 599 660 575 668 q 622 642 622 651 q 613 626 622 638 q 638 622 638 625 q 628 607 638 617 q 613 597 619 597 l 588 597 q 297 224 407 396 q 183 -21 188 51 q 406 1 329 -18 q 419 3 411 3 q 426 -3 426 3 q 392 -18 426 -12 l 189 -57 q 229 -72 200 -72 l 282 -62 q 289 -65 289 -62 q 256 -85 285 -75 q 211 -94 226 -94 q 157 -61 174 -94 q 24 -79 54 -79 q -14 -67 -7 -79 q -21 -22 -21 -56 q -14 -15 -21 -15 m 600 807 q 483 719 494 719 q 472 730 472 719 q 538 793 472 740 q 615 849 604 846 l 621 846 q 751 732 664 799 l 758 722 l 753 714 q 676 753 733 717 q 600 807 618 789 z "},"Ï":{"ha":488,"x_min":-21,"x_max":717,"o":"m -14 -15 l 68 -22 l 147 -22 l 147 -11 q 486 592 147 132 q 172 492 222 569 q 167 472 171 488 q 147 443 161 443 q 143 449 143 443 q 511 625 143 610 q 557 668 529 668 q 599 660 575 668 q 622 642 622 651 q 613 626 622 638 q 638 622 638 625 q 628 607 638 617 q 613 597 619 597 l 588 597 q 297 224 407 396 q 183 -21 188 51 q 406 1 329 -18 q 419 3 411 3 q 426 -3 426 3 q 392 -18 426 -12 l 189 -57 q 229 -72 200 -72 l 282 -62 q 289 -65 289 -62 q 256 -85 285 -75 q 211 -94 226 -94 q 157 -61 174 -94 q 24 -79 54 -79 q -14 -67 -7 -79 q -21 -22 -21 -56 q -14 -15 -21 -15 m 657 744 q 642 755 649 744 q 635 777 635 765 q 666 811 635 789 q 714 833 697 833 l 717 832 l 717 833 l 717 832 q 701 814 711 824 l 685 772 q 657 744 675 744 m 529 744 q 515 755 522 744 q 508 777 508 765 q 540 811 508 789 q 586 833 571 833 l 590 832 l 590 833 l 590 832 q 575 814 585 824 l 557 772 q 529 744 544 744 z "},"Ð":{"ha":964,"x_min":29,"x_max":953,"o":"m 953 374 q 908 214 953 294 q 784 68 863 133 q 587 -38 706 3 q 334 -79 468 -79 q 200 -57 200 -79 q 221 -44 200 -44 l 243 -44 q 268 -46 253 -46 q 529 -3 406 -46 q 733 106 653 40 q 859 248 813 172 q 906 392 906 324 q 821 562 906 499 q 603 625 736 625 l 593 625 q 58 494 403 621 q 29 538 29 494 q 42 558 29 551 q 122 583 54 564 q 578 658 371 658 q 847 581 742 658 q 953 374 953 503 m 172 -142 l 169 -143 q 133 -117 147 -143 q 119 -33 119 -92 q 150 124 119 26 l 146 124 q 128 121 140 121 q 65 146 65 121 q 92 171 65 171 l 167 171 q 314 471 213 293 q 328 501 314 476 q 353 542 343 525 q 387 576 372 576 q 420 569 401 576 q 440 554 439 561 q 344 396 432 554 q 229 172 257 238 l 268 172 q 344 175 303 172 l 344 171 q 257 139 344 153 l 210 132 q 153 -72 153 4 q 163 -112 153 -87 q 172 -142 172 -137 z "},"Ñ":{"ha":657,"x_min":40,"x_max":708,"o":"m 88 -65 q 104 -118 88 -93 q 97 -124 104 -124 q 56 -84 72 -124 q 40 3 40 -44 q 258 554 40 189 q 342 668 315 668 q 380 660 358 668 q 401 640 401 651 q 324 510 365 579 q 263 407 283 442 q 235 358 243 372 q 101 64 139 185 q 526 510 192 211 l 635 608 q 692 629 656 626 q 708 619 708 629 l 707 614 q 503 19 503 210 q 539 -82 503 -82 q 635 64 575 -82 q 650 82 644 82 q 656 75 656 82 q 653 60 656 68 q 532 -100 608 -100 q 470 -62 494 -100 q 446 42 446 -25 q 481 245 446 110 q 565 489 517 381 l 281 232 q 88 -65 88 36 m 551 774 l 651 751 q 696 774 674 751 q 701 769 701 774 q 694 753 701 765 q 669 730 686 742 q 635 718 651 718 q 578 732 619 718 q 528 746 538 746 q 504 739 518 746 q 481 725 490 732 q 469 718 471 718 l 468 721 q 478 738 468 725 q 509 762 489 750 q 551 774 529 774 z "},"Ò":{"ha":821,"x_min":31,"x_max":871,"o":"m 871 486 q 842 392 871 451 q 847 346 847 375 q 697 78 847 211 q 481 -63 583 -22 q 243 -104 378 -104 q 91 -43 151 -104 q 31 111 31 18 q 128 356 31 235 q 372 553 225 478 q 657 628 518 628 q 813 590 754 628 q 871 486 871 551 m 838 475 q 788 570 838 535 q 657 606 739 606 q 404 538 532 606 q 192 357 276 471 q 107 124 107 243 q 160 -18 107 32 q 308 -68 214 -68 q 507 -20 401 -68 q 694 119 613 28 q 788 315 776 210 q 599 174 717 236 q 591 171 593 171 q 589 172 589 171 q 628 203 589 171 q 786 357 733 292 q 734 452 776 411 q 629 511 692 493 q 544 520 606 517 q 476 526 482 524 l 481 529 q 594 544 529 544 q 728 512 658 544 q 828 425 797 479 q 838 475 838 450 m 586 789 l 586 799 q 597 817 586 817 q 694 751 607 817 q 781 677 781 686 q 771 668 781 668 q 694 708 744 676 q 633 745 643 739 q 615 757 622 751 q 603 766 608 763 q 594 773 597 769 q 589 778 592 776 q 586 789 586 781 z "},"Ó":{"ha":821,"x_min":31,"x_max":886,"o":"m 871 486 q 842 392 871 451 q 847 346 847 375 q 697 78 847 211 q 481 -63 583 -22 q 243 -104 378 -104 q 91 -43 151 -104 q 31 111 31 18 q 128 356 31 235 q 372 553 225 478 q 657 628 518 628 q 813 590 754 628 q 871 486 871 551 m 838 475 q 788 570 838 535 q 657 606 739 606 q 404 538 532 606 q 192 357 276 471 q 107 124 107 243 q 160 -18 107 32 q 308 -68 214 -68 q 507 -20 401 -68 q 694 119 613 28 q 788 315 776 210 q 599 174 717 236 q 591 171 593 171 q 589 172 589 171 q 628 203 589 171 q 786 357 733 292 q 734 452 776 411 q 629 511 692 493 q 544 520 606 517 q 476 526 482 524 l 481 529 q 594 544 529 544 q 728 512 658 544 q 828 425 797 479 q 838 475 838 450 m 872 825 q 886 808 886 825 q 874 782 886 792 q 792 731 869 776 q 708 685 715 685 q 701 692 701 685 q 783 763 701 700 q 872 825 865 825 z "},"Ô":{"ha":821,"x_min":31,"x_max":871,"o":"m 871 486 q 842 392 871 451 q 847 346 847 375 q 697 78 847 211 q 481 -63 583 -22 q 243 -104 378 -104 q 91 -43 151 -104 q 31 111 31 18 q 128 356 31 235 q 372 553 225 478 q 657 628 518 628 q 813 590 754 628 q 871 486 871 551 m 838 475 q 788 570 838 535 q 657 606 739 606 q 404 538 532 606 q 192 357 276 471 q 107 124 107 243 q 160 -18 107 32 q 308 -68 214 -68 q 507 -20 401 -68 q 694 119 613 28 q 788 315 776 210 q 599 174 717 236 q 591 171 593 171 q 589 172 589 171 q 628 203 589 171 q 786 357 733 292 q 734 452 776 411 q 629 511 692 493 q 544 520 606 517 q 476 526 482 524 l 481 529 q 594 544 529 544 q 728 512 658 544 q 828 425 797 479 q 838 475 838 450 m 578 686 q 569 697 569 686 q 635 760 569 708 q 713 815 701 813 l 718 813 q 849 700 761 765 l 854 689 l 850 682 q 773 719 831 683 q 697 774 715 754 q 578 686 589 686 z "},"Õ":{"ha":821,"x_min":31,"x_max":871,"o":"m 871 486 q 842 392 871 451 q 847 346 847 375 q 697 78 847 211 q 481 -63 583 -22 q 243 -104 378 -104 q 91 -43 151 -104 q 31 111 31 18 q 128 356 31 235 q 372 553 225 478 q 657 628 518 628 q 813 590 754 628 q 871 486 871 551 m 838 475 q 788 570 838 535 q 657 606 739 606 q 404 538 532 606 q 192 357 276 471 q 107 124 107 243 q 160 -18 107 32 q 308 -68 214 -68 q 507 -20 401 -68 q 694 119 613 28 q 788 315 776 210 q 599 174 717 236 q 591 171 593 171 q 589 172 589 171 q 628 203 589 171 q 786 357 733 292 q 734 452 776 411 q 629 511 692 493 q 544 520 606 517 q 476 526 482 524 l 481 529 q 594 544 529 544 q 728 512 658 544 q 828 425 797 479 q 838 475 838 450 m 710 763 l 810 740 q 854 763 836 740 q 861 758 861 763 q 853 741 861 753 q 828 717 846 729 q 794 706 810 706 q 737 719 778 706 q 686 733 696 733 q 663 726 676 733 q 640 713 649 719 q 629 706 631 706 l 628 708 q 638 725 628 713 q 667 750 647 738 q 710 763 688 763 z "},"Ö":{"ha":821,"x_min":31,"x_max":871,"o":"m 871 486 q 842 392 871 451 q 847 346 847 375 q 697 78 847 211 q 481 -63 583 -22 q 243 -104 378 -104 q 91 -43 151 -104 q 31 111 31 18 q 128 356 31 235 q 372 553 225 478 q 657 628 518 628 q 813 590 754 628 q 871 486 871 551 m 838 478 q 788 570 838 535 q 657 606 739 606 q 404 538 532 606 q 192 357 276 471 q 107 124 107 243 q 160 -18 107 32 q 308 -68 214 -68 q 507 -20 401 -68 q 694 119 613 28 q 788 315 776 210 q 599 174 717 236 q 591 171 593 171 q 589 172 589 171 q 628 203 589 171 q 786 357 733 292 q 734 452 776 411 q 629 511 692 493 q 544 520 606 517 q 476 526 482 524 l 481 529 q 594 544 529 544 q 728 512 658 544 q 828 425 797 479 q 838 478 838 450 m 783 686 q 768 697 775 686 q 761 719 761 707 q 792 753 761 732 q 840 775 824 775 l 843 774 l 843 775 l 843 774 q 839 769 842 772 q 828 756 833 761 l 811 714 q 783 686 800 686 m 656 686 q 642 697 649 686 q 635 719 635 707 q 666 753 635 732 q 713 775 697 775 l 717 774 l 717 775 l 717 774 q 714 769 715 772 q 701 756 707 761 l 683 714 q 656 686 671 686 z "},"×":{"ha":394,"x_min":29,"x_max":404,"o":"m 174 346 l 192 347 q 210 331 206 347 q 229 218 215 315 q 315 290 246 235 q 386 346 383 346 q 404 329 404 346 q 398 319 404 325 q 233 193 392 314 q 315 67 254 67 q 354 76 322 67 q 358 74 358 76 q 324 51 358 64 q 264 39 289 39 q 222 67 239 39 q 188 165 204 94 q 115 94 176 151 q 42 36 54 36 q 29 43 29 36 q 101 118 36 57 q 182 190 165 179 l 168 268 q 147 315 160 300 q 127 333 135 331 q 119 338 119 335 q 174 346 119 346 z "},"Ø":{"ha":821,"x_min":31,"x_max":871,"o":"m 182 -96 q 171 -134 171 -118 q 186 -162 171 -150 q 160 -179 186 -179 q 135 -139 135 -179 q 147 -83 135 -121 q 31 104 31 -28 q 129 358 31 236 q 374 553 228 479 q 657 628 519 628 l 660 628 q 699 661 692 661 q 760 635 760 661 q 751 615 760 625 q 871 486 871 583 q 842 392 871 451 q 847 346 847 375 q 697 78 847 211 q 481 -63 583 -22 q 243 -104 378 -104 q 182 -96 208 -104 m 828 425 q 838 483 838 450 q 810 549 838 515 q 736 597 783 583 l 679 531 q 828 425 785 501 m 599 174 q 591 171 593 171 q 589 172 589 171 q 628 203 589 171 q 786 357 733 292 q 654 501 772 457 q 207 -50 396 210 q 322 -68 243 -68 q 507 -20 401 -68 q 694 119 613 28 q 788 315 776 210 q 599 174 717 236 m 571 519 l 553 518 q 476 526 492 518 l 481 529 q 574 544 529 544 l 590 544 q 642 606 636 600 q 397 535 521 603 q 190 355 272 467 q 107 133 107 243 q 174 -31 107 22 q 334 206 210 33 q 571 519 458 378 z "},"Ù":{"ha":492,"x_min":7,"x_max":813,"o":"m 813 613 q 758 504 813 569 q 694 432 726 467 q 483 200 610 342 q 437 65 461 164 q 413 -82 413 -35 q 471 -312 413 -250 q 472 -315 472 -312 q 468 -318 471 -317 q 400 -217 433 -318 q 367 -40 367 -117 q 389 106 367 36 q 182 -54 258 -54 q 112 -13 144 -54 q 79 65 79 28 q 168 310 79 158 l 311 542 q 158 464 242 519 q 8 361 11 361 l 7 363 l 10 368 q 159 495 51 421 q 307 569 267 569 q 348 552 329 569 q 367 514 367 535 q 279 354 367 493 q 160 150 192 215 q 129 21 129 85 q 149 -3 129 -3 q 303 103 185 -3 q 461 285 422 208 q 627 545 542 450 q 782 640 713 640 q 813 613 813 640 m 789 613 q 781 619 789 619 q 649 510 740 619 q 500 282 558 401 l 500 279 q 501 275 500 278 q 696 482 603 374 q 789 613 789 590 m 382 753 l 382 761 q 396 778 382 778 q 490 713 403 778 q 576 638 576 647 q 568 629 576 629 q 506 661 546 636 q 453 694 465 686 q 429 708 440 701 q 411 719 418 714 q 399 728 404 725 q 390 735 393 732 q 386 740 388 739 q 382 753 382 743 z "},"Ú":{"ha":492,"x_min":7,"x_max":813,"o":"m 813 613 q 758 504 813 569 q 694 432 726 467 q 483 200 610 342 q 437 65 461 164 q 413 -82 413 -35 q 471 -312 413 -250 q 472 -315 472 -312 q 468 -318 471 -317 q 400 -217 433 -318 q 367 -40 367 -117 q 389 106 367 36 q 182 -54 258 -54 q 112 -13 144 -54 q 79 65 79 28 q 168 310 79 158 l 311 542 q 158 464 242 519 q 8 361 11 361 l 7 363 l 10 368 q 159 495 51 421 q 307 569 267 569 q 348 552 329 569 q 367 514 367 535 q 279 354 367 493 q 160 150 192 215 q 129 21 129 85 q 149 -3 129 -3 q 303 103 185 -3 q 461 285 422 208 q 627 545 542 450 q 782 640 713 640 q 813 613 813 640 m 789 613 q 781 619 789 619 q 649 510 740 619 q 500 282 558 401 l 500 279 q 501 275 500 278 q 696 482 603 374 q 789 613 789 590 m 461 628 q 461 632 461 628 q 542 699 461 636 q 634 761 624 761 q 644 745 644 761 q 637 721 644 729 q 551 667 629 713 q 467 621 474 621 q 461 628 461 621 z "},"Û":{"ha":492,"x_min":7,"x_max":813,"o":"m 813 613 q 758 504 813 569 q 694 432 726 467 q 483 200 610 342 q 437 65 461 164 q 413 -82 413 -35 q 471 -312 413 -250 q 472 -315 472 -312 q 468 -318 471 -317 q 400 -217 433 -318 q 367 -40 367 -117 q 389 106 367 36 q 182 -54 258 -54 q 112 -13 144 -54 q 79 65 79 28 q 168 310 79 158 l 311 542 q 158 464 242 519 q 8 361 11 361 l 7 363 l 10 368 q 159 495 51 421 q 307 569 267 569 q 348 552 329 569 q 367 514 367 535 q 279 354 367 493 q 160 150 192 215 q 129 21 129 85 q 149 -3 129 -3 q 303 103 185 -3 q 461 285 422 208 q 627 545 542 450 q 782 640 713 640 q 813 613 813 640 m 789 613 q 781 619 789 619 q 649 510 740 619 q 500 282 558 401 l 500 279 q 501 275 500 278 q 696 482 603 374 q 789 613 789 590 m 497 715 q 379 628 389 628 q 369 639 369 628 q 435 702 369 650 q 513 757 501 754 l 518 754 q 650 642 565 706 l 656 631 l 651 624 q 573 660 631 625 q 497 715 515 696 z "},"Ü":{"ha":492,"x_min":7,"x_max":813,"o":"m 813 613 q 758 504 813 569 q 694 432 726 467 q 483 200 610 342 q 437 65 461 164 q 413 -82 413 -35 q 471 -312 413 -250 q 472 -315 472 -312 q 468 -318 471 -317 q 400 -217 433 -318 q 367 -40 367 -117 q 389 106 367 36 q 182 -54 258 -54 q 112 -13 144 -54 q 79 65 79 28 q 168 310 79 158 l 311 542 q 158 464 242 519 q 8 361 11 361 l 7 363 l 10 368 q 159 495 51 421 q 307 569 267 569 q 348 552 329 569 q 367 514 367 535 q 279 354 367 493 q 160 150 192 215 q 129 21 129 85 q 149 -3 129 -3 q 303 103 185 -3 q 461 285 422 208 q 627 545 542 450 q 782 640 713 640 q 813 613 813 640 m 789 613 q 781 619 789 619 q 649 510 740 619 q 500 282 558 401 l 500 279 q 501 275 500 278 q 696 482 603 374 q 789 613 789 590 m 599 649 q 584 659 592 649 q 576 682 576 669 q 608 717 576 694 q 656 739 639 739 l 658 736 l 658 739 l 658 736 q 643 719 653 728 l 628 678 q 599 649 615 649 m 471 649 q 457 659 464 649 q 450 682 450 669 q 481 717 450 694 q 528 739 513 739 l 532 736 l 532 739 l 532 736 q 517 719 526 728 l 500 678 q 471 649 486 649 z "},"Ý":{"ha":750,"x_min":22,"x_max":804,"o":"m 753 449 q 789 456 774 456 q 804 451 804 456 q 798 440 804 446 q 783 431 792 435 q 744 410 756 415 q 536 46 701 278 q 303 -262 385 -176 q 171 -349 221 -349 q 106 -287 106 -349 q 164 -150 106 -250 q 300 35 222 -50 q 453 179 338 76 q 661 372 568 282 q 690 463 672 382 q 708 581 708 543 q 689 618 708 618 q 289 139 633 618 l 221 44 q 172 7 203 7 q 142 35 142 7 l 142 39 l 239 268 q 310 472 286 379 q 335 601 333 565 q 281 686 335 686 q 191 638 254 686 q 76 542 128 590 q 25 485 25 493 l 26 485 q 22 488 22 485 q 26 499 22 492 q 154 640 83 582 q 275 697 225 697 q 376 569 376 697 q 249 133 376 425 l 458 426 q 674 660 631 660 q 718 642 718 660 q 710 633 717 639 q 764 519 764 579 q 753 449 764 486 m 165 -267 q 150 -309 150 -300 q 157 -318 150 -318 q 163 -318 157 -318 q 196 -294 168 -318 q 430 -27 300 -207 q 639 318 560 153 q 165 -267 278 -8 m 668 807 q 682 791 682 807 q 674 767 682 775 q 588 713 665 758 q 504 667 511 667 q 497 674 497 667 q 579 744 497 682 q 668 807 661 807 z "},"Þ":{"ha":229,"x_min":-151,"x_max":383,"o":"m 146 667 l 97 657 q 88 665 88 657 q 139 686 88 686 q 219 668 190 686 q 249 618 249 650 q 194 478 249 586 l 186 481 q 288 513 233 513 q 383 413 383 513 q 281 184 383 313 q 88 56 179 56 q 24 75 54 56 q -106 -322 -106 -272 q -81 -356 -106 -356 q -57 -348 -74 -356 q -37 -340 -40 -340 q -35 -343 -35 -340 q -54 -362 -35 -353 q -92 -371 -74 -371 q -131 -346 -110 -371 q -151 -294 -151 -321 q -47 50 -151 -221 l -21 121 q -26 127 -26 121 q -24 136 -26 133 l -18 132 q 139 517 74 367 q 171 638 171 610 q 146 667 171 667 m 289 485 q 156 379 229 485 q 36 107 65 188 q 61 104 53 104 q 235 217 153 104 q 318 442 318 331 q 289 485 318 485 z "},"ß":{"ha":608,"x_min":-147,"x_max":608,"o":"m 608 476 q 540 337 608 394 q 383 276 471 279 q 510 224 464 263 q 556 133 556 185 q 428 -23 556 40 q 104 -86 300 -86 q 47 -72 47 -78 q -126 -212 -47 -212 q -147 -203 -142 -212 q -135 -193 -146 -193 q 124 181 -19 -193 q 147 244 142 231 q 169 304 151 258 q 194 367 186 350 q 219 422 201 383 q 249 476 236 460 q 281 519 261 492 q 317 560 300 547 q 357 586 335 572 q 460 613 396 613 q 566 575 524 613 q 608 476 608 538 m 374 240 l 264 226 q 254 238 254 226 q 264 266 254 250 q 285 286 274 282 q 321 282 296 282 q 488 335 421 282 q 556 471 556 388 q 526 554 556 521 q 450 588 497 588 q 296 447 358 588 q 275 400 293 444 q 65 -57 211 235 q 131 -62 121 -62 q 377 6 268 -62 q 486 156 486 75 q 374 240 486 240 z "},"à":{"ha":519,"x_min":8,"x_max":442,"o":"m 374 -40 l 388 -37 l 390 -39 q 356 -51 390 -51 q 301 -21 322 -51 q 279 62 279 10 q 299 181 279 114 q 261 124 299 176 q 82 -53 147 -53 q 31 -27 54 -53 q 8 40 8 -1 q 57 164 8 81 q 175 313 106 247 q 296 379 244 378 l 310 379 q 397 359 361 379 q 433 306 433 339 q 421 290 433 290 q 417 294 417 290 q 349 346 393 346 q 169 216 271 346 q 67 18 67 86 q 81 -8 67 -8 q 343 274 143 -8 q 352 276 346 276 q 381 263 358 276 q 403 240 403 250 q 383 204 403 240 q 338 33 338 107 q 374 -40 338 -40 m 257 594 q 263 594 257 594 q 355 530 268 594 q 442 456 442 465 q 432 446 442 446 q 357 485 411 451 q 284 529 303 518 q 256 551 265 540 q 246 564 246 561 l 246 576 q 257 594 246 594 z "},"á":{"ha":519,"x_min":8,"x_max":485,"o":"m 374 -40 l 388 -37 l 390 -39 q 356 -51 390 -51 q 301 -21 322 -51 q 279 62 279 10 q 299 181 279 114 q 261 124 299 176 q 82 -53 147 -53 q 31 -27 54 -53 q 8 40 8 -1 q 57 164 8 81 q 175 313 106 247 q 296 379 244 378 l 310 379 q 397 359 361 379 q 433 306 433 339 q 421 290 433 290 q 417 294 417 290 q 349 346 393 346 q 169 216 271 346 q 67 18 67 86 q 81 -8 67 -8 q 343 274 143 -8 q 352 276 346 276 q 381 263 358 276 q 403 240 403 250 q 383 204 403 240 q 338 33 338 107 q 374 -40 338 -40 m 474 586 q 480 586 474 586 q 485 571 485 586 q 475 547 485 556 q 390 492 465 538 q 308 447 315 447 q 300 455 300 447 q 382 524 300 463 q 474 586 464 586 z "},"â":{"ha":519,"x_min":8,"x_max":490,"o":"m 374 -40 l 388 -37 l 390 -39 q 356 -51 390 -51 q 301 -21 322 -51 q 279 62 279 10 q 299 181 279 114 q 261 124 299 176 q 82 -53 147 -53 q 31 -27 54 -53 q 8 40 8 -1 q 57 164 8 81 q 175 313 106 247 q 296 379 244 378 l 310 379 q 397 359 361 379 q 433 306 433 339 q 421 290 433 290 q 417 294 417 290 q 349 346 393 346 q 169 216 271 346 q 67 18 67 86 q 81 -8 67 -8 q 343 274 143 -8 q 352 276 346 276 q 381 263 358 276 q 403 240 403 250 q 383 204 403 240 q 338 33 338 107 q 374 -40 338 -40 m 214 422 q 207 433 207 422 q 272 496 207 443 q 349 551 338 549 l 356 549 q 486 435 390 508 l 490 425 l 486 417 q 410 456 467 419 q 335 510 353 492 q 214 422 226 422 z "},"ã":{"ha":519,"x_min":8,"x_max":468,"o":"m 374 -40 l 388 -37 l 390 -39 q 356 -51 390 -51 q 301 -21 322 -51 q 279 62 279 10 q 299 181 279 114 q 261 124 299 176 q 82 -53 147 -53 q 31 -27 54 -53 q 8 40 8 -1 q 57 164 8 81 q 175 313 106 247 q 296 379 244 378 l 310 379 q 397 359 361 379 q 433 306 433 339 q 421 290 433 290 q 417 294 417 290 q 349 346 393 346 q 169 216 271 346 q 67 18 67 86 q 81 -8 67 -8 q 343 274 143 -8 q 352 276 346 276 q 381 263 358 276 q 403 240 403 250 q 383 204 403 240 q 338 33 338 107 q 374 -40 338 -40 m 319 494 l 419 474 q 463 496 446 474 q 468 492 468 496 q 460 476 468 488 q 434 451 451 464 q 403 438 417 438 q 349 452 390 438 q 297 467 307 467 q 273 460 286 467 q 250 446 260 453 q 239 439 240 439 l 238 443 q 248 460 238 449 q 278 483 258 472 q 319 494 299 494 z "},"ä":{"ha":519,"x_min":8,"x_max":475,"o":"m 374 -40 l 388 -37 l 390 -39 q 356 -51 390 -51 q 301 -21 322 -51 q 279 62 279 10 q 299 181 279 114 q 261 124 299 176 q 82 -53 147 -53 q 31 -27 54 -53 q 8 40 8 -1 q 57 164 8 81 q 175 313 106 247 q 296 379 244 378 l 310 379 q 397 359 361 379 q 433 306 433 339 q 421 290 433 290 q 417 294 417 290 q 349 346 393 346 q 169 216 271 346 q 67 18 67 86 q 81 -8 67 -8 q 343 274 143 -8 q 352 276 346 276 q 381 263 358 276 q 403 240 403 250 q 383 204 403 240 q 338 33 338 107 q 374 -40 338 -40 m 415 425 q 400 435 408 425 q 392 457 392 446 q 423 491 392 468 q 471 514 454 514 l 475 513 l 475 514 l 475 513 q 460 494 469 504 l 443 453 q 415 425 433 425 m 289 425 q 274 435 281 425 q 267 458 267 446 q 297 492 267 469 q 344 514 328 514 l 349 513 l 349 514 l 349 513 q 342 505 347 511 q 333 494 338 499 l 317 453 q 289 425 307 425 z "},"å":{"ha":519,"x_min":8,"x_max":442,"o":"m 374 -40 l 388 -37 l 390 -39 q 356 -51 390 -51 q 301 -21 322 -51 q 279 62 279 10 q 299 181 279 114 q 261 124 299 176 q 82 -53 147 -53 q 31 -27 54 -53 q 8 40 8 -1 q 57 164 8 81 q 175 313 106 247 q 296 379 244 378 l 310 379 q 397 359 361 379 q 433 306 433 339 q 421 290 433 290 q 417 294 417 290 q 349 346 393 346 q 169 216 271 346 q 67 18 67 86 q 81 -8 67 -8 q 343 274 143 -8 q 352 276 346 276 q 381 263 358 276 q 403 240 403 250 q 383 204 403 240 q 338 33 338 107 q 374 -40 338 -40 m 442 464 q 397 518 442 518 q 335 483 368 518 q 303 407 303 449 q 344 365 303 365 q 412 396 382 365 q 442 464 442 426 m 417 467 q 417 451 417 467 q 399 410 417 435 q 357 386 381 386 q 342 409 342 386 q 367 465 342 432 q 375 479 375 478 l 363 486 q 394 499 383 499 q 417 467 417 499 z "},"æ":{"ha":658,"x_min":8,"x_max":646,"o":"m 310 379 q 429 322 400 379 q 528 379 492 379 q 592 358 565 379 q 618 306 618 336 q 553 201 618 251 q 426 150 488 150 q 411 156 411 150 l 418 163 q 578 326 578 213 q 565 343 578 343 q 511 311 550 343 q 393 173 443 256 q 343 33 343 90 q 385 -25 343 -25 q 493 26 432 -25 q 640 174 526 54 q 646 166 646 174 q 643 156 646 158 q 406 -57 500 -57 q 360 -51 388 -57 l 358 -51 q 300 -20 321 -51 q 279 63 279 11 q 299 181 279 114 q 261 124 299 176 q 82 -53 147 -53 q 31 -27 54 -53 q 8 40 8 -1 q 57 164 8 81 q 175 313 106 247 q 296 379 244 378 l 310 379 m 349 346 q 169 216 271 346 q 67 18 67 86 q 81 -8 67 -8 q 343 274 143 -8 q 351 276 346 276 q 378 265 356 276 q 411 304 390 283 q 349 346 392 346 z "},"ç":{"ha":336,"x_min":-67,"x_max":356,"o":"m 347 174 q 356 167 356 174 q 353 156 356 161 q 111 -57 207 -57 q -7 53 -7 -57 q 77 258 -7 136 q 239 379 161 379 q 297 359 267 379 q 326 315 326 339 q 282 250 326 250 q 268 257 269 250 q 285 319 285 294 q 274 343 285 343 q 218 311 257 343 q 100 172 150 256 q 50 32 50 89 q 93 -25 50 -25 q 203 26 142 -25 q 294 118 242 63 q 347 174 346 174 m 99 -226 q 52 -301 99 -272 q -58 -331 6 -331 q -67 -318 -67 -331 q -6 -303 -67 -310 q 36 -285 17 -301 q 56 -237 56 -268 q 28 -185 56 -232 q 0 -126 0 -139 q 20 -62 0 -89 q 72 -36 40 -36 q 86 -43 85 -36 q 38 -108 38 -50 q 68 -160 38 -112 q 99 -226 99 -208 z "},"è":{"ha":365,"x_min":-7,"x_max":356,"o":"m 347 174 q 356 167 356 174 q 353 156 356 161 q 111 -57 207 -57 q -7 53 -7 -57 q 77 258 -7 138 q 240 379 161 379 q 299 358 274 379 q 325 306 325 336 q 260 201 325 253 q 133 150 194 150 q 121 156 121 150 l 125 163 q 285 326 285 213 q 274 343 285 343 q 218 311 257 343 q 100 172 150 256 q 50 32 50 89 q 93 -25 50 -25 q 203 26 142 -25 q 294 118 242 63 q 347 174 346 174 m 167 574 q 261 507 174 574 q 349 433 349 440 q 337 425 349 425 q 242 476 325 425 q 156 533 160 526 q 153 556 153 539 q 167 574 153 574 z "},"é":{"ha":365,"x_min":-7,"x_max":454,"o":"m 347 174 q 356 167 356 174 q 353 156 356 161 q 111 -57 207 -57 q -7 53 -7 -57 q 77 258 -7 138 q 240 379 161 379 q 299 358 274 379 q 325 306 325 336 q 260 201 325 253 q 133 150 194 150 q 121 156 121 150 l 125 163 q 285 326 285 213 q 274 343 285 343 q 218 311 257 343 q 100 172 150 256 q 50 32 50 89 q 93 -25 50 -25 q 203 26 142 -25 q 294 118 242 63 q 347 174 346 174 m 271 431 q 354 499 271 436 q 446 563 438 563 q 454 547 454 563 q 447 522 454 531 q 363 468 439 514 q 278 422 286 422 q 271 431 271 422 z "},"ê":{"ha":365,"x_min":-7,"x_max":421,"o":"m 347 174 q 356 167 356 174 q 353 156 356 161 q 111 -57 207 -57 q -7 53 -7 -57 q 77 258 -7 138 q 240 379 161 379 q 299 358 274 379 q 325 306 325 336 q 260 201 325 253 q 133 150 194 150 q 121 156 121 150 l 125 163 q 285 326 285 213 q 274 343 285 343 q 218 311 257 343 q 100 172 150 256 q 50 32 50 89 q 93 -25 50 -25 q 203 26 142 -25 q 294 118 242 63 q 347 174 346 174 m 263 499 q 148 410 160 410 q 136 420 136 410 q 201 484 136 431 q 278 539 267 538 l 285 538 q 417 425 329 489 l 421 414 l 417 407 q 342 442 397 407 q 263 499 286 476 z "},"ë":{"ha":365,"x_min":-7,"x_max":401,"o":"m 347 174 q 356 167 356 174 q 353 156 356 161 q 111 -57 207 -57 q -7 53 -7 -57 q 77 258 -7 138 q 240 379 161 379 q 299 358 274 379 q 325 306 325 336 q 260 201 325 253 q 133 150 194 150 q 121 156 121 150 l 125 163 q 285 326 285 213 q 274 343 285 343 q 218 311 257 343 q 100 172 150 256 q 50 32 50 89 q 93 -25 50 -25 q 203 26 142 -25 q 294 118 242 63 q 347 174 346 174 m 342 422 q 327 433 335 422 q 319 456 319 444 q 351 490 319 468 q 399 513 382 513 l 401 511 l 401 510 q 386 492 393 497 l 369 450 q 342 422 360 422 m 214 422 q 201 433 208 422 q 193 456 193 444 q 224 490 193 468 q 271 513 256 513 l 275 511 l 275 510 q 260 492 267 497 l 242 450 q 214 422 229 422 z "},"ì":{"ha":250,"x_min":-17,"x_max":271,"o":"m 271 121 q 176 22 271 93 q 46 -50 81 -50 q -17 21 -17 -50 q 46 174 -17 69 q 146 278 108 278 q 169 269 156 278 q 183 253 183 261 q 170 238 176 246 q 154 217 164 229 q 131 187 144 204 q 103 150 118 169 q 24 10 24 47 q 51 -28 24 -28 q 126 11 68 -28 q 227 85 185 50 q 269 126 269 121 q 271 121 271 125 m 56 528 q 61 528 56 528 q 153 463 67 528 q 239 388 239 397 q 231 379 239 379 q 137 428 207 385 q 56 482 67 472 q 44 510 44 492 q 56 528 44 528 z "},"í":{"ha":250,"x_min":-17,"x_max":406,"o":"m 271 121 q 176 22 271 93 q 46 -50 81 -50 q -17 21 -17 -50 q 46 174 -17 69 q 146 278 108 278 q 169 269 156 278 q 183 253 183 261 q 170 238 176 246 q 154 217 164 229 q 131 187 144 204 q 103 150 118 169 q 24 10 24 47 q 51 -28 24 -28 q 126 11 68 -28 q 227 85 185 50 q 269 126 269 121 q 271 121 271 125 m 178 373 q 178 377 178 373 q 279 459 178 382 q 393 536 381 536 q 406 516 406 536 q 395 486 406 496 q 289 420 385 476 q 190 364 193 364 q 178 373 178 364 z "},"î":{"ha":250,"x_min":-17,"x_max":335,"o":"m 271 121 q 176 22 271 93 q 46 -50 81 -50 q -17 21 -17 -50 q 46 174 -17 69 q 146 278 108 278 q 169 269 156 278 q 183 253 183 261 q 170 238 176 246 q 154 217 164 229 q 131 187 144 204 q 103 150 118 169 q 24 10 24 47 q 51 -28 24 -28 q 126 11 68 -28 q 227 85 185 50 q 269 126 269 121 q 271 121 271 125 m 176 432 q 59 344 69 344 q 49 355 49 344 q 115 418 49 365 q 192 474 181 471 l 197 471 q 328 358 243 424 l 335 347 l 331 340 q 252 377 310 342 q 176 432 194 413 z "},"ï":{"ha":250,"x_min":-17,"x_max":319,"o":"m 271 121 q 176 22 271 93 q 46 -50 81 -50 q -17 21 -17 -50 q 46 174 -17 69 q 146 278 108 278 q 169 269 156 278 q 183 253 183 261 q 170 238 176 246 q 154 217 164 229 q 131 187 144 204 q 103 150 118 169 q 24 10 24 47 q 51 -28 24 -28 q 126 11 68 -28 q 227 85 185 50 q 269 126 269 121 q 271 121 271 125 m 258 378 q 244 388 251 378 q 236 410 236 399 q 267 444 236 422 q 315 467 299 467 l 319 465 q 303 447 315 458 l 288 406 q 258 378 275 378 m 132 378 q 117 388 125 378 q 110 411 110 399 q 141 445 110 424 q 189 467 172 467 l 193 465 q 176 447 185 454 l 161 406 q 132 378 149 378 z "},"ð":{"ha":324,"x_min":-15,"x_max":365,"o":"m 351 289 l 317 294 q 319 250 319 267 q 261 47 319 135 q 115 -42 203 -42 q 3 76 3 -42 q 81 263 3 179 q 232 347 160 347 q 194 447 232 382 l 150 415 q 101 399 117 399 q 79 421 79 399 q 94 442 79 431 l 172 485 q 106 531 136 531 q 4 442 46 531 q -4 432 0 432 q -15 453 -15 432 q 35 535 -15 500 q 135 569 86 569 q 225 514 185 569 q 315 565 274 539 l 318 561 l 318 558 q 242 482 318 543 q 300 340 264 443 q 365 310 365 328 q 351 289 365 289 m 271 236 q 258 294 271 272 q 147 238 196 288 q 78 138 99 189 q 58 47 58 86 q 115 -25 58 -25 q 221 65 171 -25 q 271 236 271 154 z "},"ñ":{"ha":424,"x_min":26,"x_max":440,"o":"m 429 354 q 422 347 429 360 q 353 176 383 276 q 322 46 322 76 q 353 -39 322 -39 q 378 -26 363 -39 q 392 -12 394 -12 q 396 -24 396 -12 q 354 -60 396 -60 q 290 -23 313 -60 q 268 82 268 14 q 304 262 268 150 q 374 374 340 374 l 381 374 q 429 354 429 374 m 321 340 q 322 335 322 339 q 311 318 322 332 q 103 7 161 136 l 90 -29 q 69 -44 82 -44 q 42 -37 57 -44 q 26 -21 26 -31 q 72 147 26 3 q 118 363 118 290 q 108 386 118 382 q 89 390 99 390 q 79 396 79 389 q 100 408 79 408 q 193 332 193 408 q 126 106 193 303 q 244 271 188 201 q 321 340 301 340 m 292 513 l 390 490 q 433 513 419 490 q 440 510 440 513 q 419 477 440 499 q 379 456 397 456 q 319 470 361 456 q 267 485 278 485 q 244 477 257 485 q 222 463 231 469 q 211 456 213 456 l 210 460 q 219 476 210 464 q 249 501 229 489 q 292 513 269 513 z "},"ò":{"ha":324,"x_min":3,"x_max":365,"o":"m 351 289 l 317 294 q 319 250 319 267 q 261 47 319 135 q 115 -42 203 -42 q 3 76 3 -42 q 24 177 3 124 q 78 264 46 231 q 63 329 63 289 q 96 402 63 369 q 178 435 129 435 q 300 340 269 435 q 365 310 365 328 q 351 289 365 289 m 161 396 q 113 369 132 396 q 93 316 93 343 q 97 276 93 289 q 228 347 192 347 l 232 347 q 161 396 214 396 m 146 229 q 168 220 160 219 q 178 221 176 221 q 185 214 185 221 q 166 203 185 203 q 132 213 147 203 q 58 51 58 126 q 115 -25 58 -25 q 221 65 171 -25 q 271 236 271 154 q 258 294 271 272 q 146 229 206 286 m 122 614 l 122 624 q 133 642 122 642 q 230 576 143 642 q 317 501 317 510 q 307 493 317 493 q 230 533 281 501 q 169 570 179 564 q 151 582 158 576 q 139 591 144 588 q 131 598 133 594 q 125 603 128 601 q 122 614 122 606 z "},"ó":{"ha":324,"x_min":3,"x_max":418,"o":"m 351 289 l 317 294 q 319 250 319 267 q 261 47 319 135 q 115 -42 203 -42 q 3 76 3 -42 q 24 177 3 124 q 78 264 46 231 q 63 329 63 289 q 96 402 63 369 q 178 435 129 435 q 300 340 269 435 q 365 310 365 328 q 351 289 365 289 m 161 396 q 113 369 132 396 q 93 316 93 343 q 97 276 93 289 q 228 347 192 347 l 232 347 q 161 396 214 396 m 146 229 q 168 220 160 219 q 178 221 176 221 q 185 214 185 221 q 166 203 185 203 q 132 213 147 203 q 58 51 58 126 q 115 -25 58 -25 q 221 65 171 -25 q 271 236 271 154 q 258 294 271 272 q 146 229 206 286 m 404 624 q 418 608 418 624 q 410 585 418 593 q 324 531 401 576 q 240 485 246 485 q 233 492 233 485 q 315 561 233 499 q 404 624 397 624 z "},"ô":{"ha":324,"x_min":3,"x_max":403,"o":"m 351 289 l 317 294 q 319 250 319 267 q 261 47 319 135 q 115 -42 203 -42 q 3 76 3 -42 q 24 177 3 124 q 78 264 46 231 q 63 329 63 289 q 96 402 63 369 q 178 435 129 435 q 300 340 269 435 q 365 310 365 328 q 351 289 365 289 m 161 396 q 113 369 132 396 q 93 316 93 343 q 97 276 93 289 q 228 347 192 347 l 232 347 q 161 396 214 396 m 146 229 q 168 220 160 219 q 178 221 176 221 q 185 214 185 221 q 166 203 185 203 q 132 213 147 203 q 58 51 58 126 q 115 -25 58 -25 q 221 65 171 -25 q 271 236 271 154 q 258 294 271 272 q 146 229 206 286 m 126 472 q 118 483 118 472 q 183 546 118 493 q 260 601 249 599 l 267 599 q 397 486 310 551 l 403 475 l 399 468 q 321 505 378 469 q 246 560 264 540 q 126 472 138 472 z "},"õ":{"ha":324,"x_min":3,"x_max":385,"o":"m 351 289 l 317 294 q 319 250 319 267 q 261 47 319 135 q 115 -42 203 -42 q 3 76 3 -42 q 24 177 3 124 q 78 264 46 231 q 63 329 63 289 q 96 402 63 369 q 178 435 129 435 q 300 340 269 435 q 365 310 365 328 q 351 289 365 289 m 161 396 q 113 369 132 396 q 93 316 93 343 q 97 276 93 289 q 228 347 192 347 l 232 347 q 161 396 214 396 m 146 229 q 168 220 160 219 q 178 221 176 221 q 185 214 185 221 q 166 203 185 203 q 132 213 147 203 q 58 51 58 126 q 115 -25 58 -25 q 221 65 171 -25 q 271 236 271 154 q 258 294 271 272 q 146 229 206 286 m 235 557 l 335 535 q 379 557 358 535 q 385 553 385 557 q 377 537 385 549 q 352 513 369 525 q 319 500 335 500 q 262 515 303 500 q 211 529 221 529 q 188 522 201 529 q 164 507 174 514 q 153 500 154 500 l 151 503 q 162 521 151 508 q 192 545 172 533 q 235 557 213 557 z "},"ö":{"ha":324,"x_min":3,"x_max":382,"o":"m 351 289 l 317 294 q 319 250 319 267 q 261 47 319 135 q 115 -42 203 -42 q 3 76 3 -42 q 24 177 3 124 q 78 264 46 231 q 63 329 63 289 q 96 402 63 369 q 178 435 129 435 q 300 340 269 435 q 365 310 365 328 q 351 289 365 289 m 161 396 q 113 369 132 396 q 93 316 93 343 q 97 276 93 289 q 228 347 192 347 l 232 347 q 161 396 214 396 m 146 229 q 168 220 160 219 q 178 221 176 221 q 185 214 185 221 q 166 203 185 203 q 132 213 147 203 q 58 51 58 126 q 115 -25 58 -25 q 221 65 171 -25 q 271 236 271 154 q 258 294 271 272 q 146 229 206 286 m 322 489 q 308 499 315 489 q 300 522 300 510 q 331 556 300 533 q 379 578 363 578 l 382 576 l 382 578 l 382 576 q 367 558 374 564 l 351 517 q 322 489 339 489 m 194 489 q 181 499 189 489 q 174 522 174 510 q 205 556 174 533 q 251 578 236 578 l 256 576 l 256 578 l 256 576 q 240 558 247 564 l 222 517 q 194 489 210 489 z "},"÷":{"ha":425,"x_min":19,"x_max":417,"o":"m 236 349 q 267 338 253 349 q 281 315 281 328 q 267 292 281 301 q 240 282 254 282 q 196 318 196 282 q 236 349 196 349 m 417 233 q 323 202 417 221 q 183 183 229 183 q 19 208 19 183 q 46 233 19 233 l 315 235 q 415 238 374 235 q 417 233 417 236 m 189 139 q 219 128 206 139 q 232 105 232 118 q 219 82 232 92 q 193 72 206 72 q 149 110 149 72 q 189 139 149 139 z "},"ø":{"ha":324,"x_min":3,"x_max":374,"o":"m 339 326 q 365 310 365 326 q 349 289 365 289 q 333 292 346 289 q 315 294 319 294 q 319 250 319 274 q 261 45 319 132 q 114 -42 203 -42 q 83 -39 100 -42 q 38 -174 38 -131 q 42 -192 38 -186 q 46 -199 46 -197 q 33 -212 46 -212 q 17 -167 17 -212 q 58 -31 17 -122 q 3 76 3 -4 q 24 178 3 124 q 78 264 46 232 q 61 328 61 288 q 95 402 61 369 q 177 435 129 435 q 257 407 225 435 q 338 551 328 551 q 374 528 374 551 q 368 511 374 522 l 289 365 q 313 336 299 346 q 339 326 328 326 m 158 396 q 111 369 129 396 q 93 313 93 342 q 97 276 93 285 q 229 347 188 346 l 231 351 q 158 396 210 396 m 271 236 q 257 294 271 272 q 250 293 254 293 q 104 3 174 150 l 92 -19 q 114 -25 108 -25 q 221 65 171 -25 q 271 236 271 156 m 150 222 q 142 211 150 211 q 131 213 133 211 q 57 47 57 126 q 69 0 57 17 q 124 125 92 47 q 189 265 157 203 q 146 229 164 250 l 150 222 z "},"ù":{"ha":532,"x_min":8,"x_max":446,"o":"m 131 361 l 118 386 q 128 390 118 390 q 174 376 139 390 q 208 353 208 363 q 133 199 194 325 q 71 28 71 72 q 89 -15 71 -15 q 153 35 111 -15 q 235 151 194 85 l 351 340 q 396 374 371 374 q 446 354 446 374 q 439 347 446 360 q 369 176 400 276 q 338 46 338 76 q 368 -39 338 -39 q 408 -12 378 -39 q 411 -24 411 -12 q 370 -60 411 -60 q 306 -23 329 -60 q 283 69 283 14 q 306 215 283 124 q 160 -7 197 39 q 89 -53 124 -53 q 31 -27 54 -53 q 8 29 8 -1 q 69 222 8 88 q 131 361 131 356 m 417 450 q 407 443 417 443 q 319 490 397 443 q 231 546 240 538 q 221 573 221 554 q 235 592 221 592 q 329 526 242 592 q 417 450 417 460 z "},"ú":{"ha":532,"x_min":8,"x_max":446,"o":"m 131 361 l 118 386 q 128 390 118 390 q 174 376 139 390 q 208 353 208 363 q 133 199 194 325 q 71 28 71 72 q 89 -15 71 -15 q 153 35 111 -15 q 235 151 194 85 l 351 340 q 396 374 371 374 q 446 354 446 374 q 438 346 446 360 q 368 176 399 276 q 338 46 338 76 q 368 -39 338 -39 q 408 -12 378 -39 q 411 -24 411 -12 q 370 -60 411 -60 q 306 -23 329 -60 q 283 69 283 14 q 306 215 283 124 q 160 -7 197 39 q 89 -53 124 -53 q 31 -27 54 -53 q 8 29 8 -1 q 69 222 8 88 q 131 361 131 356 m 254 417 q 254 421 254 417 q 336 488 254 425 q 428 550 418 550 q 439 535 439 550 q 430 510 439 519 q 344 455 421 500 q 261 410 268 410 q 254 417 254 410 z "},"û":{"ha":532,"x_min":8,"x_max":449,"o":"m 131 361 l 118 386 q 128 390 118 390 q 174 376 139 390 q 208 353 208 363 q 133 199 194 325 q 71 28 71 72 q 89 -15 71 -15 q 153 35 111 -15 q 235 151 194 85 l 351 340 q 396 374 371 374 q 446 354 446 374 q 439 347 446 360 q 368 178 399 276 q 338 47 338 79 q 368 -39 338 -39 q 408 -12 378 -39 q 411 -24 411 -12 q 370 -60 411 -60 q 306 -23 329 -60 q 283 69 283 14 q 306 215 283 124 q 160 -7 197 39 q 89 -53 124 -53 q 31 -27 54 -53 q 8 29 8 -1 q 69 222 8 88 q 131 361 131 356 m 172 443 q 165 453 165 443 q 230 517 165 464 q 306 571 294 569 l 314 569 q 444 456 353 522 l 449 446 l 444 438 q 370 473 425 438 q 292 531 315 508 q 172 443 188 443 z "},"ü":{"ha":532,"x_min":8,"x_max":446,"o":"m 131 361 l 118 386 q 128 390 118 390 q 174 376 139 390 q 208 353 208 363 q 133 199 194 325 q 71 28 71 72 q 89 -15 71 -15 q 153 35 111 -15 q 235 151 194 85 l 351 340 q 396 374 371 374 q 446 354 446 374 q 438 346 446 360 q 368 176 399 276 q 338 46 338 76 q 368 -39 338 -39 q 408 -12 378 -39 q 411 -24 411 -12 q 370 -60 411 -60 q 306 -23 329 -60 q 283 69 283 14 q 306 215 283 124 q 160 -7 197 39 q 89 -53 124 -53 q 31 -27 54 -53 q 8 29 8 -1 q 69 222 8 88 q 131 361 131 356 m 381 435 q 367 446 374 435 q 360 469 360 457 q 391 504 360 482 q 438 526 422 526 l 442 524 l 442 522 q 435 515 440 521 q 426 506 431 510 l 408 464 q 381 435 397 435 m 254 435 q 240 446 247 435 q 232 469 232 457 q 263 503 232 481 q 311 526 294 526 l 315 524 l 315 522 l 299 506 l 282 464 q 254 435 271 435 z "},"ý":{"ha":406,"x_min":-254,"x_max":450,"o":"m 424 261 q 332 -92 424 128 q 86 -496 229 -331 q -162 -661 -57 -661 q -254 -571 -254 -661 q -97 -286 -254 -461 q 260 8 67 -101 q 246 -17 267 8 q -224 -581 -224 -407 q -171 -647 -224 -647 q 47 -472 -81 -647 q 266 -77 175 -297 q 357 272 357 143 q 340 339 357 321 q 82 14 156 146 q 40 -44 58 -44 q -1 -21 -1 -44 q 54 144 -3 -7 l 93 251 q 114 363 111 307 l 114 368 q 110 386 114 383 q 92 389 107 389 q 78 396 78 389 q 100 408 78 408 q 189 342 189 408 q 106 106 189 310 q 247 272 154 172 q 363 371 339 371 q 351 349 363 358 q 418 321 414 342 q 424 261 424 285 m 267 477 q 267 481 267 477 q 348 547 267 485 q 440 608 429 608 q 450 594 450 608 q 439 565 450 579 q 356 515 432 560 q 273 469 279 469 q 267 477 267 469 z "},"þ":{"ha":229,"x_min":-151,"x_max":319,"o":"m 146 667 l 97 657 q 88 665 88 657 q 139 686 88 686 q 219 668 190 686 q 249 617 249 650 q 194 478 249 585 l 122 336 q 222 367 167 367 q 319 274 319 367 q 217 39 319 167 q 24 -89 115 -89 q -40 -71 -12 -89 q -106 -322 -106 -247 q -81 -356 -106 -356 q -57 -348 -74 -356 q -37 -340 -40 -340 q -35 -343 -35 -340 q -54 -362 -35 -353 q -92 -371 -74 -371 q -131 -346 -110 -371 q -151 -294 -151 -321 q -111 -96 -151 -200 l -85 -24 q -90 -18 -90 -24 q -87 -10 -90 -12 l -82 -14 q 139 517 1 197 q 171 638 171 610 q 146 667 171 667 m 225 339 q 92 233 165 339 q -28 -39 1 42 q -3 -42 -11 -42 q 172 72 89 -42 q 254 296 254 185 q 225 339 254 339 z "},"ÿ":{"ha":406,"x_min":-254,"x_max":424,"o":"m 424 261 q 332 -92 424 128 q 86 -496 229 -331 q -162 -661 -57 -661 q -254 -571 -254 -661 q -97 -286 -254 -461 q 260 8 67 -101 q 246 -17 267 8 q -224 -581 -224 -407 q -171 -647 -224 -647 q 47 -472 -81 -647 q 266 -77 175 -297 q 357 272 357 143 q 340 339 357 321 q 82 14 156 146 q 40 -44 58 -44 q -1 -21 -1 -44 q 54 144 -3 -7 l 93 251 q 114 363 111 307 l 114 368 q 110 386 114 383 q 92 389 107 389 q 78 396 78 389 q 100 408 78 408 q 189 342 189 408 q 106 106 189 310 q 247 272 154 172 q 363 371 339 371 q 351 349 363 358 q 418 321 414 342 q 424 261 424 285 m 183 322 q 211 350 201 322 l 228 392 q 242 410 238 403 l 242 411 l 242 410 l 239 411 q 192 389 222 411 q 161 355 161 367 q 168 333 161 343 q 183 322 175 322 m 56 322 q 42 333 49 322 q 35 355 35 343 q 65 389 35 367 q 111 411 96 411 l 115 410 l 115 411 l 115 410 q 101 392 111 403 l 83 350 q 56 322 69 322 m 347 449 q 333 460 340 449 q 325 483 325 471 q 357 517 325 494 q 404 539 389 539 l 408 538 l 408 539 l 408 538 q 392 519 406 533 l 376 476 q 347 449 364 449 m 221 449 q 206 460 214 449 q 199 483 199 471 q 230 517 199 494 q 278 539 261 539 l 281 538 l 281 539 l 281 538 q 267 519 276 531 l 250 476 q 221 449 238 449 z "},"ħ":{"ha":0,"x_min":-44,"x_max":385,"o":"m 221 671 l 172 661 q 165 669 165 661 q 219 690 165 690 q 298 671 272 690 q 324 622 324 651 q 261 464 324 592 l 179 296 l 97 107 q 210 224 154 157 q 295 333 267 292 q 328 374 324 374 l 335 374 q 385 354 385 374 q 378 347 385 360 q 308 176 339 276 q 278 46 278 76 q 307 -39 278 -39 q 347 -12 317 -39 q 351 -24 351 -12 q 312 -60 351 -60 q 247 -19 272 -60 q 222 75 222 21 q 249 201 222 129 q 76 47 158 110 q 49 -60 49 -29 l 49 -67 q 61 -81 61 -75 q 44 -93 61 -93 q 29 -86 36 -93 q -44 -1 -44 -10 q -36 7 -44 7 l -33 7 q 29 49 4 29 q 113 282 57 154 l 192 464 q 247 640 244 585 q 221 671 247 671 m 18 -50 q 17 -30 17 -43 q 21 8 17 -17 q -17 -10 -11 -8 q 18 -50 -4 -31 m 302 476 q 336 472 302 476 q 371 457 371 468 q 344 446 371 446 q 106 428 286 446 q 76 438 76 428 q 89 458 76 447 q 177 485 121 485 q 302 476 233 485 z "},"ı":{"ha":214,"x_min":21,"x_max":203,"o":"m 203 349 q 121 162 160 275 q 82 6 82 49 q 100 -37 82 -37 q 132 -22 113 -37 q 156 -3 151 -7 q 165 6 160 1 q 171 0 171 6 q 131 -40 171 -17 q 74 -62 92 -62 q 21 14 21 -62 q 104 318 21 128 q 112 339 104 324 q 124 358 119 354 q 150 368 133 368 q 203 349 199 368 z "},"ĳ":{"ha":433,"x_min":-279,"x_max":447,"o":"m 275 576 q 278 569 278 576 l 271 529 q 207 443 250 443 q 157 460 175 443 q 275 576 210 496 m 444 547 q 447 540 449 547 q 446 526 446 532 q 378 413 429 413 q 326 431 346 413 q 444 547 379 467 m 319 294 l 315 351 l 315 354 q 328 364 315 364 q 364 353 340 364 q 392 331 388 342 q 397 272 397 308 q 301 -92 397 133 q 60 -485 204 -318 q -187 -651 -83 -651 q -258 -630 -236 -651 q -279 -562 -279 -608 q -179 -340 -279 -472 q 94 -74 -79 -207 q 44 -40 67 -67 q 21 14 21 -14 q 104 318 21 128 q 112 339 104 324 q 124 358 119 354 q 150 368 133 368 q 203 349 199 368 q 121 162 160 275 q 82 1 82 49 q 111 -46 82 -46 q 222 14 126 -46 l 233 19 q 236 15 236 19 q 219 -7 236 10 q -137 -352 -26 -222 q -249 -569 -249 -482 q -197 -636 -249 -636 q 29 -465 -96 -636 q 237 -72 154 -293 q 319 294 319 149 z "},"Ķ":{"ha":632,"x_min":10,"x_max":824,"o":"m 793 599 q 808 594 793 599 q 824 579 824 589 q 810 569 824 569 q 763 579 774 579 q 608 519 700 579 q 378 353 517 460 q 207 222 240 247 q 399 -40 285 61 q 586 -140 513 -140 q 624 -106 624 -140 q 554 31 624 -72 l 557 33 q 586 13 565 33 q 653 -104 653 -51 q 624 -157 653 -136 q 551 -178 596 -178 q 374 -98 464 -178 q 213 114 285 -18 q 163 223 163 219 q 173 240 163 226 q 190 254 183 254 q 197 244 196 254 q 363 379 268 292 l 486 492 q 628 585 574 563 q 722 608 682 608 q 793 599 763 608 m 44 -72 q 54 -114 44 -89 q 61 -143 65 -143 q 25 -119 40 -143 q 10 -43 10 -94 q 207 471 10 125 q 279 576 260 576 q 314 567 294 576 q 333 553 333 558 q 306 510 314 524 q 284 475 297 496 q 257 431 271 454 q 44 -72 44 63 m 122 -283 q 167 -211 167 -239 q 153 -187 167 -200 q 139 -168 139 -174 q 169 -137 139 -137 q 199 -147 186 -137 q 213 -181 213 -157 q 188 -245 213 -204 q 128 -286 163 -286 q 122 -283 122 -286 z "},"ķ":{"ha":385,"x_min":21,"x_max":458,"o":"m 208 671 l 161 661 q 151 669 151 661 q 205 690 151 690 q 285 671 258 690 q 311 625 311 651 q 203 353 311 599 q 68 43 86 97 q 164 174 74 56 l 136 197 q 156 231 136 207 q 183 254 176 254 q 214 236 189 254 q 347 365 278 308 q 444 421 415 421 q 458 390 458 421 q 401 253 458 317 q 271 174 344 189 q 326 -24 326 83 q 317 -108 326 -65 q 297 -151 308 -151 q 285 -142 285 -151 l 292 -86 q 179 156 292 36 q 57 -35 72 4 q 61 -43 61 -39 q 44 -56 61 -56 q 21 -15 21 -56 q 44 110 21 26 l 151 378 q 235 633 235 594 q 208 671 235 671 m 382 360 q 380 364 382 364 q 308 298 378 364 q 231 222 238 232 q 265 210 236 210 q 338 265 294 210 q 382 360 382 319 m 165 -68 q 195 -78 182 -68 q 208 -112 208 -89 q 183 -176 208 -136 q 124 -217 158 -217 q 118 -214 118 -217 l 122 -210 q 162 -147 161 -162 q 148 -119 163 -132 q 133 -100 133 -106 q 165 -68 133 -68 z "},"ĸ":{"ha":496,"x_min":21,"x_max":610,"o":"m 56 -21 l 57 -35 q 61 -43 61 -39 q 44 -56 61 -56 q 21 -15 21 -56 q 44 110 21 26 l 151 378 q 235 633 235 594 q 208 671 235 671 l 161 661 q 151 669 151 661 q 205 690 151 690 q 285 671 258 690 q 311 625 311 651 q 248 456 311 599 q 149 239 185 314 q 99 131 114 164 q 56 -21 56 33 m 600 481 q 569 490 576 490 q 416 395 539 490 q 197 211 293 300 q 326 4 250 83 q 450 -75 403 -75 q 475 -46 475 -75 q 429 61 475 -22 l 431 63 q 472 19 450 63 q 494 -48 494 -25 q 476 -87 494 -71 q 428 -103 457 -103 q 305 -52 374 -103 q 194 92 236 -1 q 151 194 151 185 q 166 219 151 204 q 185 235 181 235 q 192 229 190 235 q 266 303 208 243 q 383 422 324 363 q 479 496 443 478 q 541 514 515 514 q 588 506 567 514 q 610 490 610 497 q 600 481 610 481 z "},"ŀ":{"ha":394,"x_min":28,"x_max":399,"o":"m 114 -32 l 136 -25 q 143 -32 143 -25 q 94 -54 143 -54 q 28 57 28 -54 q 72 291 28 131 q 185 592 117 451 q 307 732 253 732 q 368 712 338 732 q 399 668 399 692 q 104 224 399 568 q 81 44 81 121 q 114 -32 81 -32 m 365 672 q 356 689 365 689 q 235 541 314 689 q 114 260 156 393 q 365 672 365 589 m 290 281 q 320 270 307 281 q 333 247 333 260 q 320 224 333 233 q 294 214 307 214 q 250 251 250 214 q 290 281 250 281 z "},"ł":{"ha":239,"x_min":-28,"x_max":399,"o":"m 100 208 l 260 211 l 260 208 q 193 186 260 200 q 92 172 126 172 q 81 38 81 107 q 114 -32 81 -32 l 136 -25 q 143 -32 143 -25 q 94 -54 143 -54 q 28 57 28 -54 q 40 172 28 117 q -28 190 -28 176 q -8 208 -28 208 l 47 208 q 170 558 86 385 q 307 732 254 732 q 368 712 338 732 q 399 668 399 692 q 104 224 399 568 l 100 208 m 365 672 q 356 689 365 689 q 235 541 314 689 q 114 260 156 393 q 365 672 365 589 z "},"Œ":{"ha":1368,"x_min":31,"x_max":1442,"o":"m 1354 643 q 1394 701 1369 699 q 1442 683 1442 701 q 1411 644 1439 683 q 1356 557 1383 606 q 1328 488 1328 508 l 1332 467 q 1329 464 1332 464 q 1308 513 1308 464 q 1339 618 1308 563 q 1307 621 1325 621 q 1008 506 1161 621 q 803 243 856 390 q 1236 275 1121 243 q 1247 268 1247 275 q 1075 217 1247 243 q 786 188 903 190 q 782 138 782 161 q 844 -12 782 47 q 1003 -71 906 -71 q 1347 90 1197 -71 q 1375 110 1367 110 q 1381 99 1381 110 q 1368 75 1381 89 q 1175 -58 1293 -10 q 955 -106 1057 -106 q 788 -52 853 -106 q 714 94 722 1 q 243 -104 526 -104 q 91 -43 151 -104 q 31 111 31 18 q 128 356 31 235 q 372 553 225 478 q 657 628 518 628 q 813 590 754 628 q 871 486 871 551 q 864 446 871 461 q 1065 597 953 540 q 1282 654 1178 654 q 1354 643 1335 654 m 699 254 l 738 246 q 746 272 740 253 q 786 357 757 311 q 734 452 776 411 q 629 511 692 493 q 544 520 606 517 q 476 526 482 524 l 481 529 q 594 544 529 544 q 728 512 658 544 q 828 425 797 479 q 838 475 838 450 q 788 570 838 535 q 657 606 739 606 q 404 538 532 606 q 192 357 276 471 q 107 124 107 243 q 160 -18 107 32 q 310 -68 214 -68 q 660 83 492 -68 q 701 128 690 110 q 721 192 713 146 q 703 216 714 192 q 693 247 693 240 q 699 254 693 254 z "},"œ":{"ha":597,"x_min":3,"x_max":594,"o":"m 588 174 q 594 167 594 174 q 592 156 594 161 q 351 -57 446 -57 q 236 11 257 -57 q 115 -42 188 -42 q 3 76 3 -42 q 24 177 3 124 q 78 264 46 231 q 63 329 63 289 q 96 402 63 369 q 185 435 129 435 q 278 383 240 435 q 319 261 317 332 q 481 379 411 379 q 540 358 514 379 q 565 306 565 336 q 500 201 565 253 q 374 150 435 150 q 360 156 360 150 l 364 163 q 525 326 525 213 q 513 343 525 343 q 458 311 497 343 q 340 172 390 256 q 290 32 290 89 q 333 -25 290 -25 q 442 26 381 -25 q 531 114 475 54 q 588 174 586 174 m 146 229 q 168 220 160 219 q 178 221 176 221 q 185 214 185 221 q 166 203 185 203 q 132 213 147 203 q 58 51 58 126 q 115 -25 58 -25 q 229 76 176 -25 l 235 89 q 254 153 238 103 q 271 238 271 203 q 258 294 271 272 q 146 229 206 286 m 161 396 q 113 369 132 396 q 93 316 93 343 q 97 276 93 289 q 228 347 192 347 l 232 347 q 161 396 215 396 z "},"Ŗ":{"ha":810,"x_min":1,"x_max":964,"o":"m 576 639 q 857 595 750 639 q 964 478 964 551 q 892 344 964 406 q 713 247 821 282 q 496 211 604 211 q 428 215 458 211 q 675 -51 593 -51 q 715 -17 707 -51 l 726 42 q 740 3 740 32 q 715 -53 740 -25 q 646 -81 689 -81 q 517 8 603 -81 q 344 235 432 96 q 233 -46 233 46 q 250 -81 233 -71 q 243 -85 250 -85 q 214 -4 214 -85 q 313 289 214 119 q 290 340 290 329 q 326 367 290 367 q 349 350 342 367 q 586 583 465 525 q 597 585 590 585 q 615 578 603 585 q 628 565 628 571 q 624 558 628 558 l 560 494 q 382 290 479 413 q 417 244 403 253 q 472 235 432 235 q 675 275 567 235 q 857 375 783 315 q 931 489 931 435 q 847 574 931 543 q 628 606 764 606 q 51 453 271 606 q 24 442 33 442 q 1 464 1 442 q 95 552 1 511 q 316 615 189 593 q 558 639 443 638 l 576 639 m 343 -121 q 373 -131 360 -121 q 386 -165 386 -142 q 361 -229 386 -189 q 301 -269 336 -269 q 296 -267 296 -269 q 340 -194 335 -224 q 326 -170 340 -183 q 313 -151 313 -157 q 343 -121 313 -121 z "},"ŗ":{"ha":361,"x_min":26,"x_max":424,"o":"m 424 378 q 408 363 424 383 q 351 254 356 289 q 378 208 351 217 q 388 204 388 206 q 360 193 388 193 q 314 215 333 193 q 294 263 294 236 q 301 310 294 290 q 188 199 233 256 q 126 100 143 142 q 101 24 110 58 q 88 -27 93 -10 q 69 -44 82 -44 q 42 -37 57 -44 q 26 -21 26 -31 q 72 147 26 3 q 118 363 118 290 q 99 388 118 386 q 79 396 79 390 q 100 408 79 408 q 193 332 193 408 q 147 168 193 310 q 314 336 222 290 q 380 386 336 386 q 424 378 424 386 m 79 -118 q 109 -128 96 -118 q 122 -161 122 -137 q 97 -226 122 -185 q 38 -267 72 -267 q 31 -264 31 -267 q 76 -192 71 -219 q 62 -167 76 -181 q 47 -149 47 -154 q 79 -118 47 -118 z "},"Š":{"ha":442,"x_min":22,"x_max":650,"o":"m 604 603 q 569 615 604 615 q 390 585 486 615 q 226 503 294 556 q 157 398 157 450 q 278 219 157 346 q 399 29 399 93 q 353 -47 399 -17 q 243 -78 307 -78 l 208 -78 q 22 4 75 -78 l 25 13 q 153 -15 85 -15 q 288 11 221 -15 q 356 74 356 38 q 296 158 356 94 q 152 322 181 279 q 124 425 124 365 q 411 654 124 579 q 557 683 539 683 q 590 679 575 683 l 625 643 q 650 601 647 618 q 576 533 650 572 q 485 493 501 493 l 483 500 l 554 549 q 604 603 604 582 m 408 791 q 376 817 408 791 q 344 853 344 843 q 353 863 344 863 q 471 775 364 863 q 547 830 490 794 q 624 868 604 865 l 628 860 l 622 850 q 486 733 542 789 q 408 791 472 739 z "},"š":{"ha":282,"x_min":-1,"x_max":382,"o":"m 253 400 q 292 371 263 400 q 321 334 321 342 q 314 326 321 326 q 275 333 283 333 q 147 288 213 333 q 81 194 81 242 q 146 110 81 185 q 211 9 211 36 q 172 -46 211 -18 q 94 -74 133 -74 q 26 -62 54 -74 q -1 -37 -1 -50 q 158 43 158 -4 q 121 86 158 53 q 49 229 49 150 q 120 342 49 285 q 253 400 192 400 m 165 593 q 132 619 165 593 q 100 656 100 646 q 107 665 100 665 q 226 578 118 665 q 303 633 246 597 q 379 669 360 668 l 382 663 l 378 651 q 247 540 281 579 l 240 536 q 165 593 229 540 z "},"Ÿ":{"ha":750,"x_min":22,"x_max":804,"o":"m 753 449 q 789 456 774 456 q 804 451 804 456 q 798 440 804 446 q 783 431 792 435 q 744 410 756 415 q 536 46 701 278 q 303 -262 385 -176 q 171 -349 221 -349 q 106 -287 106 -349 q 164 -150 106 -250 q 300 35 222 -50 q 453 179 338 76 q 661 372 568 282 q 690 463 672 382 q 708 581 708 543 q 689 618 708 618 q 289 139 633 618 l 221 44 q 172 7 203 7 q 142 35 142 7 l 142 39 l 239 268 q 310 472 286 379 q 335 601 333 565 q 281 686 335 686 q 191 638 254 686 q 76 542 128 590 q 25 485 25 493 l 26 485 q 22 488 22 485 q 26 499 22 492 q 154 640 83 582 q 275 697 225 697 q 376 569 376 697 q 249 133 376 425 l 458 426 q 674 660 631 660 q 718 642 718 660 q 710 633 717 639 q 764 519 764 579 q 753 449 764 486 m 165 -267 q 150 -309 150 -300 q 157 -318 150 -318 q 163 -318 157 -318 q 196 -294 168 -318 q 430 -27 300 -207 q 639 318 560 153 q 165 -267 278 -8 m 629 729 q 615 740 622 729 q 607 764 607 751 q 638 798 607 776 q 685 819 669 819 l 689 818 l 689 817 q 675 799 683 811 l 657 757 q 629 729 646 729 m 503 729 q 488 740 496 729 q 481 763 481 751 q 511 797 481 774 q 558 819 542 819 l 564 818 l 564 817 q 547 799 560 814 l 531 757 q 503 729 519 729 z "},"Ž":{"ha":929,"x_min":3,"x_max":929,"o":"m 929 -61 q 828 -221 929 -156 q 788 -240 796 -240 q 779 -236 779 -240 q 781 -233 781 -235 q 900 -57 900 -126 q 635 24 900 24 q 359 3 508 24 q 119 -41 210 -18 q 28 -74 28 -64 l 29 -74 q 6 -40 6 -74 l 4 -29 q 13 -19 4 -24 q 74 0 21 -15 l 72 10 q 145 87 72 31 q 297 192 218 143 q 511 319 375 242 q 846 515 843 507 q 646 565 801 565 q 467 551 603 565 q 307 538 332 538 q 250 571 250 538 q 263 594 250 585 q 285 583 275 583 q 451 601 296 583 q 701 619 607 619 q 872 485 843 619 q 886 436 886 469 q 814 399 886 428 l 726 361 q 263 103 526 267 l 114 13 q 685 71 458 71 q 861 35 793 71 q 929 -61 929 0 m 596 707 q 519 763 583 711 q 454 826 454 815 q 463 836 454 836 q 581 749 474 836 q 659 804 603 769 q 735 840 715 839 l 738 833 l 733 824 q 601 711 635 749 l 596 707 z "},"ž":{"ha":464,"x_min":13,"x_max":496,"o":"m 147 350 l 364 371 q 432 341 404 371 q 460 260 460 311 q 379 196 460 253 l 146 31 q 346 46 201 46 q 451 -51 451 46 q 424 -106 451 -106 q 419 -100 419 -106 q 436 -47 436 -53 q 290 1 436 1 q 17 -54 144 1 q 13 -35 13 -54 q 25 0 13 -17 l 26 1 q 56 18 46 4 q 246 169 56 40 q 439 307 436 297 q 388 331 421 331 q 254 308 356 331 q 136 285 153 285 q 119 313 119 285 q 136 357 119 342 q 147 350 144 350 m 356 536 q 278 592 343 540 q 214 655 214 644 q 221 665 214 665 q 340 578 233 665 q 417 633 360 597 q 493 669 474 668 l 496 663 l 492 651 q 361 540 394 579 l 356 536 z "},"ƒ":{"ha":356,"x_min":-140,"x_max":526,"o":"m 481 676 q 511 659 496 676 q 526 629 526 642 q 518 613 526 617 l 472 576 q 114 167 317 438 q 214 126 178 167 q 250 24 250 86 q 204 -124 250 -37 q 91 -275 158 -210 q -29 -340 24 -340 q -140 -222 -140 -340 q -6 69 -140 -157 q 281 486 128 296 q 481 676 433 676 m 207 3 q 104 131 207 131 q 26 49 81 131 q -62 -112 -29 -32 q -94 -244 -94 -193 q -31 -315 -94 -315 q 67 -257 10 -315 q 166 -122 125 -199 q 207 3 207 -46 z "},"ˆ":{"ha":388,"x_min":67,"x_max":353,"o":"m 194 393 q 76 306 86 306 q 67 317 67 306 q 133 380 67 328 q 210 435 199 432 l 215 432 q 346 319 253 390 l 353 308 l 347 301 q 270 338 328 303 q 194 393 213 374 z "},"ˇ":{"ha":388,"x_min":100,"x_max":382,"o":"m 165 593 q 132 619 165 593 q 100 656 100 646 q 107 665 100 665 q 226 578 118 665 q 303 633 246 597 q 379 669 360 668 l 382 663 l 378 651 q 247 540 281 579 l 240 536 q 165 593 229 540 z "},"˘":{"ha":193,"x_min":47,"x_max":242,"o":"m 239 446 q 242 442 242 446 q 240 435 242 438 q 129 346 200 346 q 72 367 97 346 q 47 417 47 388 q 56 428 47 428 q 115 372 76 385 q 140 368 125 368 q 182 388 156 368 q 226 426 208 407 q 239 446 243 446 z "},"˙":{"ha":182,"x_min":58,"x_max":142,"o":"m 81 471 q 65 481 72 471 q 58 503 58 492 q 90 538 58 515 q 136 560 121 560 l 140 558 l 140 560 l 142 558 l 126 540 l 108 499 q 81 471 96 471 z "},"˚":{"ha":239,"x_min":44,"x_max":185,"o":"m 185 514 q 156 447 185 478 q 85 415 126 415 q 44 457 44 415 q 77 534 44 499 q 140 569 110 569 q 185 514 185 569 m 103 435 q 114 435 103 435 q 141 460 124 435 q 158 517 158 485 q 136 550 158 550 q 106 536 129 550 l 118 531 q 113 523 118 529 q 104 509 108 517 q 94 492 100 501 q 83 455 83 475 q 103 435 83 435 z "},"˛":{"ha":246,"x_min":40,"x_max":211,"o":"m 211 -151 q 166 -179 211 -162 q 97 -196 121 -196 q 40 -151 40 -196 q 63 -76 40 -121 q 106 -29 86 -31 l 108 -32 q 72 -125 72 -83 q 121 -167 72 -167 q 199 -143 140 -167 q 211 -151 211 -143 z "},"˜":{"ha":285,"x_min":29,"x_max":263,"o":"m 113 476 l 213 454 q 257 476 235 454 q 263 472 263 476 q 255 456 263 468 q 230 433 247 444 q 197 421 213 421 q 140 435 181 421 q 87 449 99 449 q 31 421 75 449 l 29 424 q 40 440 29 428 q 70 465 50 453 q 113 476 90 476 z "},"˝":{"ha":296,"x_min":74,"x_max":247,"o":"m 106 658 q 119 628 119 653 q 110 572 119 603 q 85 513 101 540 q 74 556 74 513 q 78 628 74 600 q 86 659 83 656 q 95 663 89 663 q 106 658 101 663 m 233 658 q 247 628 247 653 q 238 572 247 603 q 213 513 229 540 q 203 556 203 513 q 207 628 203 600 q 215 659 211 656 q 224 663 218 663 q 233 658 229 663 z "},"–":{"ha":425,"x_min":19,"x_max":417,"o":"m 417 233 q 323 202 417 221 q 183 183 229 183 q 19 208 19 183 q 46 233 19 233 l 315 235 q 415 238 374 235 q 417 233 417 236 z "},"—":{"ha":633,"x_min":19,"x_max":636,"o":"m 636 233 q 388 194 636 218 q 323 186 382 194 q 142 178 264 178 q 19 194 19 178 q 30 218 19 203 q 46 233 40 233 l 483 235 q 636 238 594 235 l 636 233 z "},"‘":{"ha":183,"x_min":65,"x_max":156,"o":"m 111 594 q 126 572 111 585 q 140 553 140 558 q 108 521 140 521 q 79 531 93 521 q 65 565 65 542 q 91 630 65 589 q 150 671 117 671 q 156 668 156 671 q 111 594 111 624 z "},"’":{"ha":165,"x_min":114,"x_max":207,"o":"m 114 521 q 161 593 161 568 q 147 617 161 603 q 132 638 132 631 q 164 668 132 668 q 193 658 179 668 q 207 624 207 649 q 181 558 207 599 q 121 517 154 517 q 114 521 114 517 z "},"‚":{"ha":90,"x_min":57,"x_max":90,"o":"m 90 36 q 81 -35 90 14 q 65 -85 72 -85 q 60 -28 64 -85 q 57 36 57 28 q 83 40 78 40 q 90 39 89 40 l 90 36 z "},"“":{"ha":215,"x_min":15,"x_max":213,"o":"m 167 603 q 181 579 167 592 q 194 563 194 567 q 165 532 194 532 q 135 542 149 532 q 121 576 121 553 q 147 640 121 599 q 207 682 172 682 q 213 679 213 682 q 167 603 167 633 m 61 604 q 75 581 61 593 q 89 563 89 568 q 58 532 89 532 q 28 542 42 532 q 15 575 15 551 q 42 640 15 599 q 100 682 68 682 q 106 678 106 682 q 61 604 61 628 z "},"”":{"ha":215,"x_min":6,"x_max":204,"o":"m 161 678 q 190 667 176 678 q 204 634 204 657 q 177 569 204 611 q 118 528 150 528 q 111 532 111 528 q 157 597 157 581 q 143 628 157 614 q 129 646 129 642 q 161 678 129 678 m 54 678 q 83 667 69 678 q 97 633 97 657 q 71 568 97 608 q 10 528 44 528 q 6 531 6 528 q 51 597 51 581 q 37 628 51 614 q 22 646 22 642 q 54 678 22 678 z "},"„":{"ha":164,"x_min":57,"x_max":164,"o":"m 164 36 q 153 -35 164 15 q 136 -85 143 -85 q 132 -31 135 -85 q 129 36 129 24 q 161 40 150 40 l 164 39 l 164 36 m 90 36 q 81 -35 90 14 q 65 -85 72 -85 q 60 -28 64 -85 q 57 36 57 28 q 83 40 78 40 q 90 39 89 40 l 90 36 z "},"†":{"ha":406,"x_min":29,"x_max":399,"o":"m 29 401 q 193 410 54 410 q 197 599 197 494 q 232 621 197 614 l 233 600 q 222 410 233 526 q 356 403 313 410 q 399 394 399 397 q 320 388 399 388 q 221 386 242 388 q 191 107 208 239 q 165 -25 174 -25 q 161 -19 161 -25 q 193 385 178 174 q 71 378 85 378 q 45 386 57 378 q 29 401 33 394 z "},"‡":{"ha":390,"x_min":21,"x_max":399,"o":"m 29 401 q 193 410 54 410 q 197 599 197 494 q 232 621 197 614 l 233 600 q 222 410 233 526 q 356 403 313 410 q 399 394 399 397 q 320 388 399 388 q 221 386 242 388 l 214 310 q 312 305 235 310 q 389 296 389 300 q 378 289 389 289 l 318 289 q 211 286 247 289 q 165 -25 181 -25 q 161 -19 161 -25 q 167 44 164 10 q 186 285 169 103 q 62 278 75 278 q 36 286 49 278 q 21 301 24 294 q 188 310 38 310 q 193 385 190 333 q 71 378 85 378 q 45 386 57 378 q 29 401 33 394 z "},"•":{"ha":561,"x_min":57,"x_max":510,"o":"m 283 436 q 329 436 283 436 q 442 369 375 436 q 510 210 510 301 q 443 51 510 118 q 283 -17 376 -17 q 123 50 189 -17 q 57 210 57 117 q 124 370 57 304 q 283 436 192 436 z "},"…":{"ha":582,"x_min":67,"x_max":558,"o":"m 558 13 q 465 -76 558 19 q 451 -62 451 -76 q 469 2 451 -25 q 523 29 488 29 q 558 13 558 29 m 369 13 q 275 -76 369 18 q 263 -62 263 -76 q 281 1 263 -26 q 324 29 299 29 q 369 13 369 29 m 174 13 q 81 -76 174 17 q 67 -62 67 -76 q 85 2 67 -25 q 138 29 103 29 q 174 13 174 29 z "},"‰":{"ha":906,"x_min":100,"x_max":879,"o":"m 879 133 q 856 110 879 119 q 857 106 857 110 q 776 -33 857 57 q 646 -124 694 -124 l 629 -124 q 590 -101 606 -124 q 574 -51 574 -78 q 666 123 574 7 q 813 239 758 239 q 867 182 867 239 q 863 146 867 164 q 871 140 863 143 q 879 133 879 138 m 150 -112 q 164 -142 150 -128 q 140 -158 164 -158 q 122 -117 122 -158 q 143 -28 122 -76 q 347 287 167 33 q 635 658 528 540 q 382 586 486 588 q 383 582 383 586 q 302 443 383 533 q 171 353 221 353 l 154 353 q 116 376 132 353 q 100 426 100 399 q 191 599 100 483 q 339 715 282 715 q 392 660 392 715 q 388 622 392 643 q 413 619 388 619 q 533 648 439 619 q 681 703 628 676 q 706 683 706 703 q 696 663 706 672 l 610 558 q 203 13 383 286 q 150 -112 150 -74 m 615 133 q 592 110 615 121 q 593 106 593 110 q 511 -33 593 58 q 381 -124 429 -124 l 364 -124 q 326 -101 342 -124 q 310 -51 310 -78 q 401 123 310 7 q 549 239 493 239 q 601 182 601 239 q 596 146 601 163 q 606 140 596 143 q 615 133 615 138 m 315 633 q 213 544 276 631 q 149 422 149 458 q 174 386 149 386 q 284 465 214 386 q 357 583 354 544 q 315 633 340 597 m 789 156 q 687 68 751 154 q 622 -56 622 -18 q 649 -93 622 -93 q 758 -12 688 -93 q 831 107 828 68 q 789 156 811 118 m 525 156 q 423 68 488 154 q 358 -56 358 -18 q 383 -93 358 -93 q 493 -12 422 -93 q 567 107 564 69 q 525 156 543 122 z "},"‹":{"ha":333,"x_min":89,"x_max":239,"o":"m 239 418 q 136 258 239 400 q 238 119 238 132 q 229 106 238 106 l 228 106 l 218 110 q 92 224 193 147 q 89 231 89 226 q 154 335 89 246 q 232 425 219 425 q 239 418 239 425 z "},"›":{"ha":333,"x_min":89,"x_max":239,"o":"m 239 293 q 172 187 239 276 q 94 97 106 97 q 89 104 89 97 q 193 264 89 119 q 90 406 90 394 q 99 417 90 417 l 101 417 l 110 414 q 236 299 136 376 q 239 293 239 297 z "},"⁄":{"ha":500,"x_min":25,"x_max":650,"o":"m 61 -72 q 76 -99 61 -86 q 51 -115 76 -115 q 25 -74 25 -115 q 40 -5 25 -32 q 146 157 54 22 q 588 725 543 725 q 650 699 650 725 q 640 679 650 689 l 492 507 q 61 -72 61 6 z "},"€":{"ha":633,"x_min":19,"x_max":650,"o":"m 74 403 l 101 400 q 147 404 143 400 q 510 607 329 607 q 572 581 544 607 q 599 519 599 556 q 595 511 599 515 q 589 507 592 507 q 588 510 588 508 l 588 517 q 519 551 588 551 q 369 512 450 551 q 231 414 288 472 q 232 411 231 413 l 386 411 l 526 425 q 540 422 540 425 q 535 417 540 419 q 374 357 419 368 q 168 333 328 346 q 129 275 154 319 q 154 274 131 274 l 436 286 l 442 286 q 450 282 450 286 q 446 279 449 281 q 101 197 325 224 q 88 121 88 156 q 138 33 88 60 q 299 7 188 7 q 474 57 357 7 q 642 151 592 107 q 650 150 649 151 q 649 142 650 146 q 263 -50 485 -50 q 57 188 57 -50 q 49 197 57 197 l 47 197 q 25 215 33 197 l 25 225 q 19 276 25 247 q 76 274 64 274 q 104 333 79 279 q 63 393 63 369 q 74 403 63 403 z "},"™":{"ha":686,"x_min":28,"x_max":663,"o":"m 650 486 q 599 318 650 318 q 588 328 588 318 q 621 510 613 471 q 463 368 514 368 q 368 510 407 368 q 344 433 358 489 q 314 342 329 378 q 278 306 299 306 q 267 314 267 306 q 299 399 267 322 q 344 533 331 476 q 364 607 358 589 q 383 625 369 625 q 397 601 389 625 q 426 445 418 467 q 440 411 435 424 q 472 389 451 389 q 575 502 503 389 q 651 615 647 615 q 663 594 663 615 q 650 513 663 569 l 650 486 m 129 596 l 56 592 q 28 604 32 592 q 148 624 33 611 q 331 636 263 636 q 353 626 353 636 q 303 608 353 614 q 238 600 254 603 q 209 590 222 597 q 190 578 196 583 q 177 556 183 572 q 167 528 171 540 q 157 487 164 515 q 133 401 150 458 q 104 322 115 343 q 74 300 93 300 q 56 314 56 300 l 158 586 q 129 596 158 596 z "},"∂":{"ha":371,"x_min":-15,"x_max":365,"o":"m 351 289 l 317 294 q 319 250 319 267 q 261 47 319 135 q 115 -42 203 -42 q 3 76 3 -42 q 81 263 3 179 q 232 347 160 347 q 190 458 232 386 q 106 531 147 531 q 4 442 46 531 q -4 432 0 432 q -15 453 -15 432 q 35 535 -15 500 q 140 569 86 569 q 297 350 226 569 q 299 345 297 347 q 300 340 300 343 q 365 310 365 328 q 351 289 365 289 m 271 236 q 258 294 271 272 q 147 238 196 288 q 78 138 99 189 q 58 47 58 86 q 115 -25 58 -25 q 221 65 171 -25 q 271 236 271 154 z "},"∞":{"ha":763,"x_min":44,"x_max":760,"o":"m 44 244 q 124 404 44 336 q 300 472 203 472 q 397 378 397 472 q 474 433 449 417 q 549 471 499 450 q 644 492 599 492 q 760 401 760 492 q 669 234 760 308 q 482 160 579 160 q 382 188 413 160 q 347 286 351 215 q 139 154 215 154 q 74 182 103 154 q 44 244 44 210 m 281 431 q 166 378 222 431 q 110 265 110 326 q 161 204 110 204 q 296 278 218 204 q 317 297 307 288 q 351 333 331 310 q 281 431 351 431 m 399 300 q 483 200 399 200 q 628 272 563 200 q 694 407 694 344 q 629 463 694 463 q 401 339 524 463 q 399 300 399 311 z "},"≠":{"ha":364,"x_min":58,"x_max":317,"o":"m 193 146 l 79 138 q 66 147 74 138 q 58 163 58 156 q 125 172 89 172 q 211 169 161 172 q 278 238 264 238 q 282 231 282 238 q 235 167 282 225 q 317 153 317 158 q 221 149 317 149 l 154 64 l 174 64 q 317 46 317 64 q 237 40 317 43 q 132 33 157 36 q 65 -33 81 -33 q 58 -29 58 -33 q 101 31 60 -24 q 81 29 88 29 q 66 39 74 29 q 58 54 58 49 l 58 56 q 68 57 60 56 q 126 61 93 61 l 193 146 z "},"≤":{"ha":333,"x_min":61,"x_max":278,"o":"m 232 425 q 239 415 239 425 q 136 258 239 404 q 238 119 238 132 q 229 106 238 106 l 228 106 l 218 110 q 158 171 181 154 l 92 224 q 89 233 89 226 q 150 332 89 239 q 232 425 211 425 m 61 51 q 167 60 69 60 q 278 44 265 60 q 198 33 278 39 q 83 26 118 26 q 61 51 65 26 z "},"≥":{"ha":333,"x_min":43,"x_max":260,"o":"m 236 299 q 239 290 239 297 q 185 201 239 283 q 123 118 140 139 q 97 97 106 97 q 89 104 89 97 q 193 264 89 119 q 90 406 90 394 q 99 417 90 417 l 101 417 l 110 414 q 169 351 142 374 l 236 299 m 43 51 q 149 60 51 60 q 260 44 247 60 q 180 33 260 39 q 65 26 100 26 q 43 51 47 26 z "},"":{"ha":257,"x_min":83,"x_max":174,"o":"m 131 310 q 160 300 147 310 q 174 266 174 290 q 149 201 174 242 q 89 161 124 161 q 83 165 83 161 l 113 200 q 128 235 128 224 q 114 260 128 247 q 100 279 100 274 q 131 310 100 310 z "},"":{"ha":625,"x_min":26,"x_max":600,"o":"m 600 253 q 526 129 579 189 q 446 69 474 69 q 383 85 418 69 q 322 101 349 101 q 261 85 294 101 q 207 69 228 69 q 88 172 149 69 q 26 378 26 274 q 77 543 26 483 q 197 603 128 603 q 260 588 218 603 q 331 572 303 572 q 399 588 360 572 q 454 604 439 604 q 582 531 538 604 q 506 388 506 486 q 600 253 506 290 m 322 618 q 361 712 322 658 q 446 765 400 765 q 456 762 454 765 q 458 751 458 758 l 458 743 q 419 639 458 685 q 326 593 379 593 q 322 618 322 603 m 157 458 q 152 454 157 454 q 146 460 147 454 l 140 460 q 152 450 140 450 q 164 457 164 450 q 156 467 164 464 l 150 467 q 147 471 147 468 q 151 474 147 474 q 157 471 156 474 l 163 471 q 151 478 160 478 q 142 471 142 478 q 150 464 142 464 l 157 458 m 185 460 q 175 471 185 471 q 165 460 165 471 q 174 450 165 450 q 185 456 182 450 l 178 456 l 175 454 q 169 460 171 454 l 185 460 m 171 464 q 174 467 171 467 q 178 464 178 467 l 171 464 m 197 471 q 192 468 193 471 l 192 471 l 188 471 l 188 443 l 193 443 l 193 453 q 197 450 193 450 q 207 460 207 450 q 197 471 207 471 m 192 460 q 192 464 192 460 q 196 467 192 467 q 200 460 200 467 q 196 454 200 454 q 192 460 192 454 m 208 467 l 211 467 l 211 454 q 217 450 211 450 l 218 454 l 217 454 l 215 456 l 215 467 l 218 467 l 218 471 l 215 471 l 215 476 l 211 476 l 211 471 l 208 471 l 208 467 m 240 460 q 231 471 240 471 q 221 460 221 471 q 232 450 221 450 q 240 456 238 450 l 235 456 l 232 454 q 226 460 226 454 l 240 460 m 226 464 q 231 467 228 467 q 235 464 235 467 l 226 464 m 272 464 q 266 471 272 471 q 260 468 260 471 q 255 471 258 471 q 249 468 251 471 l 249 471 l 242 471 l 242 451 l 249 451 l 249 464 q 254 467 249 467 l 254 451 l 260 451 l 260 464 q 267 467 260 467 l 267 451 l 272 451 l 272 464 m 296 460 q 296 466 296 460 q 289 471 296 471 q 281 468 282 471 l 281 476 l 276 476 l 276 451 l 281 453 q 290 450 283 450 q 296 460 296 450 m 290 460 q 290 457 290 460 q 285 454 290 454 q 281 460 281 454 q 285 467 281 467 q 290 460 290 467 m 303 460 l 317 460 l 317 464 q 308 471 317 471 q 299 460 299 471 q 308 450 299 450 q 317 456 317 450 l 313 456 q 306 454 308 454 q 303 460 303 454 m 303 464 q 308 467 303 467 q 313 464 313 467 l 303 464 m 332 471 q 325 467 326 471 l 325 471 l 319 471 l 319 451 l 325 451 l 325 460 q 331 467 325 467 l 332 467 l 332 471 m 344 469 l 353 469 l 353 451 l 357 451 l 357 476 l 353 476 q 349 474 353 474 l 344 474 l 344 469 m 369 467 q 374 474 369 474 q 378 471 378 474 l 382 474 q 373 476 382 476 q 364 463 364 476 q 374 450 364 450 q 383 459 383 450 q 375 468 383 468 q 369 467 374 468 m 378 459 q 378 457 378 459 q 374 454 378 454 q 369 459 369 454 q 374 464 369 464 q 378 459 378 464 m 386 447 l 386 446 q 392 451 392 446 l 392 456 l 386 456 l 386 451 l 389 451 q 386 447 389 447 m 419 471 q 419 469 419 471 q 413 462 419 468 q 406 451 406 456 l 424 451 l 424 456 l 413 456 q 419 459 414 457 q 424 472 424 461 q 416 476 424 476 q 406 468 408 476 l 411 468 q 415 474 411 474 q 419 471 419 474 m 438 476 q 426 463 426 476 q 438 450 426 450 q 444 463 444 450 q 438 476 444 476 m 438 454 q 432 464 432 454 q 438 474 432 474 q 440 464 440 474 q 438 454 440 454 m 458 476 q 447 463 447 476 q 458 450 447 450 q 465 463 465 450 q 458 476 465 476 m 458 454 q 453 464 453 454 q 458 474 453 474 q 461 464 461 474 q 458 454 461 454 m 477 476 q 473 476 477 476 q 468 468 468 476 q 474 460 468 460 q 482 463 481 460 q 478 454 482 454 q 474 457 474 454 l 468 457 q 476 450 471 450 q 486 463 486 450 q 477 476 486 476 m 476 464 q 474 469 474 464 q 476 474 474 474 q 482 469 482 474 q 476 464 482 464 m 235 388 l 242 388 l 242 369 l 247 369 l 247 396 l 242 396 q 239 392 242 392 l 235 392 l 235 388 m 268 389 q 268 388 268 389 q 261 381 268 386 q 254 369 254 375 l 272 369 l 272 374 l 260 374 l 264 378 q 272 388 272 381 q 265 396 272 396 q 254 386 257 396 l 260 386 q 263 392 260 392 q 268 389 268 392 m 278 389 l 278 383 l 283 383 l 283 389 l 278 389 m 278 374 l 278 369 l 283 369 l 283 374 l 278 374 m 289 388 l 296 388 l 296 369 l 300 369 l 300 396 l 296 396 q 293 392 296 392 l 289 392 l 289 388 m 318 368 q 322 368 318 368 q 326 382 326 368 q 318 396 326 396 q 310 382 310 396 q 318 368 310 368 m 317 372 q 316 372 317 372 q 314 382 314 372 q 317 392 314 392 q 321 382 321 392 q 317 372 321 372 m 353 379 q 363 388 363 379 q 353 396 363 396 l 342 396 l 342 369 l 347 369 l 347 379 l 353 379 m 353 392 q 356 388 356 392 q 353 383 356 383 l 347 383 l 347 392 l 353 392 m 392 396 l 383 396 l 379 374 l 375 396 l 365 396 l 365 369 l 371 369 l 371 392 l 378 369 l 382 369 l 388 392 l 388 369 l 392 369 l 392 396 m 143 307 q 143 306 143 307 q 136 299 143 304 q 129 288 129 293 l 147 288 l 147 293 l 136 293 q 142 297 136 294 q 147 306 147 300 q 140 315 147 315 q 129 304 132 315 l 135 304 q 139 310 135 310 q 143 307 143 310 m 151 315 l 151 288 l 171 288 l 171 293 l 157 293 l 157 315 l 151 315 m 178 304 l 179 310 l 190 310 l 190 315 l 175 315 l 174 300 l 183 300 q 186 295 186 300 q 183 290 186 290 q 178 296 178 290 l 172 296 q 183 286 174 286 q 192 295 192 286 q 183 304 192 304 l 178 304 m 194 304 l 200 304 q 203 310 200 310 q 207 307 207 310 q 201 299 207 304 q 194 288 194 293 l 213 288 l 213 293 l 200 293 q 213 308 213 300 q 203 315 213 315 q 194 304 194 315 m 225 288 q 233 310 225 301 l 233 315 l 214 315 l 214 308 l 229 308 q 218 288 218 303 l 225 288 m 238 306 l 243 306 l 243 288 l 250 288 l 250 315 l 246 315 l 240 310 l 238 310 l 238 306 m 271 299 q 267 290 268 290 q 263 293 263 290 l 257 294 q 264 286 257 286 q 275 301 275 286 q 266 315 275 315 q 257 306 257 315 q 263 297 257 297 q 271 299 269 297 m 267 300 q 261 305 261 300 q 267 310 261 310 q 269 305 269 310 q 267 300 269 300 m 285 288 q 296 310 285 301 l 296 315 l 278 315 l 278 308 l 290 308 q 281 288 281 301 l 285 288 m 303 297 l 299 297 q 306 286 299 286 q 317 296 317 286 q 313 301 317 301 q 315 307 315 304 q 306 315 315 315 q 299 306 299 315 l 303 306 q 306 310 303 310 q 310 307 310 310 q 304 303 310 304 l 304 300 q 311 295 311 300 q 306 290 311 290 q 303 297 303 290 m 332 307 q 332 306 332 307 q 326 299 332 304 q 319 288 319 293 l 338 288 l 338 293 l 325 293 q 331 296 325 294 q 338 306 338 303 q 326 315 338 315 q 319 304 319 315 l 324 304 q 328 310 324 310 q 332 307 332 310 m 339 296 q 349 286 339 286 q 358 296 358 286 q 354 301 358 300 q 357 307 357 304 q 349 315 357 315 q 340 307 340 315 q 343 301 340 304 q 339 296 339 300 m 353 295 q 353 293 353 295 q 349 290 353 290 q 344 295 344 290 q 349 300 344 300 q 353 295 353 300 m 349 304 q 347 304 349 304 q 344 307 344 304 q 349 310 344 310 q 353 307 353 310 q 349 304 353 304 m 363 306 l 368 306 l 368 288 l 374 288 l 374 315 l 369 315 q 365 310 369 314 l 363 310 l 363 306 m 400 301 q 400 308 400 301 q 390 315 400 315 q 381 301 381 315 q 390 286 381 286 q 400 301 400 286 m 390 290 q 388 290 390 290 q 386 300 386 290 q 390 310 386 310 q 394 300 394 310 q 390 290 394 290 m 421 301 q 421 308 421 301 q 411 315 421 315 q 401 301 401 315 q 411 286 401 286 q 421 301 421 286 m 412 290 q 409 290 412 290 q 407 300 407 290 q 412 310 407 310 q 417 300 417 310 q 412 290 417 290 m 428 297 l 424 297 q 432 286 424 286 q 440 296 440 286 q 438 301 440 301 q 440 307 440 303 q 432 315 440 315 q 424 306 424 315 l 428 306 q 431 310 428 310 q 436 308 436 310 q 429 303 436 306 l 429 300 q 436 295 436 300 q 432 290 436 290 q 428 297 428 290 m 444 306 l 451 306 l 451 288 l 456 288 l 456 315 l 451 315 q 449 310 451 311 l 444 310 l 444 306 m 469 315 l 464 315 l 472 288 l 476 288 l 482 308 l 486 288 l 490 288 l 497 315 l 492 315 l 488 296 l 483 315 l 479 315 l 474 296 l 469 315 z "}}}
